<svg width="57" height="56" viewBox="0 0 57 56" fill="none" xmlns="http://www.w3.org/2000/svg">
<path d="M0 28C0 12.536 12.536 0 28 0H29C44.464 0 57 12.536 57 28C57 43.464 44.464 56 29 56H28C12.536 56 0 43.464 0 28Z" fill="#F2F4F7"/>
<path d="M28 0.375H29C44.2569 0.375 56.625 12.7431 56.625 28C56.625 43.2569 44.2569 55.625 29 55.625H28C12.7431 55.625 0.375 43.2569 0.375 28C0.375 12.7431 12.7431 0.375 28 0.375Z" stroke="black" stroke-opacity="0.08" stroke-width="0.75"/>
<path d="M29.0938 17.4999H23.5125C21.5173 17.4999 20.5197 17.4999 19.7577 17.8814C19.0873 18.217 18.5423 18.7524 18.2008 19.411C17.8125 20.1596 17.8125 21.1397 17.8125 23.0999V32.8999C17.8125 34.8601 17.8125 35.8402 18.2008 36.5889C18.5423 37.2475 19.0873 37.7829 19.7577 38.1184C20.5197 38.4999 21.5173 38.4999 23.5125 38.4999H34.4375C35.5418 38.4999 36.094 38.4999 36.547 38.3807C37.7764 38.057 38.7367 37.1136 39.0661 35.9058C39.1875 35.4607 39.1875 34.9182 39.1875 33.8333M36.8125 23.3333V16.3333M33.25 19.8333H40.375M26.7188 23.9166C26.7188 25.2053 25.6554 26.2499 24.3438 26.2499C23.0321 26.2499 21.9688 25.2053 21.9688 23.9166C21.9688 22.6279 23.0321 21.5833 24.3438 21.5833C25.6554 21.5833 26.7188 22.6279 26.7188 23.9166ZM32.0507 27.9044L22.0057 36.876C21.4407 37.3806 21.1582 37.6329 21.1333 37.8515C21.1116 38.0409 21.1855 38.2288 21.3313 38.3547C21.4994 38.4999 21.8812 38.4999 22.6448 38.4999H33.7915C35.5005 38.4999 36.355 38.4999 37.0262 38.2179C37.8687 37.8637 38.54 37.2043 38.9004 36.3765C39.1875 35.7171 39.1875 34.8776 39.1875 33.1986C39.1875 32.6336 39.1875 32.3512 39.1246 32.0881C39.0456 31.7575 38.8942 31.4478 38.6807 31.1807C38.5109 30.9682 38.2864 30.7917 37.8374 30.4388L34.5157 27.828C34.0663 27.4748 33.8416 27.2982 33.5941 27.2359C33.376 27.1809 33.1465 27.1881 32.9324 27.2564C32.6894 27.3339 32.4765 27.5241 32.0507 27.9044Z" stroke="#667085" stroke-width="2" stroke-linecap="round" stroke-linejoin="round"/>
</svg>
