<svg width="20" height="19" viewBox="0 0 20 19" fill="none" xmlns="http://www.w3.org/2000/svg">
<path d="M13.3801 12.6414L13.8361 12.1884L12.7771 11.1244L12.3231 11.5774L13.3801 12.6414ZM15.3652 11.9984L17.2761 13.0374L17.9911 11.7194L16.0812 10.6814L15.3652 11.9984ZM17.6432 15.1014L16.2232 16.5144L17.2801 17.5774L18.7001 16.1654L17.6432 15.1014ZM15.3572 16.9684C13.9072 17.1044 10.1572 16.9834 6.09515 12.9454L5.03715 14.0084C9.46915 18.4154 13.6882 18.6314 15.4972 18.4624L15.3572 16.9684ZM6.09515 12.9454C2.22415 9.09545 1.58215 5.85845 1.50215 4.45345L0.00414998 4.53845C0.10415 6.30645 0.89915 9.89445 5.03715 14.0084L6.09515 12.9454ZM7.47015 6.76545L7.75715 6.47945L6.70115 5.41645L6.41415 5.70145L7.47015 6.76545ZM7.98515 2.84445L6.72515 1.16045L5.52415 2.06045L6.78415 3.74345L7.98515 2.84445ZM2.48415 0.793448L0.91415 2.35345L1.97215 3.41745L3.54115 1.85745L2.48415 0.793448ZM6.94215 6.23345C6.41215 5.70145 6.41215 5.70145 6.41215 5.70345H6.41015L6.40715 5.70745C6.35963 5.75536 6.31708 5.80796 6.28015 5.86445C6.22615 5.94445 6.16715 6.04945 6.11715 6.18245C5.99543 6.52577 5.9651 6.89486 6.02915 7.25345C6.16315 8.11845 6.75915 9.26145 8.28515 10.7794L9.34315 9.71545C7.91415 8.29545 7.57415 7.43145 7.51115 7.02345C7.48115 6.82945 7.51215 6.73345 7.52115 6.71145C7.52715 6.69811 7.52715 6.69612 7.52115 6.70545C7.51224 6.71925 7.5022 6.73229 7.49115 6.74445L7.48115 6.75445L7.47115 6.76345L6.94215 6.23345ZM8.28515 10.7794C9.81215 12.2974 10.9612 12.8894 11.8272 13.0214C12.2702 13.0894 12.6271 13.0354 12.8981 12.9344C13.05 12.8789 13.1918 12.7992 13.3181 12.6984L13.3682 12.6534L13.3752 12.6474L13.3782 12.6444L13.3792 12.6424C13.3792 12.6424 13.3802 12.6414 12.8512 12.1094C12.3212 11.5774 12.3242 11.5764 12.3242 11.5764L12.3261 11.5744L12.3281 11.5724L12.3342 11.5674L12.3442 11.5574L12.3821 11.5274C12.3915 11.5214 12.3891 11.5221 12.3751 11.5294C12.3502 11.5384 12.2521 11.5694 12.0552 11.5394C11.6412 11.4754 10.7712 11.1354 9.34315 9.71545L8.28515 10.7794ZM6.72515 1.15945C5.70515 -0.200552 3.70115 -0.416552 2.48415 0.793448L3.54115 1.85745C4.07315 1.32845 5.01715 1.38345 5.52415 2.06045L6.72515 1.15945ZM1.50315 4.45445C1.48315 4.10845 1.64215 3.74645 1.97215 3.41845L0.91315 2.35445C0.37615 2.88845 -0.04685 3.64445 0.00414998 4.53845L1.50315 4.45445ZM16.2232 16.5144C15.9492 16.7884 15.6532 16.9424 15.3582 16.9694L15.4972 18.4624C16.2322 18.3934 16.8332 18.0234 17.2812 17.5784L16.2232 16.5144ZM7.75715 6.47945C8.74215 5.50045 8.81515 3.95345 7.98615 2.84545L6.78515 3.74445C7.18815 4.28345 7.12815 4.99045 6.70015 5.41745L7.75715 6.47945ZM17.2771 13.0384C18.0941 13.4824 18.2211 14.5284 17.6441 15.1024L18.7022 16.1654C20.0422 14.8324 19.6291 12.6094 17.9921 11.7204L17.2771 13.0384ZM13.8361 12.1894C14.2201 11.8074 14.8382 11.7134 15.3661 11.9994L16.0821 10.6824C14.9981 10.0924 13.6542 10.2554 12.7782 11.1254L13.8361 12.1894Z" fill="#CD3C3F"/>
</svg>
