<svg width="21" height="17" viewBox="0 0 21 17" fill="none" xmlns="http://www.w3.org/2000/svg">
<path d="M0.75 3.964L7.73 8.618C8.693 9.259 9.174 9.58 9.694 9.705C10.154 9.815 10.633 9.815 11.092 9.705C11.612 9.58 12.093 9.259 13.056 8.618L20.036 3.964M5.55 15.75H15.236C16.916 15.75 17.756 15.75 18.398 15.423C18.9621 15.1352 19.4206 14.6763 19.708 14.112C20.036 13.47 20.036 12.63 20.036 10.95V5.55C20.036 3.87 20.036 3.03 19.709 2.388C19.4214 1.82354 18.9625 1.36462 18.398 1.077C17.756 0.75 16.916 0.75 15.236 0.75H5.55C3.87 0.75 3.03 0.75 2.388 1.077C1.82391 1.36479 1.36535 1.82369 1.078 2.388C0.75 3.03 0.75 3.87 0.75 5.55V10.95C0.75 12.63 0.75 13.47 1.077 14.112C1.36462 14.6765 1.82354 15.1354 2.388 15.423C3.03 15.75 3.87 15.75 5.55 15.75Z" stroke="#3C70CC" stroke-width="1.5" stroke-linecap="round" stroke-linejoin="round"/>
</svg>
