<svg width="14" height="14" viewBox="0 0 14 14" fill="none" xmlns="http://www.w3.org/2000/svg">
<path d="M6.70559 1.58311C6.82609 1.33896 7.17424 1.33896 7.29474 1.58311L8.85457 4.74368C8.90242 4.84063 8.99492 4.90783 9.10191 4.92338L12.5898 5.4302C12.8592 5.46935 12.9668 5.80047 12.7719 5.99051L10.248 8.45067C10.1706 8.52614 10.1352 8.63487 10.1535 8.74143L10.7493 12.2152C10.7954 12.4836 10.5137 12.6882 10.2727 12.5615L7.15303 10.9214C7.05733 10.8711 6.943 10.8711 6.8473 10.9214L3.72763 12.5615C3.48664 12.6882 3.20498 12.4836 3.251 12.2152L3.84681 8.74143C3.86508 8.63487 3.82976 8.52614 3.75233 8.45067L1.22847 5.99051C1.0335 5.80047 1.14108 5.46935 1.41052 5.4302L4.89842 4.92338C5.00542 4.90783 5.09791 4.84063 5.14576 4.74368L6.70559 1.58311Z" stroke="#828282" stroke-linejoin="round"/>
</svg>
