<svg width="14" height="14" viewBox="0 0 14 14" fill="none" xmlns="http://www.w3.org/2000/svg">
<path d="M4.90039 9.0999L9.10039 4.8999M5.2235 5.22035L5.21525 5.21201M8.78797 8.82147L8.77971 8.81313M4.62206 2.55918L4.02828 2.59534C3.25744 2.64228 2.64277 3.25695 2.59583 4.02779L2.55966 4.62157C2.53892 4.96218 2.40477 5.28605 2.17859 5.54157L1.78429 5.98701C1.27242 6.56527 1.27242 7.43454 1.78429 8.0128L2.17859 8.45823C2.40477 8.71375 2.53892 9.03762 2.55966 9.37823L2.59583 9.97201C2.64277 10.7429 3.25744 11.3575 4.02828 11.4045L4.62206 11.4406C4.96267 11.4614 5.28654 11.5955 5.54206 11.8217L5.98749 12.216C6.56575 12.7279 7.43503 12.7279 8.01329 12.216L8.45872 11.8217C8.71424 11.5955 9.03811 11.4614 9.37872 11.4406L9.9725 11.4045C10.7433 11.3575 11.358 10.7429 11.405 9.97201L11.4411 9.37823C11.4619 9.03762 11.596 8.71375 11.8222 8.45823L12.2165 8.0128C12.7284 7.43454 12.7284 6.56527 12.2165 5.987L11.8222 5.54157C11.596 5.28605 11.4619 4.96218 11.4411 4.62157L11.405 4.02779C11.358 3.25695 10.7433 2.64228 9.9725 2.59534L9.37872 2.55918C9.03811 2.53843 8.71424 2.40428 8.45872 2.1781L8.01329 1.7838C7.43503 1.27193 6.56575 1.27193 5.98749 1.7838L5.54206 2.1781C5.28654 2.40428 4.96267 2.53843 4.62206 2.55918Z" stroke="#828282" stroke-linecap="round"/>
</svg>
