<svg width="117" height="117" viewBox="0 0 117 117" fill="none" xmlns="http://www.w3.org/2000/svg">
<path d="M87.0519 55.2659H23.2182L7.25977 87.1826H103.01L87.0519 55.2659Z" stroke="#BBBBBB" stroke-width="2" stroke-miterlimit="10" stroke-linecap="round" stroke-linejoin="round"/>
<path d="M103.01 87.1826H7.25977V113.115H103.01V87.1826Z" stroke="#BBBBBB" stroke-width="2" stroke-miterlimit="10" stroke-linecap="round" stroke-linejoin="round"/>
<path d="M79.6617 100.149C79.6617 102.658 77.6288 104.691 75.1195 104.691C73.6339 104.691 72.3153 103.979 71.4858 102.874C70.9168 102.115 70.5773 101.171 70.5773 100.149C70.5773 99.1274 70.9166 98.1827 71.4858 97.4234C72.3156 96.3192 73.6339 95.6067 75.1195 95.6067C77.629 95.6067 79.6617 97.6396 79.6617 100.149ZM39.6906 100.149C39.6906 101.171 39.3517 102.115 38.7823 102.874C37.9546 103.979 36.6345 104.691 35.1487 104.691C32.6411 104.691 30.6064 102.658 30.6064 100.149C30.6064 97.6398 32.6411 95.6067 35.1487 95.6067C36.6345 95.6067 37.9546 96.3192 38.7823 97.4234C39.3517 98.1827 39.6906 99.1274 39.6906 100.149Z" stroke="#BBBBBB" stroke-width="2" stroke-miterlimit="10" stroke-linecap="round" stroke-linejoin="round"/>
<path d="M70.5784 100.149C70.5784 101.171 70.9178 102.115 71.487 102.874H38.7832C39.3524 102.115 39.6916 101.171 39.6916 100.149C39.6916 99.1274 39.3527 98.1827 38.7832 97.4233H71.4868C70.9178 98.1827 70.5784 99.1274 70.5784 100.149Z" stroke="#BBBBBB" stroke-width="2" stroke-miterlimit="10" stroke-linecap="round" stroke-linejoin="round"/>
<path d="M58.7586 55.2659H23.2188V74.9609H86.8192V55.2659H81.5704" stroke="#BBBBBB" stroke-width="2" stroke-miterlimit="10" stroke-linecap="round" stroke-linejoin="round"/>
<path d="M86.6268 74.9609H54.9223H23.218L19.1904 87.1826H54.9223H90.6541L86.6268 74.9609Z" stroke="#BBBBBB" stroke-width="2" stroke-miterlimit="10" stroke-linecap="round" stroke-linejoin="round"/>
<path d="M19.1599 48.7154L16.6025 43.1003" stroke="#BBBBBB" stroke-width="2" stroke-miterlimit="10" stroke-linecap="round" stroke-linejoin="round"/>
<path d="M22.9023 47.0104L24.4313 42.9243" stroke="#BBBBBB" stroke-width="2" stroke-miterlimit="10" stroke-linecap="round" stroke-linejoin="round"/>
<path d="M15.4162 50.4204L11.3301 48.8914" stroke="#BBBBBB" stroke-width="2" stroke-miterlimit="10" stroke-linecap="round" stroke-linejoin="round"/>
<path d="M37.2861 70.1104C37.2678 70.1104 37.2493 70.11 37.2308 70.1091C36.3855 70.0688 35.5617 69.9628 34.7822 69.7944C34.1654 69.6612 33.7733 69.0531 33.9068 68.4363C34.0402 67.8196 34.6481 67.4277 35.2648 67.5611C35.9218 67.703 36.6197 67.7924 37.3393 67.8266C37.9695 67.8566 38.4563 68.392 38.4261 69.0222C38.3973 69.634 37.8921 70.1104 37.2861 70.1104ZM41.8276 69.7396C41.2922 69.7396 40.8141 69.3614 40.7076 68.8161C40.5863 68.1968 40.9901 67.5965 41.6093 67.4754C42.2965 67.3411 43.0113 67.1676 43.7334 66.9604C44.3401 66.7855 44.9729 67.1365 45.147 67.7432C45.3211 68.3497 44.9706 68.9827 44.3641 69.1568C43.5787 69.3822 42.7997 69.5711 42.0483 69.7183C41.9743 69.7325 41.9005 69.7396 41.8276 69.7396ZM30.8664 68.006C30.6353 68.006 30.402 67.9361 30.2002 67.791C29.5145 67.2979 28.8817 66.727 28.3198 66.0945C27.9007 65.6228 27.9434 64.9005 28.4151 64.4812C28.8867 64.0621 29.6091 64.105 30.0282 64.5765C30.4786 65.0835 30.9852 65.5408 31.5345 65.9359C32.0469 66.3043 32.1634 67.0182 31.7951 67.5307C31.5718 67.8408 31.2217 68.006 30.8664 68.006ZM27.2848 62.4218C26.7161 62.4218 26.2234 61.9974 26.1523 61.4184C26.0531 60.612 25.9823 59.8197 25.9421 59.064C25.9085 58.4337 26.392 57.8958 27.0223 57.8622C27.6479 57.8259 28.1904 58.3122 28.224 58.9422C28.2617 59.6456 28.3278 60.3848 28.4203 61.1394C28.4973 61.7657 28.0522 62.3359 27.4258 62.4129C27.3785 62.4188 27.3312 62.4218 27.2848 62.4218ZM27.2581 55.5887C27.2026 55.5887 27.1464 55.5846 27.0897 55.5764C26.4654 55.4843 26.0342 54.9034 26.1263 54.2791C26.2501 53.4407 26.4274 52.6365 26.6534 51.8888C26.8358 51.2849 27.4738 50.9425 28.0776 51.1256C28.6818 51.3082 29.0234 51.9457 28.8408 52.5497C28.647 53.1907 28.4944 53.8847 28.387 54.613C28.3031 55.1806 27.8152 55.5887 27.2581 55.5887ZM71.2346 53.1256C71.2023 53.1256 71.1701 53.1242 71.1374 53.1214C70.4016 53.0595 69.6068 52.9562 68.7751 52.8143C68.153 52.7081 67.7348 52.1178 67.8411 51.4958C67.9474 50.8738 68.536 50.4547 69.1599 50.5618C69.9277 50.693 70.6576 50.7881 71.3289 50.8445C71.9578 50.8973 72.4247 51.4498 72.3717 52.0787C72.3216 52.6747 71.8223 53.1256 71.2346 53.1256ZM75.7727 52.8539C75.2642 52.8539 74.8006 52.512 74.6673 51.9969C74.5094 51.3861 74.8766 50.7627 75.4875 50.6048C76.1522 50.433 76.7523 50.183 77.2713 49.8619C77.8074 49.5299 78.5119 49.6953 78.8441 50.2319C79.1764 50.7684 79.0107 51.4727 78.4742 51.8047C77.7598 52.2471 76.9475 52.5879 76.0599 52.8173C75.9637 52.842 75.8675 52.8539 75.7727 52.8539ZM64.5112 51.8196C64.4122 51.8196 64.3119 51.8066 64.2116 51.7796C63.5151 51.5908 62.7873 51.3831 61.9859 51.1441C61.3812 50.9638 61.0373 50.3274 61.2174 49.7227C61.3977 49.1181 62.0332 48.7737 62.639 48.9542C63.4216 49.1875 64.1316 49.3902 64.8094 49.5737C65.4184 49.7387 65.7783 50.3662 65.6135 50.9755C65.4753 51.4844 65.0144 51.8196 64.5112 51.8196ZM57.9514 49.8258C57.8351 49.8258 57.717 49.808 57.6004 49.7703L55.4254 49.0673C54.8249 48.8736 54.4949 48.2296 54.6887 47.6293C54.8824 47.0288 55.5264 46.6986 56.1267 46.8926L58.3019 47.5955C58.9023 47.7893 59.2322 48.4332 59.0385 49.0338C58.8826 49.5175 58.434 49.8258 57.9514 49.8258ZM29.8712 49.3598C29.6086 49.3598 29.3449 49.2698 29.1296 49.0861C28.6498 48.6761 28.5931 47.9549 29.003 47.4753C29.554 46.8304 30.1842 46.2495 30.8766 45.7486C31.3876 45.3789 32.1022 45.4931 32.4719 46.0046C32.8419 46.5157 32.7272 47.2301 32.216 47.5998C31.6703 47.9947 31.1737 48.452 30.7405 48.9593C30.5147 49.2239 30.1938 49.3598 29.8712 49.3598ZM80.7013 48.4903C80.5571 48.4903 80.4106 48.4629 80.2689 48.4049C79.9529 48.2755 79.7262 48.0212 79.6222 47.7223C79.3478 47.6272 79.0749 47.5205 78.8046 47.4028C78.2262 47.1506 77.9618 46.4774 78.2139 45.8987C78.4659 45.3204 79.1396 45.0555 79.7177 45.308C79.8539 45.3674 79.9904 45.423 80.1275 45.4751C80.1867 45.274 80.242 45.0756 80.2934 44.8812C80.4547 44.271 81.0792 43.9065 81.6901 44.0686C82.3002 44.2299 82.664 44.8551 82.5027 45.4653C82.435 45.7207 82.3617 45.9817 82.2826 46.2461C82.5157 46.4993 82.6322 46.8544 82.5678 47.2196C82.4737 47.7534 82.0228 48.1348 81.5036 48.1622C81.2902 48.3717 81.0011 48.4903 80.7013 48.4903ZM51.4117 47.755C51.3032 47.755 51.1931 47.7394 51.0838 47.7068C50.3089 47.475 49.5985 47.2705 48.9113 47.0815C48.3028 46.9143 47.9454 46.2854 48.1127 45.6769C48.2799 45.0686 48.9086 44.7112 49.5174 44.8782C50.2207 45.0718 50.9472 45.2808 51.7385 45.5174C52.3432 45.6983 52.6866 46.335 52.5059 46.9394C52.3578 47.4348 51.9035 47.755 51.4117 47.755ZM85.8948 47.59C85.4802 47.59 85.0803 47.3635 84.8776 46.9693C84.5893 46.4081 84.8105 45.7194 85.3717 45.431C85.9149 45.152 86.4096 44.7683 86.8424 44.2905C87.2661 43.8229 87.9884 43.7866 88.4564 44.2105C88.9242 44.6341 88.9598 45.3567 88.5364 45.8245C87.9183 46.5068 87.2051 47.0582 86.4165 47.4636C86.249 47.5493 86.0705 47.59 85.8948 47.59ZM44.7782 46.0189C44.7066 46.0189 44.6342 46.0121 44.5613 45.9982C43.8394 45.8594 43.1098 45.7495 42.3927 45.6714C41.7654 45.603 41.3123 45.0391 41.3806 44.4118C41.4492 43.7845 42.0134 43.3323 42.6402 43.3997C43.4187 43.4847 44.2101 43.6038 44.9923 43.7541C45.612 43.8732 46.0179 44.4721 45.8988 45.0919C45.7939 45.6387 45.3152 46.0189 44.7782 46.0189ZM35.6963 45.9794C35.1789 45.9794 34.7102 45.6259 34.5857 45.1005C34.4399 44.4865 34.8195 43.8707 35.4335 43.7249C36.1944 43.5441 37.0059 43.4127 37.8457 43.3341C38.4709 43.2736 39.031 43.7368 39.0897 44.3652C39.1487 44.9934 38.6871 45.5505 38.0587 45.6092C37.3247 45.678 36.6188 45.792 35.9611 45.9481C35.8725 45.9696 35.7836 45.9794 35.6963 45.9794ZM75.6223 44.8019C75.2896 44.8019 74.9598 44.6572 74.7338 44.3787C74.1285 43.6314 73.6993 42.8508 73.4585 42.0583L73.4379 41.9888C73.2601 41.3835 73.6066 40.7485 74.2121 40.5704C74.8177 40.3927 75.4527 40.7396 75.6303 41.3447L75.6451 41.3942C75.7996 41.9029 76.0903 42.4228 76.5092 42.9399C76.9063 43.4303 76.8309 44.1497 76.3407 44.5471C76.1291 44.7185 75.8748 44.8019 75.6223 44.8019ZM89.7327 42.1653C89.636 42.1653 89.5375 42.1529 89.4397 42.1269C88.8296 41.9653 88.466 41.3401 88.6273 40.73C88.7971 40.0883 88.9304 39.3849 89.0231 38.6393C89.1013 38.0131 89.6746 37.5698 90.298 37.6466C90.9244 37.7245 91.3689 38.2953 91.2909 38.9217C91.1854 39.769 91.0325 40.5741 90.8366 41.315C90.7009 41.8266 90.2386 42.1653 89.7327 42.1653ZM81.9579 41.7996C81.3603 41.7996 80.8578 41.3351 80.819 40.7304C80.7735 40.0236 80.6348 39.4176 80.4067 38.9292C80.14 38.3575 80.3871 37.6774 80.959 37.4108C81.5306 37.1441 82.2109 37.3911 82.4778 37.9631C82.8262 38.7103 83.0356 39.5922 83.0993 40.5839C83.14 41.2137 82.6622 41.7569 82.0326 41.7976C82.0075 41.7989 81.9826 41.7996 81.9579 41.7996ZM75.6787 38.6438C75.3641 38.6438 75.0512 38.5147 74.8255 38.2615C74.4054 37.7903 74.447 37.0682 74.918 36.6482C75.6513 35.9947 76.5412 35.555 77.4913 35.3767C78.1122 35.2602 78.7084 35.6688 78.8249 36.289C78.9415 36.9092 78.5331 37.5063 77.9127 37.6226C77.3789 37.7227 76.8554 37.9825 76.4388 38.3541C76.2208 38.5483 75.9491 38.6438 75.6787 38.6438ZM90.3798 35.4899C89.8808 35.4899 89.596 35.2611 89.424 34.9579C89.2663 34.7721 89.1664 34.5342 89.1543 34.2719C89.1484 34.146 89.1417 34.0189 89.1342 33.8905C89.1335 33.8802 89.1328 33.8699 89.1324 33.8596C89.1223 33.6812 89.1187 33.5637 89.1187 33.4926C89.1187 32.7036 89.711 32.2781 90.2681 32.2781C91.2955 32.2781 91.4219 33.2881 91.4694 33.6681C91.4907 33.8377 91.5261 34.1473 91.5261 34.3178C91.5263 35.0516 90.9436 35.4899 90.3798 35.4899Z" fill="#BBBBBB"/>
<path d="M94.7168 11.3115L94.31 14.1565L93.5948 19.1633L92.6602 25.708C92.6602 25.708 92.6602 28.793 89.5752 28.793C86.4902 28.793 86.4902 25.708 86.4902 25.708L85.5556 19.1633L84.8404 14.1565L84.4336 11.3115C84.4336 11.3115 84.4336 6.16992 89.5752 6.16992C94.7168 6.16992 94.7168 11.3115 94.7168 11.3115Z" stroke="#BBBBBB" stroke-width="2" stroke-miterlimit="10" stroke-linecap="round" stroke-linejoin="round"/>
<path d="M85.5557 19.1632C83.9972 20.4018 80.6311 22.6229 76.5224 22.6229C70.8267 22.6229 69.4023 16.9283 69.4023 16.9283C69.4023 16.9283 70.8267 11.2314 76.5224 11.2314C80.085 11.2314 83.09 12.9019 84.8404 14.1564L85.5557 19.1632ZM109.746 16.9283C109.746 16.9283 108.323 22.6229 102.628 22.6229C98.5196 22.6229 95.1535 20.4018 93.5951 19.1632L94.3103 14.1564C96.0607 12.9019 99.066 11.2314 102.628 11.2314C108.323 11.2314 109.746 16.9283 109.746 16.9283Z" stroke="#BBBBBB" stroke-width="2" stroke-miterlimit="10" stroke-linecap="round" stroke-linejoin="round"/>
<path d="M91.6318 6.50858L92.6602 4.11328" stroke="#BBBBBB" stroke-width="2" stroke-miterlimit="10" stroke-linecap="round" stroke-linejoin="round"/>
<path d="M87.5186 6.50858L86.4902 4.11328" stroke="#BBBBBB" stroke-width="2" stroke-miterlimit="10" stroke-linecap="round" stroke-linejoin="round"/>
<path d="M92.8915 24.0923H86.3447" stroke="#BBBBBB" stroke-width="2" stroke-miterlimit="10" stroke-linecap="round" stroke-linejoin="round"/>
<path d="M93.4575 20.1255H85.7881" stroke="#BBBBBB" stroke-width="2" stroke-miterlimit="10" stroke-linecap="round" stroke-linejoin="round"/>
</svg>
