<svg width="24" height="24" viewBox="0 0 24 24" fill="none" xmlns="http://www.w3.org/2000/svg">
<g clip-path="url(#clip0_59_2909)">
<path d="M19.364 4.63587C19.739 5.01092 19.9496 5.51954 19.9496 6.04987C19.9496 6.58019 19.739 7.08881 19.364 7.46387C19.7923 8.66 19.887 9.95014 19.6379 11.196C19.3888 12.4418 18.8053 13.5964 17.95 14.5359L15.828 16.6559C15.4416 17.1488 15.1763 17.7255 15.0535 18.3397C14.9307 18.9538 14.9538 19.5883 15.121 20.1919L3.80801 8.87987C4.41146 9.04692 5.04569 9.06998 5.65968 8.94718C6.27366 8.82438 6.85024 8.55916 7.34301 8.17287L9.46401 6.04987C10.4035 5.19458 11.5581 4.61111 12.8039 4.36202C14.0497 4.11292 15.3399 4.20759 16.536 4.63587C16.9111 4.26092 17.4197 4.05029 17.95 4.05029C18.4803 4.05029 18.989 4.26092 19.364 4.63587Z" stroke="#111827" stroke-width="1.5" stroke-linecap="round" stroke-linejoin="round"/>
<path d="M7.34302 12.4141L6.63602 13.1211C6.07336 13.6837 5.75726 14.4468 5.75726 15.2426C5.75726 16.0383 6.07336 16.8014 6.63602 17.3641C7.19867 17.9267 7.9618 18.2428 8.75752 18.2428C9.55323 18.2428 10.3164 17.9267 10.879 17.3641L11.586 16.6571" stroke="#111827" stroke-width="1.5" stroke-linecap="round" stroke-linejoin="round"/>
</g>
<defs>
<clipPath id="clip0_59_2909">
<rect width="24" height="24" fill="white"/>
</clipPath>
</defs>
</svg>
