<svg width="11" height="11" viewBox="0 0 11 11" fill="none" xmlns="http://www.w3.org/2000/svg">
<path d="M11 10.3016V4.36508C11 4.25665 10.9752 4.14972 10.9274 4.05274C10.8797 3.95576 10.8104 3.8714 10.725 3.80635L5.9125 0.139682C5.7935 0.049013 5.64875 0 5.5 0C5.35125 0 5.2065 0.049013 5.0875 0.139682L0.275 3.80635C0.189615 3.8714 0.120313 3.95576 0.0725812 4.05274C0.0248497 4.14972 0 4.25665 0 4.36508V10.3016C0 10.4868 0.072433 10.6645 0.201364 10.7954C0.330295 10.9264 0.505164 11 0.6875 11H3.4375C3.61984 11 3.7947 10.9264 3.92364 10.7954C4.05257 10.6645 4.125 10.4868 4.125 10.3016V8.20635C4.125 8.02112 4.19743 7.84347 4.32636 7.7125C4.4553 7.58152 4.63016 7.50794 4.8125 7.50794H6.1875C6.36984 7.50794 6.5447 7.58152 6.67364 7.7125C6.80257 7.84347 6.875 8.02112 6.875 8.20635V10.3016C6.875 10.4868 6.94743 10.6645 7.07636 10.7954C7.2053 10.9264 7.38016 11 7.5625 11H10.3125C10.4948 11 10.6697 10.9264 10.7986 10.7954C10.9276 10.6645 11 10.4868 11 10.3016Z" fill="#0E475C"/>
</svg>
