<svg width="13" height="12" viewBox="0 0 13 12" fill="none" xmlns="http://www.w3.org/2000/svg">
<path d="M13 7.24926V10.1053C13 10.6078 12.7946 11.0897 12.4289 11.445C12.0632 11.8004 11.5672 12 11.05 12H1.95C1.43283 12 0.936838 11.8004 0.571142 11.445C0.205446 11.0897 0 10.6078 0 10.1053V7.24926L0.35945 7.42421C2.26455 8.35656 4.36802 8.8421 6.50113 8.84188C8.63424 8.84166 10.7376 8.35569 12.6425 7.42295L13 7.24926ZM7.8 0C8.31717 0 8.81316 0.199624 9.17886 0.554956C9.54455 0.910288 9.75 1.39222 9.75 1.89474V2.52632H11.05C11.5672 2.52632 12.0632 2.72594 12.4289 3.08127C12.7946 3.4366 13 3.91854 13 4.42105V5.83705L12.0594 6.29432C10.3766 7.11859 8.52196 7.55773 6.63752 7.57809C4.75308 7.59845 2.88883 7.1995 1.18755 6.41179L0.767 6.20968L0 5.83705V4.42105C0 3.91854 0.205446 3.4366 0.571142 3.08127C0.936838 2.72594 1.43283 2.52632 1.95 2.52632H3.25V1.89474C3.25 1.39222 3.45545 0.910288 3.82114 0.554956C4.18684 0.199624 4.68283 0 5.2 0H7.8ZM6.5 5.05263C6.32761 5.05263 6.16228 5.11917 6.04038 5.23762C5.91848 5.35606 5.85 5.51671 5.85 5.68421C5.84957 5.76715 5.86596 5.84936 5.89823 5.92615C5.93051 6.00293 5.97803 6.07279 6.03808 6.13173C6.09814 6.19067 6.16955 6.23754 6.24825 6.26966C6.32695 6.30179 6.41139 6.31853 6.49675 6.31895C6.58211 6.31936 6.66672 6.30344 6.74574 6.27208C6.82477 6.24072 6.89666 6.19455 6.95732 6.13619C7.01798 6.07784 7.06622 6.00845 7.09928 5.93198C7.13234 5.85551 7.14957 5.77347 7.15 5.69053C7.15 5.33558 6.8588 5.05263 6.5 5.05263ZM7.8 1.26316H5.2C5.02761 1.26316 4.86228 1.3297 4.74038 1.44814C4.61848 1.56659 4.55 1.72723 4.55 1.89474V2.52632H8.45V1.89474C8.45 1.72723 8.38152 1.56659 8.25962 1.44814C8.13772 1.3297 7.97239 1.26316 7.8 1.26316Z" fill="#0D475C"/>
</svg>
