<svg width="24" height="24" viewBox="0 0 24 24" fill="none" xmlns="http://www.w3.org/2000/svg">
<path d="M5.38693 5.89495L7.09179 6.39843C8.18932 6.72256 9.33454 6.06137 9.6026 4.94881L10.0195 3.21855C10.6567 3.07549 11.3194 3 11.9997 3C12.6801 3 13.3428 3.07549 13.98 3.21855L14.3969 4.94881C14.6649 6.06137 15.8101 6.72256 16.9077 6.39843L18.6125 5.89495C19.5083 6.86469 20.1933 8.03187 20.5952 9.32386L19.3048 10.5504C18.4753 11.3388 18.4753 12.6612 19.3048 13.4496L20.5952 14.6761C20.1933 15.9681 19.5083 17.1353 18.6125 18.1051L16.9077 17.6016C15.8101 17.2774 14.6649 17.9386 14.3969 19.0512L13.98 20.7814C13.3428 20.9245 12.6801 21 11.9997 21C11.3194 21 10.6567 20.9245 10.0195 20.7814L9.6026 19.0512C9.33454 17.9386 8.18932 17.2774 7.09179 17.6016L5.38693 18.1051C4.49121 17.1353 3.80612 15.9681 3.4043 14.6761L4.69466 13.4496C5.52413 12.6612 5.52413 11.3388 4.69466 10.5504L3.4043 9.32386C3.80612 8.03187 4.49121 6.86469 5.38693 5.89495Z" stroke="#B7B7B7" stroke-width="1.3" stroke-linejoin="round"/>
<path d="M14.9997 12C14.9997 13.6569 13.6566 15 11.9997 15C10.3429 15 8.99973 13.6569 8.99973 12C8.99973 10.3431 10.3429 9 11.9997 9C13.6566 9 14.9997 10.3431 14.9997 12Z" stroke="#B7B7B7" stroke-width="1.3" stroke-linejoin="round"/>
</svg>
