<svg width="70" height="70" viewBox="0 0 70 70" fill="none" xmlns="http://www.w3.org/2000/svg">
<path d="M0 35C0 15.67 15.67 0 35 0C54.33 0 70 15.67 70 35C70 54.33 54.33 70 35 70C15.67 70 0 54.33 0 35Z" fill="#DCFAE6"/>
<path d="M28.4378 34.9998L32.8128 39.3748L41.5628 30.6248M49.5837 34.9998C49.5837 43.054 43.0545 49.5832 35.0003 49.5832C26.9462 49.5832 20.417 43.054 20.417 34.9998C20.417 26.9457 26.9462 20.4165 35.0003 20.4165C43.0545 20.4165 49.5837 26.9457 49.5837 34.9998Z" stroke="#079455" stroke-width="2.91667" stroke-linecap="round" stroke-linejoin="round"/>
</svg>
