<svg width="375" height="101" viewBox="0 0 375 101" fill="none" xmlns="http://www.w3.org/2000/svg">
<rect width="375" height="100" fill="#D9D9D9"/>
<rect width="375" height="100" fill="#0D475C"/>
<path d="M65.508 23.668H68.268V25H63.828V16.624H65.508V23.668ZM70.1878 17.56C69.8918 17.56 69.6438 17.468 69.4438 17.284C69.2518 17.092 69.1558 16.856 69.1558 16.576C69.1558 16.296 69.2518 16.064 69.4438 15.88C69.6438 15.688 69.8918 15.592 70.1878 15.592C70.4838 15.592 70.7278 15.688 70.9198 15.88C71.1198 16.064 71.2198 16.296 71.2198 16.576C71.2198 16.856 71.1198 17.092 70.9198 17.284C70.7278 17.468 70.4838 17.56 70.1878 17.56ZM71.0158 18.352V25H69.3358V18.352H71.0158ZM75.2197 25.108C74.6757 25.108 74.1877 25.012 73.7557 24.82C73.3237 24.62 72.9797 24.352 72.7237 24.016C72.4757 23.68 72.3397 23.308 72.3157 22.9H74.0077C74.0397 23.156 74.1637 23.368 74.3797 23.536C74.6037 23.704 74.8797 23.788 75.2077 23.788C75.5277 23.788 75.7757 23.724 75.9517 23.596C76.1357 23.468 76.2277 23.304 76.2277 23.104C76.2277 22.888 76.1157 22.728 75.8917 22.624C75.6757 22.512 75.3277 22.392 74.8477 22.264C74.3517 22.144 73.9437 22.02 73.6237 21.892C73.3117 21.764 73.0397 21.568 72.8077 21.304C72.5837 21.04 72.4717 20.684 72.4717 20.236C72.4717 19.868 72.5757 19.532 72.7837 19.228C72.9997 18.924 73.3037 18.684 73.6957 18.508C74.0957 18.332 74.5637 18.244 75.0997 18.244C75.8917 18.244 76.5237 18.444 76.9957 18.844C77.4677 19.236 77.7277 19.768 77.7757 20.44H76.1677C76.1437 20.176 76.0317 19.968 75.8317 19.816C75.6397 19.656 75.3797 19.576 75.0517 19.576C74.7477 19.576 74.5117 19.632 74.3437 19.744C74.1837 19.856 74.1037 20.012 74.1037 20.212C74.1037 20.436 74.2157 20.608 74.4397 20.728C74.6637 20.84 75.0117 20.956 75.4837 21.076C75.9637 21.196 76.3597 21.32 76.6717 21.448C76.9837 21.576 77.2517 21.776 77.4757 22.048C77.7077 22.312 77.8277 22.664 77.8357 23.104C77.8357 23.488 77.7277 23.832 77.5117 24.136C77.3037 24.44 76.9997 24.68 76.5997 24.856C76.2077 25.024 75.7477 25.108 75.2197 25.108ZM81.1707 19.732V22.948C81.1707 23.172 81.2227 23.336 81.3267 23.44C81.4387 23.536 81.6227 23.584 81.8787 23.584H82.6587V25H81.6027C80.1867 25 79.4787 24.312 79.4787 22.936V19.732H78.6867V18.352H79.4787V16.708H81.1707V18.352H82.6587V19.732H81.1707ZM85.7031 23.236L84.2991 26.608H83.2191L83.9991 23.236H85.7031ZM98.9053 16.624V25H97.2253V19.552L94.9813 25H93.7093L91.4533 19.552V25H89.7733V16.624H91.6813L94.3453 22.852L97.0093 16.624H98.9053ZM100.134 21.652C100.134 20.98 100.266 20.384 100.53 19.864C100.802 19.344 101.166 18.944 101.622 18.664C102.086 18.384 102.602 18.244 103.17 18.244C103.666 18.244 104.098 18.344 104.466 18.544C104.842 18.744 105.142 18.996 105.366 19.3V18.352H107.058V25H105.366V24.028C105.15 24.34 104.85 24.6 104.466 24.808C104.09 25.008 103.654 25.108 103.158 25.108C102.598 25.108 102.086 24.964 101.622 24.676C101.166 24.388 100.802 23.984 100.53 23.464C100.266 22.936 100.134 22.332 100.134 21.652ZM105.366 21.676C105.366 21.268 105.286 20.92 105.126 20.632C104.966 20.336 104.75 20.112 104.478 19.96C104.206 19.8 103.914 19.72 103.602 19.72C103.29 19.72 103.002 19.796 102.738 19.948C102.474 20.1 102.258 20.324 102.09 20.62C101.93 20.908 101.85 21.252 101.85 21.652C101.85 22.052 101.93 22.404 102.09 22.708C102.258 23.004 102.474 23.232 102.738 23.392C103.01 23.552 103.298 23.632 103.602 23.632C103.914 23.632 104.206 23.556 104.478 23.404C104.75 23.244 104.966 23.02 105.126 22.732C105.286 22.436 105.366 22.084 105.366 21.676ZM112.383 18.256C113.175 18.256 113.815 18.508 114.303 19.012C114.791 19.508 115.035 20.204 115.035 21.1V25H113.355V21.328C113.355 20.8 113.223 20.396 112.959 20.116C112.695 19.828 112.335 19.684 111.879 19.684C111.415 19.684 111.047 19.828 110.775 20.116C110.511 20.396 110.379 20.8 110.379 21.328V25H108.699V18.352H110.379V19.18C110.603 18.892 110.887 18.668 111.231 18.508C111.583 18.34 111.967 18.256 112.383 18.256ZM116.201 21.652C116.201 20.98 116.333 20.384 116.597 19.864C116.869 19.344 117.233 18.944 117.689 18.664C118.153 18.384 118.669 18.244 119.237 18.244C119.733 18.244 120.165 18.344 120.533 18.544C120.909 18.744 121.209 18.996 121.433 19.3V18.352H123.125V25H121.433V24.028C121.217 24.34 120.917 24.6 120.533 24.808C120.157 25.008 119.721 25.108 119.225 25.108C118.665 25.108 118.153 24.964 117.689 24.676C117.233 24.388 116.869 23.984 116.597 23.464C116.333 22.936 116.201 22.332 116.201 21.652ZM121.433 21.676C121.433 21.268 121.353 20.92 121.193 20.632C121.033 20.336 120.817 20.112 120.545 19.96C120.273 19.8 119.981 19.72 119.669 19.72C119.357 19.72 119.069 19.796 118.805 19.948C118.541 20.1 118.325 20.324 118.157 20.62C117.997 20.908 117.917 21.252 117.917 21.652C117.917 22.052 117.997 22.404 118.157 22.708C118.325 23.004 118.541 23.232 118.805 23.392C119.077 23.552 119.365 23.632 119.669 23.632C119.981 23.632 120.273 23.556 120.545 23.404C120.817 23.244 121.033 23.02 121.193 22.732C121.353 22.436 121.433 22.084 121.433 21.676ZM127.37 18.244C127.866 18.244 128.302 18.344 128.678 18.544C129.054 18.736 129.35 18.988 129.566 19.3V18.352H131.258V25.048C131.258 25.664 131.134 26.212 130.886 26.692C130.638 27.18 130.266 27.564 129.77 27.844C129.274 28.132 128.674 28.276 127.97 28.276C127.026 28.276 126.25 28.056 125.642 27.616C125.042 27.176 124.702 26.576 124.622 25.816H126.29C126.378 26.12 126.566 26.36 126.854 26.536C127.15 26.72 127.506 26.812 127.922 26.812C128.41 26.812 128.806 26.664 129.11 26.368C129.414 26.08 129.566 25.64 129.566 25.048V24.016C129.35 24.328 129.05 24.588 128.666 24.796C128.29 25.004 127.858 25.108 127.37 25.108C126.81 25.108 126.298 24.964 125.834 24.676C125.37 24.388 125.002 23.984 124.729 23.464C124.465 22.936 124.333 22.332 124.333 21.652C124.333 20.98 124.465 20.384 124.729 19.864C125.002 19.344 125.366 18.944 125.822 18.664C126.286 18.384 126.802 18.244 127.37 18.244ZM129.566 21.676C129.566 21.268 129.486 20.92 129.326 20.632C129.166 20.336 128.95 20.112 128.678 19.96C128.406 19.8 128.114 19.72 127.802 19.72C127.49 19.72 127.202 19.796 126.938 19.948C126.674 20.1 126.458 20.324 126.29 20.62C126.13 20.908 126.05 21.252 126.05 21.652C126.05 22.052 126.13 22.404 126.29 22.708C126.458 23.004 126.674 23.232 126.938 23.392C127.21 23.552 127.498 23.632 127.802 23.632C128.114 23.632 128.406 23.556 128.678 23.404C128.95 23.244 129.166 23.02 129.326 22.732C129.486 22.436 129.566 22.084 129.566 21.676ZM139.078 21.532C139.078 21.772 139.062 21.988 139.03 22.18H134.17C134.21 22.66 134.378 23.036 134.674 23.308C134.97 23.58 135.334 23.716 135.766 23.716C136.39 23.716 136.834 23.448 137.098 22.912H138.91C138.718 23.552 138.35 24.08 137.806 24.496C137.262 24.904 136.594 25.108 135.802 25.108C135.162 25.108 134.586 24.968 134.074 24.688C133.57 24.4 133.174 23.996 132.886 23.476C132.606 22.956 132.466 22.356 132.466 21.676C132.466 20.988 132.606 20.384 132.886 19.864C133.166 19.344 133.558 18.944 134.062 18.664C134.566 18.384 135.146 18.244 135.802 18.244C136.434 18.244 136.998 18.38 137.494 18.652C137.998 18.924 138.386 19.312 138.658 19.816C138.938 20.312 139.078 20.884 139.078 21.532ZM137.338 21.052C137.33 20.62 137.174 20.276 136.87 20.02C136.566 19.756 136.194 19.624 135.754 19.624C135.338 19.624 134.986 19.752 134.698 20.008C134.418 20.256 134.246 20.604 134.182 21.052H137.338ZM149.608 25L148.696 24.1C147.92 24.796 146.972 25.144 145.852 25.144C145.236 25.144 144.692 25.04 144.22 24.832C143.756 24.616 143.396 24.316 143.14 23.932C142.884 23.54 142.756 23.088 142.756 22.576C142.756 22.024 142.912 21.528 143.224 21.088C143.536 20.648 143.996 20.292 144.604 20.02C144.388 19.756 144.232 19.504 144.136 19.264C144.04 19.016 143.992 18.752 143.992 18.472C143.992 18.088 144.092 17.744 144.292 17.44C144.492 17.128 144.776 16.884 145.144 16.708C145.52 16.532 145.956 16.444 146.452 16.444C146.956 16.444 147.388 16.54 147.748 16.732C148.108 16.924 148.376 17.18 148.552 17.5C148.728 17.82 148.804 18.176 148.78 18.568H147.148C147.156 18.304 147.092 18.104 146.956 17.968C146.82 17.824 146.636 17.752 146.404 17.752C146.18 17.752 145.992 17.82 145.84 17.956C145.696 18.084 145.624 18.252 145.624 18.46C145.624 18.66 145.684 18.86 145.804 19.06C145.924 19.252 146.12 19.492 146.392 19.78L148.504 21.868C148.52 21.852 148.532 21.836 148.54 21.82C148.548 21.804 148.556 21.788 148.564 21.772L149.248 20.632H151L150.16 22.108C150 22.42 149.828 22.716 149.644 22.996L151.672 25H149.608ZM145.9 23.752C146.556 23.752 147.136 23.52 147.64 23.056L145.576 21.016C144.8 21.36 144.412 21.848 144.412 22.48C144.412 22.84 144.548 23.144 144.82 23.392C145.092 23.632 145.452 23.752 145.9 23.752ZM154.955 20.8C154.955 19.976 155.139 19.24 155.507 18.592C155.883 17.936 156.391 17.428 157.031 17.068C157.679 16.7 158.403 16.516 159.203 16.516C160.139 16.516 160.959 16.756 161.663 17.236C162.367 17.716 162.859 18.38 163.139 19.228H161.207C161.015 18.828 160.743 18.528 160.391 18.328C160.047 18.128 159.647 18.028 159.191 18.028C158.703 18.028 158.267 18.144 157.883 18.376C157.507 18.6 157.211 18.92 156.995 19.336C156.787 19.752 156.683 20.24 156.683 20.8C156.683 21.352 156.787 21.84 156.995 22.264C157.211 22.68 157.507 23.004 157.883 23.236C158.267 23.46 158.703 23.572 159.191 23.572C159.647 23.572 160.047 23.472 160.391 23.272C160.743 23.064 161.015 22.76 161.207 22.36H163.139C162.859 23.216 162.367 23.884 161.663 24.364C160.967 24.836 160.147 25.072 159.203 25.072C158.403 25.072 157.679 24.892 157.031 24.532C156.391 24.164 155.883 23.656 155.507 23.008C155.139 22.36 154.955 21.624 154.955 20.8ZM167.526 25.108C166.886 25.108 166.31 24.968 165.798 24.688C165.286 24.4 164.882 23.996 164.586 23.476C164.298 22.956 164.154 22.356 164.154 21.676C164.154 20.996 164.302 20.396 164.598 19.876C164.902 19.356 165.314 18.956 165.834 18.676C166.354 18.388 166.934 18.244 167.574 18.244C168.214 18.244 168.794 18.388 169.314 18.676C169.834 18.956 170.242 19.356 170.538 19.876C170.842 20.396 170.994 20.996 170.994 21.676C170.994 22.356 170.838 22.956 170.526 23.476C170.222 23.996 169.806 24.4 169.278 24.688C168.758 24.968 168.174 25.108 167.526 25.108ZM167.526 23.644C167.83 23.644 168.114 23.572 168.378 23.428C168.65 23.276 168.866 23.052 169.026 22.756C169.186 22.46 169.266 22.1 169.266 21.676C169.266 21.044 169.098 20.56 168.762 20.224C168.434 19.88 168.03 19.708 167.55 19.708C167.07 19.708 166.666 19.88 166.338 20.224C166.018 20.56 165.858 21.044 165.858 21.676C165.858 22.308 166.014 22.796 166.326 23.14C166.646 23.476 167.046 23.644 167.526 23.644ZM175.91 18.256C176.702 18.256 177.342 18.508 177.83 19.012C178.318 19.508 178.562 20.204 178.562 21.1V25H176.882V21.328C176.882 20.8 176.75 20.396 176.486 20.116C176.222 19.828 175.862 19.684 175.406 19.684C174.942 19.684 174.574 19.828 174.302 20.116C174.038 20.396 173.906 20.8 173.906 21.328V25H172.226V18.352H173.906V19.18C174.13 18.892 174.414 18.668 174.758 18.508C175.11 18.34 175.494 18.256 175.91 18.256ZM183.844 18.256C184.636 18.256 185.276 18.508 185.764 19.012C186.252 19.508 186.496 20.204 186.496 21.1V25H184.816V21.328C184.816 20.8 184.684 20.396 184.42 20.116C184.156 19.828 183.796 19.684 183.34 19.684C182.876 19.684 182.508 19.828 182.236 20.116C181.972 20.396 181.84 20.8 181.84 21.328V25H180.16V18.352H181.84V19.18C182.064 18.892 182.348 18.668 182.692 18.508C183.044 18.34 183.428 18.256 183.844 18.256ZM194.274 21.532C194.274 21.772 194.258 21.988 194.226 22.18H189.366C189.406 22.66 189.574 23.036 189.87 23.308C190.166 23.58 190.53 23.716 190.962 23.716C191.586 23.716 192.03 23.448 192.294 22.912H194.106C193.914 23.552 193.546 24.08 193.002 24.496C192.458 24.904 191.79 25.108 190.998 25.108C190.358 25.108 189.782 24.968 189.27 24.688C188.766 24.4 188.37 23.996 188.082 23.476C187.802 22.956 187.662 22.356 187.662 21.676C187.662 20.988 187.802 20.384 188.082 19.864C188.362 19.344 188.754 18.944 189.258 18.664C189.762 18.384 190.342 18.244 190.998 18.244C191.63 18.244 192.194 18.38 192.69 18.652C193.194 18.924 193.582 19.312 193.854 19.816C194.134 20.312 194.274 20.884 194.274 21.532ZM192.534 21.052C192.526 20.62 192.37 20.276 192.066 20.02C191.762 19.756 191.39 19.624 190.95 19.624C190.534 19.624 190.182 19.752 189.894 20.008C189.614 20.256 189.442 20.604 189.378 21.052H192.534ZM195.068 21.676C195.068 20.988 195.208 20.388 195.488 19.876C195.768 19.356 196.156 18.956 196.652 18.676C197.148 18.388 197.716 18.244 198.356 18.244C199.18 18.244 199.86 18.452 200.396 18.868C200.94 19.276 201.304 19.852 201.488 20.596H199.676C199.58 20.308 199.416 20.084 199.184 19.924C198.96 19.756 198.68 19.672 198.344 19.672C197.864 19.672 197.484 19.848 197.204 20.2C196.924 20.544 196.784 21.036 196.784 21.676C196.784 22.308 196.924 22.8 197.204 23.152C197.484 23.496 197.864 23.668 198.344 23.668C199.024 23.668 199.468 23.364 199.676 22.756H201.488C201.304 23.476 200.94 24.048 200.396 24.472C199.852 24.896 199.172 25.108 198.356 25.108C197.716 25.108 197.148 24.968 196.652 24.688C196.156 24.4 195.768 24 195.488 23.488C195.208 22.968 195.068 22.364 195.068 21.676ZM204.675 19.732V22.948C204.675 23.172 204.727 23.336 204.831 23.44C204.943 23.536 205.127 23.584 205.383 23.584H206.163V25H205.107C203.691 25 202.983 24.312 202.983 22.936V19.732H202.191V18.352H202.983V16.708H204.675V18.352H206.163V19.732H204.675ZM219.578 20.008V21.424H210.35V20.008H219.578ZM229.347 23.404H226.011L225.459 25H223.695L226.707 16.612H228.663L231.675 25H229.899L229.347 23.404ZM228.891 22.06L227.679 18.556L226.467 22.06H228.891ZM234.481 16.12V25H232.801V16.12H234.481ZM237.821 16.12V25H236.141V16.12H237.821ZM243.192 17.56C242.896 17.56 242.648 17.468 242.448 17.284C242.256 17.092 242.16 16.856 242.16 16.576C242.16 16.296 242.256 16.064 242.448 15.88C242.648 15.688 242.896 15.592 243.192 15.592C243.488 15.592 243.732 15.688 243.924 15.88C244.124 16.064 244.224 16.296 244.224 16.576C244.224 16.856 244.124 17.092 243.924 17.284C243.732 17.468 243.488 17.56 243.192 17.56ZM244.02 18.352V25H242.34V18.352H244.02ZM249.364 18.256C250.156 18.256 250.796 18.508 251.284 19.012C251.772 19.508 252.016 20.204 252.016 21.1V25H250.336V21.328C250.336 20.8 250.204 20.396 249.94 20.116C249.676 19.828 249.316 19.684 248.86 19.684C248.396 19.684 248.028 19.828 247.756 20.116C247.492 20.396 247.36 20.8 247.36 21.328V25H245.68V18.352H247.36V19.18C247.584 18.892 247.868 18.668 248.212 18.508C248.564 18.34 248.948 18.256 249.364 18.256ZM260.361 25.084C259.577 25.084 258.857 24.9 258.201 24.532C257.545 24.164 257.025 23.656 256.641 23.008C256.257 22.352 256.065 21.612 256.065 20.788C256.065 19.972 256.257 19.24 256.641 18.592C257.025 17.936 257.545 17.424 258.201 17.056C258.857 16.688 259.577 16.504 260.361 16.504C261.153 16.504 261.873 16.688 262.521 17.056C263.177 17.424 263.693 17.936 264.069 18.592C264.453 19.24 264.645 19.972 264.645 20.788C264.645 21.612 264.453 22.352 264.069 23.008C263.693 23.656 263.177 24.164 262.521 24.532C261.865 24.9 261.145 25.084 260.361 25.084ZM260.361 23.584C260.865 23.584 261.309 23.472 261.693 23.248C262.077 23.016 262.377 22.688 262.593 22.264C262.809 21.84 262.917 21.348 262.917 20.788C262.917 20.228 262.809 19.74 262.593 19.324C262.377 18.9 262.077 18.576 261.693 18.352C261.309 18.128 260.865 18.016 260.361 18.016C259.857 18.016 259.409 18.128 259.017 18.352C258.633 18.576 258.333 18.9 258.117 19.324C257.901 19.74 257.793 20.228 257.793 20.788C257.793 21.348 257.901 21.84 258.117 22.264C258.333 22.688 258.633 23.016 259.017 23.248C259.409 23.472 259.857 23.584 260.361 23.584ZM269.578 18.256C270.37 18.256 271.01 18.508 271.498 19.012C271.986 19.508 272.23 20.204 272.23 21.1V25H270.55V21.328C270.55 20.8 270.418 20.396 270.154 20.116C269.89 19.828 269.53 19.684 269.074 19.684C268.61 19.684 268.242 19.828 267.97 20.116C267.706 20.396 267.574 20.8 267.574 21.328V25H265.894V18.352H267.574V19.18C267.798 18.892 268.082 18.668 268.426 18.508C268.778 18.34 269.162 18.256 269.578 18.256ZM280.008 21.532C280.008 21.772 279.992 21.988 279.96 22.18H275.1C275.14 22.66 275.308 23.036 275.604 23.308C275.9 23.58 276.264 23.716 276.696 23.716C277.32 23.716 277.764 23.448 278.028 22.912H279.84C279.648 23.552 279.28 24.08 278.736 24.496C278.192 24.904 277.524 25.108 276.732 25.108C276.092 25.108 275.516 24.968 275.004 24.688C274.5 24.4 274.104 23.996 273.816 23.476C273.536 22.956 273.396 22.356 273.396 21.676C273.396 20.988 273.536 20.384 273.816 19.864C274.096 19.344 274.488 18.944 274.992 18.664C275.496 18.384 276.076 18.244 276.732 18.244C277.364 18.244 277.928 18.38 278.424 18.652C278.928 18.924 279.316 19.312 279.588 19.816C279.868 20.312 280.008 20.884 280.008 21.532ZM278.268 21.052C278.26 20.62 278.104 20.276 277.8 20.02C277.496 19.756 277.124 19.624 276.684 19.624C276.268 19.624 275.916 19.752 275.628 20.008C275.348 20.256 275.176 20.604 275.112 21.052H278.268ZM290.202 19.216C290.202 19.664 290.094 20.084 289.878 20.476C289.67 20.868 289.338 21.184 288.882 21.424C288.434 21.664 287.866 21.784 287.178 21.784H285.774V25H284.094V16.624H287.178C287.826 16.624 288.378 16.736 288.834 16.96C289.29 17.184 289.63 17.492 289.854 17.884C290.086 18.276 290.202 18.72 290.202 19.216ZM287.106 20.428C287.57 20.428 287.914 20.324 288.138 20.116C288.362 19.9 288.474 19.6 288.474 19.216C288.474 18.4 288.018 17.992 287.106 17.992H285.774V20.428H287.106ZM293.074 16.12V25H291.394V16.12H293.074ZM294.302 21.652C294.302 20.98 294.434 20.384 294.698 19.864C294.97 19.344 295.334 18.944 295.79 18.664C296.254 18.384 296.77 18.244 297.338 18.244C297.834 18.244 298.266 18.344 298.634 18.544C299.01 18.744 299.31 18.996 299.534 19.3V18.352H301.226V25H299.534V24.028C299.318 24.34 299.018 24.6 298.634 24.808C298.258 25.008 297.822 25.108 297.326 25.108C296.766 25.108 296.254 24.964 295.79 24.676C295.334 24.388 294.97 23.984 294.698 23.464C294.434 22.936 294.302 22.332 294.302 21.652ZM299.534 21.676C299.534 21.268 299.454 20.92 299.294 20.632C299.134 20.336 298.918 20.112 298.646 19.96C298.374 19.8 298.082 19.72 297.77 19.72C297.458 19.72 297.17 19.796 296.906 19.948C296.642 20.1 296.426 20.324 296.258 20.62C296.098 20.908 296.018 21.252 296.018 21.652C296.018 22.052 296.098 22.404 296.258 22.708C296.426 23.004 296.642 23.232 296.906 23.392C297.178 23.552 297.466 23.632 297.77 23.632C298.082 23.632 298.374 23.556 298.646 23.404C298.918 23.244 299.134 23.02 299.294 22.732C299.454 22.436 299.534 22.084 299.534 21.676ZM302.435 21.676C302.435 20.988 302.575 20.388 302.855 19.876C303.135 19.356 303.523 18.956 304.019 18.676C304.515 18.388 305.083 18.244 305.723 18.244C306.547 18.244 307.227 18.452 307.763 18.868C308.307 19.276 308.671 19.852 308.855 20.596H307.043C306.947 20.308 306.783 20.084 306.551 19.924C306.327 19.756 306.047 19.672 305.711 19.672C305.231 19.672 304.851 19.848 304.571 20.2C304.291 20.544 304.151 21.036 304.151 21.676C304.151 22.308 304.291 22.8 304.571 23.152C304.851 23.496 305.231 23.668 305.711 23.668C306.391 23.668 306.835 23.364 307.043 22.756H308.855C308.671 23.476 308.307 24.048 307.763 24.472C307.219 24.896 306.539 25.108 305.723 25.108C305.083 25.108 304.515 24.968 304.019 24.688C303.523 24.4 303.135 24 302.855 23.488C302.575 22.968 302.435 22.364 302.435 21.676ZM316.266 21.532C316.266 21.772 316.25 21.988 316.218 22.18H311.358C311.398 22.66 311.566 23.036 311.862 23.308C312.158 23.58 312.522 23.716 312.954 23.716C313.578 23.716 314.022 23.448 314.286 22.912H316.098C315.906 23.552 315.538 24.08 314.994 24.496C314.45 24.904 313.782 25.108 312.99 25.108C312.35 25.108 311.774 24.968 311.262 24.688C310.758 24.4 310.362 23.996 310.074 23.476C309.794 22.956 309.654 22.356 309.654 21.676C309.654 20.988 309.794 20.384 310.074 19.864C310.354 19.344 310.746 18.944 311.25 18.664C311.754 18.384 312.334 18.244 312.99 18.244C313.622 18.244 314.186 18.38 314.682 18.652C315.186 18.924 315.574 19.312 315.846 19.816C316.126 20.312 316.266 20.884 316.266 21.532ZM314.526 21.052C314.518 20.62 314.362 20.276 314.058 20.02C313.754 19.756 313.382 19.624 312.942 19.624C312.526 19.624 312.174 19.752 311.886 20.008C311.606 20.256 311.434 20.604 311.37 21.052H314.526Z" fill="white"/>
<path d="M151.42 82.8C151.42 81.976 151.604 81.24 151.972 80.592C152.348 79.936 152.856 79.428 153.496 79.068C154.144 78.7 154.868 78.516 155.668 78.516C156.604 78.516 157.424 78.756 158.128 79.236C158.832 79.716 159.324 80.38 159.604 81.228H157.672C157.48 80.828 157.208 80.528 156.856 80.328C156.512 80.128 156.112 80.028 155.656 80.028C155.168 80.028 154.732 80.144 154.348 80.376C153.972 80.6 153.676 80.92 153.46 81.336C153.252 81.752 153.148 82.24 153.148 82.8C153.148 83.352 153.252 83.84 153.46 84.264C153.676 84.68 153.972 85.004 154.348 85.236C154.732 85.46 155.168 85.572 155.656 85.572C156.112 85.572 156.512 85.472 156.856 85.272C157.208 85.064 157.48 84.76 157.672 84.36H159.604C159.324 85.216 158.832 85.884 158.128 86.364C157.432 86.836 156.612 87.072 155.668 87.072C154.868 87.072 154.144 86.892 153.496 86.532C152.856 86.164 152.348 85.656 151.972 85.008C151.604 84.36 151.42 83.624 151.42 82.8ZM162.719 81.384C162.935 81.032 163.215 80.756 163.559 80.556C163.911 80.356 164.311 80.256 164.759 80.256V82.02H164.315C163.787 82.02 163.387 82.144 163.115 82.392C162.851 82.64 162.719 83.072 162.719 83.688V87H161.039V80.352H162.719V81.384ZM172.071 83.532C172.071 83.772 172.055 83.988 172.023 84.18H167.163C167.203 84.66 167.371 85.036 167.667 85.308C167.963 85.58 168.327 85.716 168.759 85.716C169.383 85.716 169.827 85.448 170.091 84.912H171.903C171.711 85.552 171.343 86.08 170.799 86.496C170.255 86.904 169.587 87.108 168.795 87.108C168.155 87.108 167.579 86.968 167.067 86.688C166.563 86.4 166.167 85.996 165.879 85.476C165.599 84.956 165.458 84.356 165.458 83.676C165.458 82.988 165.599 82.384 165.879 81.864C166.159 81.344 166.551 80.944 167.055 80.664C167.559 80.384 168.139 80.244 168.795 80.244C169.427 80.244 169.991 80.38 170.487 80.652C170.991 80.924 171.379 81.312 171.651 81.816C171.931 82.312 172.071 82.884 172.071 83.532ZM170.331 83.052C170.323 82.62 170.167 82.276 169.863 82.02C169.559 81.756 169.187 81.624 168.747 81.624C168.331 81.624 167.979 81.752 167.691 82.008C167.411 82.256 167.239 82.604 167.175 83.052H170.331ZM172.865 83.652C172.865 82.98 172.997 82.384 173.261 81.864C173.533 81.344 173.897 80.944 174.353 80.664C174.817 80.384 175.333 80.244 175.901 80.244C176.397 80.244 176.829 80.344 177.197 80.544C177.573 80.744 177.873 80.996 178.097 81.3V80.352H179.789V87H178.097V86.028C177.881 86.34 177.581 86.6 177.197 86.808C176.821 87.008 176.385 87.108 175.889 87.108C175.329 87.108 174.817 86.964 174.353 86.676C173.897 86.388 173.533 85.984 173.261 85.464C172.997 84.936 172.865 84.332 172.865 83.652ZM178.097 83.676C178.097 83.268 178.017 82.92 177.857 82.632C177.697 82.336 177.481 82.112 177.209 81.96C176.937 81.8 176.645 81.72 176.333 81.72C176.021 81.72 175.733 81.796 175.469 81.948C175.205 82.1 174.989 82.324 174.821 82.62C174.661 82.908 174.581 83.252 174.581 83.652C174.581 84.052 174.661 84.404 174.821 84.708C174.989 85.004 175.205 85.232 175.469 85.392C175.741 85.552 176.029 85.632 176.333 85.632C176.645 85.632 176.937 85.556 177.209 85.404C177.481 85.244 177.697 85.02 177.857 84.732C178.017 84.436 178.097 84.084 178.097 83.676ZM183.386 81.732V84.948C183.386 85.172 183.438 85.336 183.542 85.44C183.654 85.536 183.838 85.584 184.094 85.584H184.874V87H183.818C182.402 87 181.694 86.312 181.694 84.936V81.732H180.902V80.352H181.694V78.708H183.386V80.352H184.874V81.732H183.386ZM192.262 83.532C192.262 83.772 192.246 83.988 192.214 84.18H187.354C187.394 84.66 187.562 85.036 187.858 85.308C188.154 85.58 188.518 85.716 188.95 85.716C189.574 85.716 190.018 85.448 190.282 84.912H192.094C191.902 85.552 191.534 86.08 190.99 86.496C190.446 86.904 189.778 87.108 188.986 87.108C188.346 87.108 187.77 86.968 187.258 86.688C186.754 86.4 186.358 85.996 186.07 85.476C185.79 84.956 185.65 84.356 185.65 83.676C185.65 82.988 185.79 82.384 186.07 81.864C186.35 81.344 186.742 80.944 187.246 80.664C187.75 80.384 188.33 80.244 188.986 80.244C189.618 80.244 190.182 80.38 190.678 80.652C191.182 80.924 191.57 81.312 191.842 81.816C192.122 82.312 192.262 82.884 192.262 83.532ZM190.522 83.052C190.514 82.62 190.358 82.276 190.054 82.02C189.75 81.756 189.378 81.624 188.938 81.624C188.522 81.624 188.17 81.752 187.882 82.008C187.602 82.256 187.43 82.604 187.366 83.052H190.522ZM203.512 87H201.832L198.028 81.252V87H196.348V78.612H198.028L201.832 84.372V78.612H203.512V87ZM208.124 87.108C207.484 87.108 206.908 86.968 206.396 86.688C205.884 86.4 205.48 85.996 205.184 85.476C204.896 84.956 204.752 84.356 204.752 83.676C204.752 82.996 204.9 82.396 205.196 81.876C205.5 81.356 205.912 80.956 206.432 80.676C206.952 80.388 207.532 80.244 208.172 80.244C208.812 80.244 209.392 80.388 209.912 80.676C210.432 80.956 210.84 81.356 211.136 81.876C211.44 82.396 211.592 82.996 211.592 83.676C211.592 84.356 211.436 84.956 211.124 85.476C210.82 85.996 210.404 86.4 209.876 86.688C209.356 86.968 208.772 87.108 208.124 87.108ZM208.124 85.644C208.428 85.644 208.712 85.572 208.976 85.428C209.248 85.276 209.464 85.052 209.624 84.756C209.784 84.46 209.864 84.1 209.864 83.676C209.864 83.044 209.696 82.56 209.36 82.224C209.032 81.88 208.628 81.708 208.148 81.708C207.668 81.708 207.264 81.88 206.936 82.224C206.616 82.56 206.456 83.044 206.456 83.676C206.456 84.308 206.612 84.796 206.924 85.14C207.244 85.476 207.644 85.644 208.124 85.644ZM222.04 80.352L220.096 87H218.284L217.072 82.356L215.86 87H214.036L212.08 80.352H213.784L214.96 85.416L216.232 80.352H218.008L219.256 85.404L220.432 80.352H222.04Z" fill="white"/>
<path d="M45.976 44.248L40.312 55.168V61H36.952V55.168L31.264 44.248H35.056L38.656 51.904L42.232 44.248H45.976ZM53.8178 61.216C52.5378 61.216 51.3858 60.936 50.3618 60.376C49.3378 59.8 48.5298 58.992 47.9378 57.952C47.3618 56.912 47.0738 55.712 47.0738 54.352C47.0738 52.992 47.3698 51.792 47.9618 50.752C48.5698 49.712 49.3938 48.912 50.4338 48.352C51.4738 47.776 52.6338 47.488 53.9138 47.488C55.1938 47.488 56.3538 47.776 57.3938 48.352C58.4338 48.912 59.2498 49.712 59.8418 50.752C60.4498 51.792 60.7538 52.992 60.7538 54.352C60.7538 55.712 60.4418 56.912 59.8178 57.952C59.2098 58.992 58.3778 59.8 57.3218 60.376C56.2818 60.936 55.1138 61.216 53.8178 61.216ZM53.8178 58.288C54.4258 58.288 54.9938 58.144 55.5218 57.856C56.0658 57.552 56.4978 57.104 56.8178 56.512C57.1378 55.92 57.2978 55.2 57.2978 54.352C57.2978 53.088 56.9618 52.12 56.2898 51.448C55.6338 50.76 54.8258 50.416 53.8658 50.416C52.9058 50.416 52.0978 50.76 51.4418 51.448C50.8018 52.12 50.4818 53.088 50.4818 54.352C50.4818 55.616 50.7938 56.592 51.4178 57.28C52.0578 57.952 52.8578 58.288 53.8178 58.288ZM75.7705 47.704V61H72.3865V59.32C71.9545 59.896 71.3865 60.352 70.6825 60.688C69.9945 61.008 69.2425 61.168 68.4265 61.168C67.3865 61.168 66.4665 60.952 65.6665 60.52C64.8665 60.072 64.2345 59.424 63.7705 58.576C63.3225 57.712 63.0985 56.688 63.0985 55.504V47.704H66.4585V55.024C66.4585 56.08 66.7225 56.896 67.2505 57.472C67.7785 58.032 68.4985 58.312 69.4105 58.312C70.3385 58.312 71.0665 58.032 71.5945 57.472C72.1225 56.896 72.3865 56.08 72.3865 55.024V47.704H75.7705ZM82.4457 49.768C82.8777 49.064 83.4377 48.512 84.1257 48.112C84.8297 47.712 85.6297 47.512 86.5257 47.512V51.04H85.6377C84.5817 51.04 83.7817 51.288 83.2377 51.784C82.7097 52.28 82.4457 53.144 82.4457 54.376V61H79.0857V47.704H82.4457V49.768ZM97.8676 58.336H103.388V61H94.5076V44.248H97.8676V58.336ZM107.227 46.12C106.635 46.12 106.139 45.936 105.739 45.568C105.355 45.184 105.163 44.712 105.163 44.152C105.163 43.592 105.355 43.128 105.739 42.76C106.139 42.376 106.635 42.184 107.227 42.184C107.819 42.184 108.307 42.376 108.691 42.76C109.091 43.128 109.291 43.592 109.291 44.152C109.291 44.712 109.091 45.184 108.691 45.568C108.307 45.936 107.819 46.12 107.227 46.12ZM108.883 47.704V61H105.523V47.704H108.883ZM117.291 61.216C116.203 61.216 115.227 61.024 114.363 60.64C113.499 60.24 112.811 59.704 112.299 59.032C111.803 58.36 111.531 57.616 111.483 56.8H114.867C114.931 57.312 115.179 57.736 115.611 58.072C116.059 58.408 116.611 58.576 117.267 58.576C117.907 58.576 118.403 58.448 118.755 58.192C119.123 57.936 119.307 57.608 119.307 57.208C119.307 56.776 119.083 56.456 118.635 56.248C118.203 56.024 117.507 55.784 116.547 55.528C115.555 55.288 114.739 55.04 114.099 54.784C113.475 54.528 112.931 54.136 112.467 53.608C112.019 53.08 111.795 52.368 111.795 51.472C111.795 50.736 112.003 50.064 112.419 49.456C112.851 48.848 113.459 48.368 114.243 48.016C115.043 47.664 115.979 47.488 117.051 47.488C118.635 47.488 119.899 47.888 120.843 48.688C121.787 49.472 122.307 50.536 122.403 51.88H119.187C119.139 51.352 118.915 50.936 118.515 50.632C118.131 50.312 117.611 50.152 116.955 50.152C116.347 50.152 115.875 50.264 115.539 50.488C115.219 50.712 115.059 51.024 115.059 51.424C115.059 51.872 115.283 52.216 115.731 52.456C116.179 52.68 116.875 52.912 117.819 53.152C118.779 53.392 119.571 53.64 120.195 53.896C120.819 54.152 121.355 54.552 121.803 55.096C122.267 55.624 122.507 56.328 122.523 57.208C122.523 57.976 122.307 58.664 121.875 59.272C121.459 59.88 120.851 60.36 120.051 60.712C119.267 61.048 118.347 61.216 117.291 61.216ZM129.193 50.464V56.896C129.193 57.344 129.297 57.672 129.505 57.88C129.729 58.072 130.097 58.168 130.609 58.168H132.169V61H130.057C127.225 61 125.809 59.624 125.809 56.872V50.464H124.225V47.704H125.809V44.416H129.193V47.704H132.169V50.464H129.193ZM136.29 46.12C135.698 46.12 135.202 45.936 134.802 45.568C134.418 45.184 134.226 44.712 134.226 44.152C134.226 43.592 134.418 43.128 134.802 42.76C135.202 42.376 135.698 42.184 136.29 42.184C136.882 42.184 137.37 42.376 137.754 42.76C138.154 43.128 138.354 43.592 138.354 44.152C138.354 44.712 138.154 45.184 137.754 45.568C137.37 45.936 136.882 46.12 136.29 46.12ZM137.946 47.704V61H134.586V47.704H137.946ZM148.633 47.512C150.217 47.512 151.497 48.016 152.473 49.024C153.449 50.016 153.937 51.408 153.937 53.2V61H150.577V53.656C150.577 52.6 150.313 51.792 149.785 51.232C149.257 50.656 148.537 50.368 147.625 50.368C146.697 50.368 145.961 50.656 145.417 51.232C144.889 51.792 144.625 52.6 144.625 53.656V61H141.265V47.704H144.625V49.36C145.073 48.784 145.641 48.336 146.329 48.016C147.033 47.68 147.801 47.512 148.633 47.512ZM162.341 47.488C163.333 47.488 164.205 47.688 164.957 48.088C165.709 48.472 166.301 48.976 166.733 49.6V47.704H170.117V61.096C170.117 62.328 169.869 63.424 169.373 64.384C168.877 65.36 168.133 66.128 167.141 66.688C166.149 67.264 164.949 67.552 163.541 67.552C161.653 67.552 160.101 67.112 158.885 66.232C157.685 65.352 157.005 64.152 156.845 62.632H160.181C160.357 63.24 160.733 63.72 161.309 64.072C161.901 64.44 162.613 64.624 163.445 64.624C164.421 64.624 165.213 64.328 165.821 63.736C166.429 63.16 166.733 62.28 166.733 61.096V59.032C166.301 59.656 165.701 60.176 164.933 60.592C164.181 61.008 163.317 61.216 162.341 61.216C161.221 61.216 160.197 60.928 159.269 60.352C158.341 59.776 157.605 58.968 157.061 57.928C156.533 56.872 156.269 55.664 156.269 54.304C156.269 52.96 156.533 51.768 157.061 50.728C157.605 49.688 158.333 48.888 159.245 48.328C160.173 47.768 161.205 47.488 162.341 47.488ZM166.733 54.352C166.733 53.536 166.573 52.84 166.253 52.264C165.933 51.672 165.501 51.224 164.957 50.92C164.413 50.6 163.829 50.44 163.205 50.44C162.581 50.44 162.005 50.592 161.477 50.896C160.949 51.2 160.517 51.648 160.181 52.24C159.861 52.816 159.701 53.504 159.701 54.304C159.701 55.104 159.861 55.808 160.181 56.416C160.517 57.008 160.949 57.464 161.477 57.784C162.021 58.104 162.597 58.264 163.205 58.264C163.829 58.264 164.413 58.112 164.957 57.808C165.501 57.488 165.933 57.04 166.253 56.464C166.573 55.872 166.733 55.168 166.733 54.352ZM178.486 61.216C177.398 61.216 176.422 61.024 175.558 60.64C174.694 60.24 174.006 59.704 173.494 59.032C172.998 58.36 172.726 57.616 172.678 56.8H176.062C176.126 57.312 176.374 57.736 176.806 58.072C177.254 58.408 177.806 58.576 178.462 58.576C179.102 58.576 179.598 58.448 179.95 58.192C180.318 57.936 180.502 57.608 180.502 57.208C180.502 56.776 180.278 56.456 179.83 56.248C179.398 56.024 178.702 55.784 177.742 55.528C176.75 55.288 175.934 55.04 175.294 54.784C174.67 54.528 174.126 54.136 173.662 53.608C173.214 53.08 172.99 52.368 172.99 51.472C172.99 50.736 173.198 50.064 173.614 49.456C174.046 48.848 174.654 48.368 175.438 48.016C176.238 47.664 177.174 47.488 178.246 47.488C179.83 47.488 181.094 47.888 182.038 48.688C182.982 49.472 183.502 50.536 183.598 51.88H180.382C180.334 51.352 180.11 50.936 179.71 50.632C179.326 50.312 178.806 50.152 178.15 50.152C177.542 50.152 177.07 50.264 176.734 50.488C176.414 50.712 176.254 51.024 176.254 51.424C176.254 51.872 176.478 52.216 176.926 52.456C177.374 52.68 178.07 52.912 179.014 53.152C179.974 53.392 180.766 53.64 181.39 53.896C182.014 54.152 182.55 54.552 182.998 55.096C183.462 55.624 183.702 56.328 183.718 57.208C183.718 57.976 183.502 58.664 183.07 59.272C182.654 59.88 182.046 60.36 181.246 60.712C180.462 61.048 179.542 61.216 178.486 61.216ZM187.964 61.168C187.356 61.168 186.852 60.984 186.452 60.616C186.068 60.232 185.876 59.76 185.876 59.2C185.876 58.64 186.068 58.176 186.452 57.808C186.852 57.424 187.356 57.232 187.964 57.232C188.556 57.232 189.044 57.424 189.428 57.808C189.812 58.176 190.004 58.64 190.004 59.2C190.004 59.76 189.812 60.232 189.428 60.616C189.044 60.984 188.556 61.168 187.964 61.168Z" fill="white"/>
<path d="M211.749 44.248L206.085 55.168V61H202.725V55.168L197.037 44.248H200.829L204.429 51.904L208.005 44.248H211.749ZM219.591 61.216C218.311 61.216 217.159 60.936 216.135 60.376C215.111 59.8 214.303 58.992 213.711 57.952C213.135 56.912 212.847 55.712 212.847 54.352C212.847 52.992 213.143 51.792 213.735 50.752C214.343 49.712 215.167 48.912 216.207 48.352C217.247 47.776 218.407 47.488 219.687 47.488C220.967 47.488 222.127 47.776 223.167 48.352C224.207 48.912 225.023 49.712 225.615 50.752C226.223 51.792 226.527 52.992 226.527 54.352C226.527 55.712 226.215 56.912 225.591 57.952C224.983 58.992 224.151 59.8 223.095 60.376C222.055 60.936 220.887 61.216 219.591 61.216ZM219.591 58.288C220.199 58.288 220.767 58.144 221.295 57.856C221.839 57.552 222.271 57.104 222.591 56.512C222.911 55.92 223.071 55.2 223.071 54.352C223.071 53.088 222.735 52.12 222.063 51.448C221.407 50.76 220.599 50.416 219.639 50.416C218.679 50.416 217.871 50.76 217.215 51.448C216.575 52.12 216.255 53.088 216.255 54.352C216.255 55.616 216.567 56.592 217.191 57.28C217.831 57.952 218.631 58.288 219.591 58.288ZM241.544 47.704V61H238.16V59.32C237.728 59.896 237.16 60.352 236.456 60.688C235.768 61.008 235.016 61.168 234.2 61.168C233.16 61.168 232.24 60.952 231.44 60.52C230.64 60.072 230.008 59.424 229.544 58.576C229.096 57.712 228.872 56.688 228.872 55.504V47.704H232.232V55.024C232.232 56.08 232.496 56.896 233.024 57.472C233.552 58.032 234.272 58.312 235.184 58.312C236.112 58.312 236.84 58.032 237.368 57.472C237.896 56.896 238.16 56.08 238.16 55.024V47.704H241.544ZM248.219 49.768C248.651 49.064 249.211 48.512 249.899 48.112C250.603 47.712 251.403 47.512 252.299 47.512V51.04H251.411C250.355 51.04 249.555 51.288 249.011 51.784C248.483 52.28 248.219 53.144 248.219 54.376V61H244.859V47.704H248.219V49.768ZM259.465 52.6C259.465 50.952 259.833 49.48 260.569 48.184C261.321 46.872 262.337 45.856 263.617 45.136C264.913 44.4 266.361 44.032 267.961 44.032C269.833 44.032 271.473 44.512 272.881 45.472C274.289 46.432 275.273 47.76 275.833 49.456H271.969C271.585 48.656 271.041 48.056 270.337 47.656C269.649 47.256 268.849 47.056 267.937 47.056C266.961 47.056 266.089 47.288 265.321 47.752C264.569 48.2 263.977 48.84 263.545 49.672C263.129 50.504 262.921 51.48 262.921 52.6C262.921 53.704 263.129 54.68 263.545 55.528C263.977 56.36 264.569 57.008 265.321 57.472C266.089 57.92 266.961 58.144 267.937 58.144C268.849 58.144 269.649 57.944 270.337 57.544C271.041 57.128 271.585 56.52 271.969 55.72H275.833C275.273 57.432 274.289 58.768 272.881 59.728C271.489 60.672 269.849 61.144 267.961 61.144C266.361 61.144 264.913 60.784 263.617 60.064C262.337 59.328 261.321 58.312 260.569 57.016C259.833 55.72 259.465 54.248 259.465 52.6ZM284.607 61.216C283.327 61.216 282.175 60.936 281.151 60.376C280.127 59.8 279.319 58.992 278.727 57.952C278.151 56.912 277.863 55.712 277.863 54.352C277.863 52.992 278.159 51.792 278.751 50.752C279.359 49.712 280.183 48.912 281.223 48.352C282.263 47.776 283.423 47.488 284.703 47.488C285.983 47.488 287.143 47.776 288.183 48.352C289.223 48.912 290.039 49.712 290.631 50.752C291.239 51.792 291.543 52.992 291.543 54.352C291.543 55.712 291.231 56.912 290.607 57.952C289.999 58.992 289.167 59.8 288.111 60.376C287.071 60.936 285.903 61.216 284.607 61.216ZM284.607 58.288C285.215 58.288 285.783 58.144 286.311 57.856C286.855 57.552 287.287 57.104 287.607 56.512C287.927 55.92 288.087 55.2 288.087 54.352C288.087 53.088 287.751 52.12 287.079 51.448C286.423 50.76 285.615 50.416 284.655 50.416C283.695 50.416 282.887 50.76 282.231 51.448C281.591 52.12 281.271 53.088 281.271 54.352C281.271 55.616 281.583 56.592 282.207 57.28C282.847 57.952 283.647 58.288 284.607 58.288ZM301.376 47.512C302.96 47.512 304.24 48.016 305.216 49.024C306.192 50.016 306.68 51.408 306.68 53.2V61H303.32V53.656C303.32 52.6 303.056 51.792 302.528 51.232C302 50.656 301.28 50.368 300.368 50.368C299.44 50.368 298.704 50.656 298.16 51.232C297.632 51.792 297.368 52.6 297.368 53.656V61H294.008V47.704H297.368V49.36C297.816 48.784 298.384 48.336 299.072 48.016C299.776 47.68 300.544 47.512 301.376 47.512ZM313.787 50.464V56.896C313.787 57.344 313.891 57.672 314.099 57.88C314.323 58.072 314.691 58.168 315.203 58.168H316.763V61H314.651C311.819 61 310.403 59.624 310.403 56.872V50.464H308.819V47.704H310.403V44.416H313.787V47.704H316.763V50.464H313.787ZM322.539 49.768C322.971 49.064 323.531 48.512 324.219 48.112C324.923 47.712 325.723 47.512 326.619 47.512V51.04H325.731C324.675 51.04 323.875 51.288 323.331 51.784C322.803 52.28 322.539 53.144 322.539 54.376V61H319.179V47.704H322.539V49.768ZM334.787 61.216C333.507 61.216 332.355 60.936 331.331 60.376C330.307 59.8 329.499 58.992 328.907 57.952C328.331 56.912 328.043 55.712 328.043 54.352C328.043 52.992 328.339 51.792 328.931 50.752C329.539 49.712 330.363 48.912 331.403 48.352C332.443 47.776 333.603 47.488 334.883 47.488C336.163 47.488 337.323 47.776 338.363 48.352C339.403 48.912 340.219 49.712 340.811 50.752C341.419 51.792 341.723 52.992 341.723 54.352C341.723 55.712 341.411 56.912 340.787 57.952C340.179 58.992 339.347 59.8 338.291 60.376C337.251 60.936 336.083 61.216 334.787 61.216ZM334.787 58.288C335.395 58.288 335.963 58.144 336.491 57.856C337.035 57.552 337.467 57.104 337.787 56.512C338.107 55.92 338.267 55.2 338.267 54.352C338.267 53.088 337.931 52.12 337.259 51.448C336.603 50.76 335.795 50.416 334.835 50.416C333.875 50.416 333.067 50.76 332.411 51.448C331.771 52.12 331.451 53.088 331.451 54.352C331.451 55.616 331.763 56.592 332.387 57.28C333.027 57.952 333.827 58.288 334.787 58.288ZM347.547 58.336H353.067V61H344.187V44.248H347.547V58.336Z" fill="#F9BB00"/>
<circle opacity="0.5" cx="6" cy="36" r="27.5" stroke="#FF6464" stroke-width="15"/>
<circle opacity="0.5" cx="375" cy="66" r="27.5" stroke="#FF6464" stroke-width="15"/>
</svg>
