<svg width="24" height="24" viewBox="0 0 24 24" fill="none" xmlns="http://www.w3.org/2000/svg">
<path d="M0.375 8.55117C0.367078 8.55117 0.359437 8.55023 0.351562 8.54995V22.3101H8.1172M8.1172 22.3101V0.351562M8.1172 22.3101H15.8828V0.351562H8.1172M8.1172 0.351562H0.820125C0.561375 0.351562 0.351562 0.561328 0.351562 0.820125V7.14619C0.359391 7.14591 0.367172 7.14492 0.375 7.14492" stroke="#D13A3F" stroke-width="1.2" stroke-miterlimit="10" stroke-linecap="round" stroke-linejoin="round"/>
<path d="M0.351562 11.3309H23.6484M3.34261 2.25267H4.99655M3.34261 3.39989H4.99655M3.34261 19.2618H4.99655M3.34261 20.409H4.99655M11.173 2.25267H12.827M11.173 3.39989H12.827M11.173 19.2618H12.827M11.173 20.409H12.827M19.0035 2.25267H20.6574M19.0035 3.39989H20.6574M19.0035 19.2618H20.6574M19.0035 20.409H20.6574M23.6484 22.3101H15.8828V0.351562H23.1799C23.4386 0.351562 23.6484 0.561328 23.6484 0.820125V22.3101ZM7.02572 9.43655H8.1172V6.24431H7.02572C6.77438 6.24431 6.57061 6.44808 6.57061 6.69942V8.98144C6.57061 9.23278 6.77438 9.43655 7.02572 9.43655Z" stroke="#D13A3F" stroke-width="1.2" stroke-miterlimit="10" stroke-linecap="round" stroke-linejoin="round"/>
<path d="M19.125 23.6483H0.820125C0.561375 23.6483 0.351562 23.4385 0.351562 23.1797V22.2553M23.6484 22.2553V23.1797C23.6484 23.4385 23.4387 23.6483 23.1799 23.6483H20.6437M14.7914 9.43637H15.8828V6.24414H14.7914C14.54 6.24414 14.3362 6.44791 14.3362 6.69925V8.98127C14.3362 9.23261 14.54 9.43637 14.7914 9.43637ZM22.545 9.43637H23.6365V6.24414H22.545C22.2937 6.24414 22.0899 6.44791 22.0899 6.69925V8.98127C22.0899 9.23261 22.2937 9.43637 22.545 9.43637ZM7.02572 16.4172H8.1172V13.225H7.02572C6.77438 13.225 6.57061 13.4288 6.57061 13.6801V15.9621C6.57061 16.2134 6.77438 16.4172 7.02572 16.4172ZM14.7914 16.4172H15.8828V13.225H14.7914C14.54 13.225 14.3362 13.4288 14.3362 13.6801V15.9621C14.3362 16.2134 14.54 16.4172 14.7914 16.4172ZM22.545 16.4172H23.6365V13.225H22.545C22.2937 13.225 22.0899 13.4288 22.0899 13.6801V15.9621C22.0899 16.2134 22.2937 16.4172 22.545 16.4172Z" stroke="#D13A3F" stroke-width="1.2" stroke-miterlimit="10" stroke-linecap="round" stroke-linejoin="round"/>
</svg>
