<svg width="20" height="18" viewBox="0 0 20 18" fill="none" xmlns="http://www.w3.org/2000/svg">
<path fill-rule="evenodd" clip-rule="evenodd" d="M9.68046 2.00001C6.76246 1.99505 3.92843 2.97649 1.63846 4.78501C1.53578 4.87019 1.4171 4.93396 1.2894 4.97257C1.1617 5.01117 1.02757 5.02384 0.894898 5.00982C0.76223 4.9958 0.633708 4.95537 0.516901 4.89092C0.400094 4.82647 0.297363 4.7393 0.214759 4.63455C0.132154 4.52979 0.0713458 4.40956 0.0359141 4.28095C0.000482365 4.15233 -0.00885619 4.01793 0.00844828 3.88565C0.0257528 3.75337 0.0693503 3.62589 0.136674 3.51071C0.203997 3.39554 0.293686 3.295 0.400458 3.21501C3.0431 1.12818 6.31321 -0.00472749 9.68046 1.4828e-05C13.0477 -0.00472749 16.3178 1.12818 18.9605 3.21501C19.0672 3.295 19.1569 3.39554 19.2242 3.51071C19.2916 3.62589 19.3352 3.75337 19.3525 3.88565C19.3698 4.01793 19.3604 4.15233 19.325 4.28095C19.2896 4.40956 19.2288 4.52979 19.1462 4.63455C19.0636 4.7393 18.9608 4.82647 18.844 4.89092C18.7272 4.95537 18.5987 4.9958 18.466 5.00982C18.3333 5.02384 18.1992 5.01117 18.0715 4.97257C17.9438 4.93396 17.8251 4.87019 17.7225 4.78501C15.4325 2.97649 12.5985 1.99505 9.68046 2.00001ZM9.68046 6.00001C8.48321 5.99837 7.29774 6.23642 6.19394 6.70013C5.09014 7.16384 4.09033 7.84383 3.25346 8.70002C3.06781 8.88951 2.81448 8.9975 2.54921 9.00022C2.28394 9.00294 2.02845 8.90017 1.83896 8.71452C1.64946 8.52886 1.54147 8.27554 1.53876 8.01027C1.53604 7.745 1.63881 7.48951 1.82446 7.30001C2.84762 6.25378 4.06978 5.42282 5.41896 4.85608C6.76814 4.28935 8.21708 3.99828 9.68046 4.00001C11.1438 3.99828 12.5928 4.28935 13.942 4.85608C15.2911 5.42282 16.5133 6.25378 17.5365 7.30001C17.6284 7.39384 17.7009 7.50486 17.7499 7.62673C17.799 7.74859 17.8235 7.87892 17.8222 8.01027C17.8208 8.14162 17.7936 8.27141 17.7421 8.39225C17.6906 8.51308 17.6158 8.62259 17.522 8.71452C17.4281 8.80644 17.3171 8.87898 17.1952 8.92801C17.0734 8.97703 16.9431 9.00156 16.8117 9.00022C16.6804 8.99887 16.5506 8.97167 16.4297 8.92016C16.3089 8.86865 16.1994 8.79384 16.1075 8.70002C15.2706 7.84383 14.2708 7.16384 13.167 6.70013C12.0632 6.23642 10.8777 5.99837 9.68046 6.00001ZM9.68046 10C8.20046 10 6.87046 10.642 5.95446 11.666C5.77681 11.8608 5.52944 11.9775 5.26617 11.9908C5.0029 12.0041 4.74501 11.913 4.54861 11.7371C4.35222 11.5613 4.23319 11.315 4.21743 11.0519C4.20167 10.7888 4.29045 10.53 4.46446 10.332C5.12039 9.59762 5.92419 9.0102 6.82311 8.6083C7.72204 8.20641 8.69578 7.99911 9.68046 8.00002C11.7535 8.00002 13.6175 8.90302 14.8975 10.333C14.9865 10.4306 15.0553 10.5449 15.0999 10.6692C15.1445 10.7936 15.164 10.9255 15.1574 11.0575C15.1507 11.1894 15.1179 11.3187 15.061 11.4379C15.0041 11.5571 14.9241 11.6638 14.8257 11.752C14.7273 11.8401 14.6123 11.9078 14.4876 11.9513C14.3628 11.9947 14.2307 12.013 14.0989 12.0051C13.967 11.9972 13.838 11.9633 13.7193 11.9053C13.6007 11.8472 13.4947 11.7662 13.4075 11.667C12.9391 11.1418 12.3648 10.7218 11.7224 10.4345C11.0801 10.1471 10.3842 9.99908 9.68046 10ZM9.68046 14C9.41524 14 9.16089 14.1054 8.97335 14.2929C8.78581 14.4804 8.68046 14.7348 8.68046 15C8.68046 15.2652 8.78581 15.5196 8.97335 15.7071C9.16089 15.8947 9.41524 16 9.68046 16C9.94567 16 10.2 15.8947 10.3876 15.7071C10.5751 15.5196 10.6805 15.2652 10.6805 15C10.6805 14.7348 10.5751 14.4804 10.3876 14.2929C10.2 14.1054 9.94567 14 9.68046 14ZM6.68046 15C6.68046 14.2044 6.99653 13.4413 7.55914 12.8787C8.12175 12.3161 8.88481 12 9.68046 12C10.4761 12 11.2392 12.3161 11.8018 12.8787C12.3644 13.4413 12.6805 14.2044 12.6805 15C12.6805 15.7957 12.3644 16.5587 11.8018 17.1213C11.2392 17.6839 10.4761 18 9.68046 18C8.88481 18 8.12175 17.6839 7.55914 17.1213C6.99653 16.5587 6.68046 15.7957 6.68046 15Z" fill="#D13A3F"/>
</svg>
