<svg width="23" height="23" viewBox="0 0 23 23" fill="none" xmlns="http://www.w3.org/2000/svg">
<mask id="path-1-outside-1_806_2903" maskUnits="userSpaceOnUse" x="-0.849609" y="-0.849609" width="24" height="24" fill="black">
<rect fill="white" x="-0.849609" y="-0.849609" width="24" height="24"/>
<path d="M2.57289 4.43336H7.3893C7.54445 4.43336 7.67055 4.30727 7.67055 4.15211V0.554453C7.67055 0.399297 7.54445 0.273203 7.3893 0.273203H2.57289C2.41773 0.273203 2.29164 0.399297 2.29164 0.554453V4.15211C2.29164 4.30773 2.41773 4.43336 2.57289 4.43336ZM2.85414 0.835703H7.10805V3.87086H2.85414V0.835703ZM8.02352 6.61727H14.8705C14.9774 6.61727 15.0749 6.5568 15.1223 6.46117C15.1696 6.36555 15.1593 6.25117 15.0946 6.16633L13.177 3.63227C13.1508 3.59759 13.1169 3.56946 13.0781 3.5501C13.0392 3.53074 12.9963 3.52067 12.9529 3.5207H12.8948V0.431641C12.8948 0.276484 12.7687 0.150391 12.6135 0.150391H10.2801C10.1249 0.150391 9.99883 0.276484 9.99883 0.431641V3.5207H9.9407C9.85258 3.5207 9.76961 3.56195 9.71664 3.63227L7.79898 6.16633C7.76748 6.20807 7.74821 6.25776 7.74332 6.30983C7.73844 6.3619 7.74814 6.4143 7.77133 6.46117C7.79471 6.50805 7.8307 6.54749 7.87524 6.57506C7.91978 6.60263 7.97113 6.61724 8.02352 6.61727ZM10.5618 0.712891H12.3327V3.5207H10.5618V0.712891ZM10.0809 4.0832H12.8132L14.3052 6.05477H8.5893L10.0809 4.0832ZM5.87148 2.94555C5.87148 3.1007 5.74539 3.2268 5.59023 3.2268H4.37148C4.21633 3.2268 4.09023 3.1007 4.09023 2.94555C4.09023 2.79039 4.21633 2.6643 4.37148 2.6643H5.59023C5.74539 2.6643 5.87148 2.79039 5.87148 2.94555ZM11.1107 5.06898C11.1107 5.22414 10.9846 5.35023 10.8295 5.35023H10.8173C10.6621 5.35023 10.536 5.22414 10.536 5.06898C10.536 4.91383 10.6621 4.78773 10.8173 4.78773H10.8295C10.9846 4.78773 11.1107 4.91336 11.1107 5.06898ZM12.3585 5.06898C12.3585 5.22414 12.2324 5.35023 12.0773 5.35023H12.0651C11.9099 5.35023 11.7838 5.22414 11.7838 5.06898C11.7838 4.91383 11.9099 4.78773 12.0651 4.78773H12.0773C12.2329 4.78773 12.3585 4.91336 12.3585 5.06898ZM15.5057 4.43336H20.3221C20.4773 4.43336 20.6034 4.30727 20.6034 4.15211V0.554453C20.6034 0.399297 20.4773 0.273203 20.3221 0.273203H15.5057C15.3505 0.273203 15.2245 0.399297 15.2245 0.554453V4.15211C15.2245 4.30773 15.3501 4.43336 15.5057 4.43336ZM15.787 0.835703H20.0409V3.87086H15.787V0.835703ZM18.8043 2.94555C18.8043 3.1007 18.6782 3.2268 18.523 3.2268H17.3043C17.1491 3.2268 17.023 3.1007 17.023 2.94555C17.023 2.79039 17.1491 2.6643 17.3043 2.6643H18.523C18.6782 2.6643 18.8043 2.79039 18.8043 2.94555ZM22.4629 11.1655H14.7266V10.9218C14.7266 10.5079 14.3901 10.1713 13.9766 10.1713H13.1662C13.011 10.1713 12.8849 10.2974 12.8849 10.4526C12.8849 10.6077 13.011 10.7338 13.1662 10.7338H13.9766C14.0784 10.7338 14.1641 10.8196 14.1641 10.9218V11.1655H11.7285V10.453C11.7285 10.2979 11.6024 10.1718 11.4473 10.1718C11.2921 10.1718 11.166 10.2979 11.166 10.453V11.1655H8.73039V10.9218C8.73039 10.8201 8.81617 10.7338 8.91836 10.7338H9.72883C9.88398 10.7338 10.0101 10.6077 10.0101 10.4526C10.0101 10.2974 9.88398 10.1713 9.72883 10.1713H8.91836C8.50445 10.1713 8.16789 10.5079 8.16789 10.9218V11.1655H3.01773V8.6507C3.01773 8.20539 3.38008 7.84305 3.82539 7.84305C4.2707 7.84305 4.63305 8.20539 4.63305 8.6507V9.22586C4.63305 9.38102 4.75914 9.50711 4.9143 9.50711C5.06945 9.50711 5.19555 9.38102 5.19555 9.22586V8.6507C5.19555 7.89508 4.58102 7.28055 3.82539 7.28055C3.06977 7.28055 2.45523 7.89508 2.45523 8.6507V9.90648H1.81961C1.66445 9.90648 1.53836 10.0326 1.53836 10.1877C1.53836 10.3429 1.66445 10.469 1.81961 10.469H2.45523V11.166H0.431641C0.276484 11.166 0.150391 11.2921 0.150391 11.4473V21.9449C0.150391 22.386 0.508984 22.7446 0.950078 22.7446H21.9445C22.3855 22.7446 22.7441 22.386 22.7441 21.9449V11.4468C22.7441 11.2912 22.618 11.1655 22.4629 11.1655ZM22.1816 11.728V12.412H0.712891V11.728H22.1816ZM7.06492 15.3313V12.9745H15.8301V15.3313H7.06492ZM15.8301 15.8938V22.1816H7.06492V15.8938H15.8301ZM6.50242 15.3313H0.712891V12.9745H6.50242V15.3313ZM16.3926 12.974H22.1816V15.3309H16.3926V12.974ZM0.712891 21.9445V15.8938H6.50242V22.1816H0.950078C0.819297 22.1816 0.712891 22.0752 0.712891 21.9445ZM21.9445 22.1816H16.3926V15.8938H22.1816V21.9445C22.1816 22.0752 22.0752 22.1816 21.9445 22.1816ZM7.94102 21.4626H14.9535C15.1087 21.4626 15.2348 21.3365 15.2348 21.1813V16.8937C15.2348 16.7385 15.1087 16.6124 14.9535 16.6124H7.94102C7.78586 16.6124 7.65977 16.7385 7.65977 16.8937V21.1813C7.65977 21.337 7.78586 21.4626 7.94102 21.4626ZM8.22227 17.1749H14.6723V20.9001H8.22227V17.1749ZM20.608 13.858C20.608 14.0132 20.482 14.1393 20.3268 14.1393H18.247C18.0918 14.1393 17.9657 14.0132 17.9657 13.858C17.9657 13.7029 18.0918 13.5768 18.247 13.5768H20.3268C20.4824 13.5768 20.608 13.7029 20.608 13.858ZM2.28648 13.858C2.28648 13.7029 2.41258 13.5768 2.56773 13.5768H4.64758C4.80273 13.5768 4.92883 13.7029 4.92883 13.858C4.92883 14.0132 4.80273 14.1393 4.64758 14.1393H2.56773C2.41211 14.1393 2.28648 14.0137 2.28648 13.858ZM9.3168 13.334C8.86539 13.334 8.49836 13.701 8.49836 14.1524C8.49836 14.6038 8.86539 14.9709 9.3168 14.9709C9.7682 14.9709 10.1352 14.6038 10.1352 14.1524C10.1352 13.701 9.7682 13.334 9.3168 13.334ZM9.3168 14.4088C9.1757 14.4088 9.06086 14.294 9.06086 14.1529C9.06086 14.0118 9.1757 13.897 9.3168 13.897C9.45789 13.897 9.57273 14.0118 9.57273 14.1529C9.57273 14.294 9.45836 14.4088 9.3168 14.4088ZM13.5777 13.334C13.1263 13.334 12.7593 13.701 12.7593 14.1524C12.7593 14.6038 13.1263 14.9709 13.5777 14.9709C14.0291 14.9709 14.3962 14.6038 14.3962 14.1524C14.3962 13.701 14.0287 13.334 13.5777 13.334ZM13.5777 14.4088C13.4366 14.4088 13.3218 14.294 13.3218 14.1529C13.3218 14.0118 13.4366 13.897 13.5777 13.897C13.7188 13.897 13.8337 14.0118 13.8337 14.1529C13.8337 14.294 13.7188 14.4088 13.5777 14.4088ZM5.90383 18.3243V19.7512C5.90383 19.9063 5.77773 20.0324 5.62258 20.0324C5.46742 20.0324 5.34133 19.9063 5.34133 19.7512V18.3243C5.34133 18.1691 5.46742 18.043 5.62258 18.043C5.77773 18.043 5.90383 18.1691 5.90383 18.3243ZM17.5532 18.3243V19.7512C17.5532 19.9063 17.4271 20.0324 17.272 20.0324C17.1168 20.0324 16.9907 19.9063 16.9907 19.7512V18.3243C16.9907 18.1691 17.1168 18.043 17.272 18.043C17.4271 18.043 17.5532 18.1691 17.5532 18.3243ZM16.5173 6.33648C16.5173 6.49164 16.6434 6.61773 16.7985 6.61773H17.4941V7.71555C17.1407 7.83367 16.8848 8.16695 16.8848 8.55976C16.8848 9.05055 17.2841 9.45039 17.7754 9.45039C17.9952 9.45039 18.2001 9.3707 18.3576 9.23477C18.5137 9.36883 18.7157 9.45039 18.937 9.45039C19.1568 9.45039 19.3616 9.3707 19.5191 9.23477C19.6752 9.36883 19.8773 9.45039 20.0985 9.45039C20.5893 9.45039 20.9891 9.05101 20.9891 8.55976C20.9891 8.16695 20.7332 7.83367 20.3798 7.71555V6.61773H21.0754C21.2305 6.61773 21.3566 6.49164 21.3566 6.33648C21.3566 6.18133 21.2305 6.05523 21.0754 6.05523H16.799C16.762 6.05517 16.7254 6.0624 16.6912 6.07651C16.657 6.09061 16.626 6.11132 16.5998 6.13744C16.5736 6.16357 16.5529 6.19459 16.5387 6.22875C16.5246 6.2629 16.5173 6.29951 16.5173 6.33648ZM18.6552 7.71555C18.5446 7.75258 18.4438 7.8107 18.3571 7.88477C18.2688 7.80886 18.1666 7.7509 18.0562 7.71414V6.61773H18.6552V7.71555ZM17.7754 8.88789C17.5945 8.88789 17.4473 8.7407 17.4473 8.55976C17.4473 8.37883 17.5945 8.23164 17.7754 8.23164C17.8968 8.23164 18.0046 8.29773 18.0613 8.40039C18.052 8.45195 18.0463 8.50539 18.0463 8.55976C18.0463 8.61414 18.052 8.66711 18.0613 8.71914C18.0331 8.77029 17.9917 8.81293 17.9414 8.84261C17.8911 8.87229 17.8338 8.88793 17.7754 8.88789ZM18.9365 8.88789C18.7555 8.88789 18.6084 8.7407 18.6084 8.55976C18.6084 8.37883 18.7555 8.23164 18.9365 8.23164C19.0579 8.23164 19.1657 8.29773 19.2224 8.40039C19.213 8.45195 19.2074 8.50539 19.2074 8.55976C19.2074 8.61414 19.213 8.66711 19.2224 8.71914C19.1943 8.77033 19.1529 8.813 19.1026 8.84269C19.0523 8.87238 18.9949 8.88799 18.9365 8.88789ZM20.098 8.88789C19.9171 8.88789 19.7699 8.7407 19.7699 8.55976C19.7699 8.37883 19.9171 8.23164 20.098 8.23164C20.279 8.23164 20.4262 8.37883 20.4262 8.55976C20.4262 8.7407 20.279 8.88789 20.098 8.88789ZM19.8168 7.71555C19.7062 7.75258 19.6054 7.8107 19.5187 7.88477C19.4304 7.80886 19.3282 7.7509 19.2177 7.71414V6.61773H19.8168V7.71555Z"/>
</mask>
<path d="M2.57289 4.43336H7.3893C7.54445 4.43336 7.67055 4.30727 7.67055 4.15211V0.554453C7.67055 0.399297 7.54445 0.273203 7.3893 0.273203H2.57289C2.41773 0.273203 2.29164 0.399297 2.29164 0.554453V4.15211C2.29164 4.30773 2.41773 4.43336 2.57289 4.43336ZM2.85414 0.835703H7.10805V3.87086H2.85414V0.835703ZM8.02352 6.61727H14.8705C14.9774 6.61727 15.0749 6.5568 15.1223 6.46117C15.1696 6.36555 15.1593 6.25117 15.0946 6.16633L13.177 3.63227C13.1508 3.59759 13.1169 3.56946 13.0781 3.5501C13.0392 3.53074 12.9963 3.52067 12.9529 3.5207H12.8948V0.431641C12.8948 0.276484 12.7687 0.150391 12.6135 0.150391H10.2801C10.1249 0.150391 9.99883 0.276484 9.99883 0.431641V3.5207H9.9407C9.85258 3.5207 9.76961 3.56195 9.71664 3.63227L7.79898 6.16633C7.76748 6.20807 7.74821 6.25776 7.74332 6.30983C7.73844 6.3619 7.74814 6.4143 7.77133 6.46117C7.79471 6.50805 7.8307 6.54749 7.87524 6.57506C7.91978 6.60263 7.97113 6.61724 8.02352 6.61727ZM10.5618 0.712891H12.3327V3.5207H10.5618V0.712891ZM10.0809 4.0832H12.8132L14.3052 6.05477H8.5893L10.0809 4.0832ZM5.87148 2.94555C5.87148 3.1007 5.74539 3.2268 5.59023 3.2268H4.37148C4.21633 3.2268 4.09023 3.1007 4.09023 2.94555C4.09023 2.79039 4.21633 2.6643 4.37148 2.6643H5.59023C5.74539 2.6643 5.87148 2.79039 5.87148 2.94555ZM11.1107 5.06898C11.1107 5.22414 10.9846 5.35023 10.8295 5.35023H10.8173C10.6621 5.35023 10.536 5.22414 10.536 5.06898C10.536 4.91383 10.6621 4.78773 10.8173 4.78773H10.8295C10.9846 4.78773 11.1107 4.91336 11.1107 5.06898ZM12.3585 5.06898C12.3585 5.22414 12.2324 5.35023 12.0773 5.35023H12.0651C11.9099 5.35023 11.7838 5.22414 11.7838 5.06898C11.7838 4.91383 11.9099 4.78773 12.0651 4.78773H12.0773C12.2329 4.78773 12.3585 4.91336 12.3585 5.06898ZM15.5057 4.43336H20.3221C20.4773 4.43336 20.6034 4.30727 20.6034 4.15211V0.554453C20.6034 0.399297 20.4773 0.273203 20.3221 0.273203H15.5057C15.3505 0.273203 15.2245 0.399297 15.2245 0.554453V4.15211C15.2245 4.30773 15.3501 4.43336 15.5057 4.43336ZM15.787 0.835703H20.0409V3.87086H15.787V0.835703ZM18.8043 2.94555C18.8043 3.1007 18.6782 3.2268 18.523 3.2268H17.3043C17.1491 3.2268 17.023 3.1007 17.023 2.94555C17.023 2.79039 17.1491 2.6643 17.3043 2.6643H18.523C18.6782 2.6643 18.8043 2.79039 18.8043 2.94555ZM22.4629 11.1655H14.7266V10.9218C14.7266 10.5079 14.3901 10.1713 13.9766 10.1713H13.1662C13.011 10.1713 12.8849 10.2974 12.8849 10.4526C12.8849 10.6077 13.011 10.7338 13.1662 10.7338H13.9766C14.0784 10.7338 14.1641 10.8196 14.1641 10.9218V11.1655H11.7285V10.453C11.7285 10.2979 11.6024 10.1718 11.4473 10.1718C11.2921 10.1718 11.166 10.2979 11.166 10.453V11.1655H8.73039V10.9218C8.73039 10.8201 8.81617 10.7338 8.91836 10.7338H9.72883C9.88398 10.7338 10.0101 10.6077 10.0101 10.4526C10.0101 10.2974 9.88398 10.1713 9.72883 10.1713H8.91836C8.50445 10.1713 8.16789 10.5079 8.16789 10.9218V11.1655H3.01773V8.6507C3.01773 8.20539 3.38008 7.84305 3.82539 7.84305C4.2707 7.84305 4.63305 8.20539 4.63305 8.6507V9.22586C4.63305 9.38102 4.75914 9.50711 4.9143 9.50711C5.06945 9.50711 5.19555 9.38102 5.19555 9.22586V8.6507C5.19555 7.89508 4.58102 7.28055 3.82539 7.28055C3.06977 7.28055 2.45523 7.89508 2.45523 8.6507V9.90648H1.81961C1.66445 9.90648 1.53836 10.0326 1.53836 10.1877C1.53836 10.3429 1.66445 10.469 1.81961 10.469H2.45523V11.166H0.431641C0.276484 11.166 0.150391 11.2921 0.150391 11.4473V21.9449C0.150391 22.386 0.508984 22.7446 0.950078 22.7446H21.9445C22.3855 22.7446 22.7441 22.386 22.7441 21.9449V11.4468C22.7441 11.2912 22.618 11.1655 22.4629 11.1655ZM22.1816 11.728V12.412H0.712891V11.728H22.1816ZM7.06492 15.3313V12.9745H15.8301V15.3313H7.06492ZM15.8301 15.8938V22.1816H7.06492V15.8938H15.8301ZM6.50242 15.3313H0.712891V12.9745H6.50242V15.3313ZM16.3926 12.974H22.1816V15.3309H16.3926V12.974ZM0.712891 21.9445V15.8938H6.50242V22.1816H0.950078C0.819297 22.1816 0.712891 22.0752 0.712891 21.9445ZM21.9445 22.1816H16.3926V15.8938H22.1816V21.9445C22.1816 22.0752 22.0752 22.1816 21.9445 22.1816ZM7.94102 21.4626H14.9535C15.1087 21.4626 15.2348 21.3365 15.2348 21.1813V16.8937C15.2348 16.7385 15.1087 16.6124 14.9535 16.6124H7.94102C7.78586 16.6124 7.65977 16.7385 7.65977 16.8937V21.1813C7.65977 21.337 7.78586 21.4626 7.94102 21.4626ZM8.22227 17.1749H14.6723V20.9001H8.22227V17.1749ZM20.608 13.858C20.608 14.0132 20.482 14.1393 20.3268 14.1393H18.247C18.0918 14.1393 17.9657 14.0132 17.9657 13.858C17.9657 13.7029 18.0918 13.5768 18.247 13.5768H20.3268C20.4824 13.5768 20.608 13.7029 20.608 13.858ZM2.28648 13.858C2.28648 13.7029 2.41258 13.5768 2.56773 13.5768H4.64758C4.80273 13.5768 4.92883 13.7029 4.92883 13.858C4.92883 14.0132 4.80273 14.1393 4.64758 14.1393H2.56773C2.41211 14.1393 2.28648 14.0137 2.28648 13.858ZM9.3168 13.334C8.86539 13.334 8.49836 13.701 8.49836 14.1524C8.49836 14.6038 8.86539 14.9709 9.3168 14.9709C9.7682 14.9709 10.1352 14.6038 10.1352 14.1524C10.1352 13.701 9.7682 13.334 9.3168 13.334ZM9.3168 14.4088C9.1757 14.4088 9.06086 14.294 9.06086 14.1529C9.06086 14.0118 9.1757 13.897 9.3168 13.897C9.45789 13.897 9.57273 14.0118 9.57273 14.1529C9.57273 14.294 9.45836 14.4088 9.3168 14.4088ZM13.5777 13.334C13.1263 13.334 12.7593 13.701 12.7593 14.1524C12.7593 14.6038 13.1263 14.9709 13.5777 14.9709C14.0291 14.9709 14.3962 14.6038 14.3962 14.1524C14.3962 13.701 14.0287 13.334 13.5777 13.334ZM13.5777 14.4088C13.4366 14.4088 13.3218 14.294 13.3218 14.1529C13.3218 14.0118 13.4366 13.897 13.5777 13.897C13.7188 13.897 13.8337 14.0118 13.8337 14.1529C13.8337 14.294 13.7188 14.4088 13.5777 14.4088ZM5.90383 18.3243V19.7512C5.90383 19.9063 5.77773 20.0324 5.62258 20.0324C5.46742 20.0324 5.34133 19.9063 5.34133 19.7512V18.3243C5.34133 18.1691 5.46742 18.043 5.62258 18.043C5.77773 18.043 5.90383 18.1691 5.90383 18.3243ZM17.5532 18.3243V19.7512C17.5532 19.9063 17.4271 20.0324 17.272 20.0324C17.1168 20.0324 16.9907 19.9063 16.9907 19.7512V18.3243C16.9907 18.1691 17.1168 18.043 17.272 18.043C17.4271 18.043 17.5532 18.1691 17.5532 18.3243ZM16.5173 6.33648C16.5173 6.49164 16.6434 6.61773 16.7985 6.61773H17.4941V7.71555C17.1407 7.83367 16.8848 8.16695 16.8848 8.55976C16.8848 9.05055 17.2841 9.45039 17.7754 9.45039C17.9952 9.45039 18.2001 9.3707 18.3576 9.23477C18.5137 9.36883 18.7157 9.45039 18.937 9.45039C19.1568 9.45039 19.3616 9.3707 19.5191 9.23477C19.6752 9.36883 19.8773 9.45039 20.0985 9.45039C20.5893 9.45039 20.9891 9.05101 20.9891 8.55976C20.9891 8.16695 20.7332 7.83367 20.3798 7.71555V6.61773H21.0754C21.2305 6.61773 21.3566 6.49164 21.3566 6.33648C21.3566 6.18133 21.2305 6.05523 21.0754 6.05523H16.799C16.762 6.05517 16.7254 6.0624 16.6912 6.07651C16.657 6.09061 16.626 6.11132 16.5998 6.13744C16.5736 6.16357 16.5529 6.19459 16.5387 6.22875C16.5246 6.2629 16.5173 6.29951 16.5173 6.33648ZM18.6552 7.71555C18.5446 7.75258 18.4438 7.8107 18.3571 7.88477C18.2688 7.80886 18.1666 7.7509 18.0562 7.71414V6.61773H18.6552V7.71555ZM17.7754 8.88789C17.5945 8.88789 17.4473 8.7407 17.4473 8.55976C17.4473 8.37883 17.5945 8.23164 17.7754 8.23164C17.8968 8.23164 18.0046 8.29773 18.0613 8.40039C18.052 8.45195 18.0463 8.50539 18.0463 8.55976C18.0463 8.61414 18.052 8.66711 18.0613 8.71914C18.0331 8.77029 17.9917 8.81293 17.9414 8.84261C17.8911 8.87229 17.8338 8.88793 17.7754 8.88789ZM18.9365 8.88789C18.7555 8.88789 18.6084 8.7407 18.6084 8.55976C18.6084 8.37883 18.7555 8.23164 18.9365 8.23164C19.0579 8.23164 19.1657 8.29773 19.2224 8.40039C19.213 8.45195 19.2074 8.50539 19.2074 8.55976C19.2074 8.61414 19.213 8.66711 19.2224 8.71914C19.1943 8.77033 19.1529 8.813 19.1026 8.84269C19.0523 8.87238 18.9949 8.88799 18.9365 8.88789ZM20.098 8.88789C19.9171 8.88789 19.7699 8.7407 19.7699 8.55976C19.7699 8.37883 19.9171 8.23164 20.098 8.23164C20.279 8.23164 20.4262 8.37883 20.4262 8.55976C20.4262 8.7407 20.279 8.88789 20.098 8.88789ZM19.8168 7.71555C19.7062 7.75258 19.6054 7.8107 19.5187 7.88477C19.4304 7.80886 19.3282 7.7509 19.2177 7.71414V6.61773H19.8168V7.71555Z" fill="#D13A3F"/>
<path d="M2.57289 4.43336H7.3893C7.54445 4.43336 7.67055 4.30727 7.67055 4.15211V0.554453C7.67055 0.399297 7.54445 0.273203 7.3893 0.273203H2.57289C2.41773 0.273203 2.29164 0.399297 2.29164 0.554453V4.15211C2.29164 4.30773 2.41773 4.43336 2.57289 4.43336ZM2.85414 0.835703H7.10805V3.87086H2.85414V0.835703ZM8.02352 6.61727H14.8705C14.9774 6.61727 15.0749 6.5568 15.1223 6.46117C15.1696 6.36555 15.1593 6.25117 15.0946 6.16633L13.177 3.63227C13.1508 3.59759 13.1169 3.56946 13.0781 3.5501C13.0392 3.53074 12.9963 3.52067 12.9529 3.5207H12.8948V0.431641C12.8948 0.276484 12.7687 0.150391 12.6135 0.150391H10.2801C10.1249 0.150391 9.99883 0.276484 9.99883 0.431641V3.5207H9.9407C9.85258 3.5207 9.76961 3.56195 9.71664 3.63227L7.79898 6.16633C7.76748 6.20807 7.74821 6.25776 7.74332 6.30983C7.73844 6.3619 7.74814 6.4143 7.77133 6.46117C7.79471 6.50805 7.8307 6.54749 7.87524 6.57506C7.91978 6.60263 7.97113 6.61724 8.02352 6.61727ZM10.5618 0.712891H12.3327V3.5207H10.5618V0.712891ZM10.0809 4.0832H12.8132L14.3052 6.05477H8.5893L10.0809 4.0832ZM5.87148 2.94555C5.87148 3.1007 5.74539 3.2268 5.59023 3.2268H4.37148C4.21633 3.2268 4.09023 3.1007 4.09023 2.94555C4.09023 2.79039 4.21633 2.6643 4.37148 2.6643H5.59023C5.74539 2.6643 5.87148 2.79039 5.87148 2.94555ZM11.1107 5.06898C11.1107 5.22414 10.9846 5.35023 10.8295 5.35023H10.8173C10.6621 5.35023 10.536 5.22414 10.536 5.06898C10.536 4.91383 10.6621 4.78773 10.8173 4.78773H10.8295C10.9846 4.78773 11.1107 4.91336 11.1107 5.06898ZM12.3585 5.06898C12.3585 5.22414 12.2324 5.35023 12.0773 5.35023H12.0651C11.9099 5.35023 11.7838 5.22414 11.7838 5.06898C11.7838 4.91383 11.9099 4.78773 12.0651 4.78773H12.0773C12.2329 4.78773 12.3585 4.91336 12.3585 5.06898ZM15.5057 4.43336H20.3221C20.4773 4.43336 20.6034 4.30727 20.6034 4.15211V0.554453C20.6034 0.399297 20.4773 0.273203 20.3221 0.273203H15.5057C15.3505 0.273203 15.2245 0.399297 15.2245 0.554453V4.15211C15.2245 4.30773 15.3501 4.43336 15.5057 4.43336ZM15.787 0.835703H20.0409V3.87086H15.787V0.835703ZM18.8043 2.94555C18.8043 3.1007 18.6782 3.2268 18.523 3.2268H17.3043C17.1491 3.2268 17.023 3.1007 17.023 2.94555C17.023 2.79039 17.1491 2.6643 17.3043 2.6643H18.523C18.6782 2.6643 18.8043 2.79039 18.8043 2.94555ZM22.4629 11.1655H14.7266V10.9218C14.7266 10.5079 14.3901 10.1713 13.9766 10.1713H13.1662C13.011 10.1713 12.8849 10.2974 12.8849 10.4526C12.8849 10.6077 13.011 10.7338 13.1662 10.7338H13.9766C14.0784 10.7338 14.1641 10.8196 14.1641 10.9218V11.1655H11.7285V10.453C11.7285 10.2979 11.6024 10.1718 11.4473 10.1718C11.2921 10.1718 11.166 10.2979 11.166 10.453V11.1655H8.73039V10.9218C8.73039 10.8201 8.81617 10.7338 8.91836 10.7338H9.72883C9.88398 10.7338 10.0101 10.6077 10.0101 10.4526C10.0101 10.2974 9.88398 10.1713 9.72883 10.1713H8.91836C8.50445 10.1713 8.16789 10.5079 8.16789 10.9218V11.1655H3.01773V8.6507C3.01773 8.20539 3.38008 7.84305 3.82539 7.84305C4.2707 7.84305 4.63305 8.20539 4.63305 8.6507V9.22586C4.63305 9.38102 4.75914 9.50711 4.9143 9.50711C5.06945 9.50711 5.19555 9.38102 5.19555 9.22586V8.6507C5.19555 7.89508 4.58102 7.28055 3.82539 7.28055C3.06977 7.28055 2.45523 7.89508 2.45523 8.6507V9.90648H1.81961C1.66445 9.90648 1.53836 10.0326 1.53836 10.1877C1.53836 10.3429 1.66445 10.469 1.81961 10.469H2.45523V11.166H0.431641C0.276484 11.166 0.150391 11.2921 0.150391 11.4473V21.9449C0.150391 22.386 0.508984 22.7446 0.950078 22.7446H21.9445C22.3855 22.7446 22.7441 22.386 22.7441 21.9449V11.4468C22.7441 11.2912 22.618 11.1655 22.4629 11.1655ZM22.1816 11.728V12.412H0.712891V11.728H22.1816ZM7.06492 15.3313V12.9745H15.8301V15.3313H7.06492ZM15.8301 15.8938V22.1816H7.06492V15.8938H15.8301ZM6.50242 15.3313H0.712891V12.9745H6.50242V15.3313ZM16.3926 12.974H22.1816V15.3309H16.3926V12.974ZM0.712891 21.9445V15.8938H6.50242V22.1816H0.950078C0.819297 22.1816 0.712891 22.0752 0.712891 21.9445ZM21.9445 22.1816H16.3926V15.8938H22.1816V21.9445C22.1816 22.0752 22.0752 22.1816 21.9445 22.1816ZM7.94102 21.4626H14.9535C15.1087 21.4626 15.2348 21.3365 15.2348 21.1813V16.8937C15.2348 16.7385 15.1087 16.6124 14.9535 16.6124H7.94102C7.78586 16.6124 7.65977 16.7385 7.65977 16.8937V21.1813C7.65977 21.337 7.78586 21.4626 7.94102 21.4626ZM8.22227 17.1749H14.6723V20.9001H8.22227V17.1749ZM20.608 13.858C20.608 14.0132 20.482 14.1393 20.3268 14.1393H18.247C18.0918 14.1393 17.9657 14.0132 17.9657 13.858C17.9657 13.7029 18.0918 13.5768 18.247 13.5768H20.3268C20.4824 13.5768 20.608 13.7029 20.608 13.858ZM2.28648 13.858C2.28648 13.7029 2.41258 13.5768 2.56773 13.5768H4.64758C4.80273 13.5768 4.92883 13.7029 4.92883 13.858C4.92883 14.0132 4.80273 14.1393 4.64758 14.1393H2.56773C2.41211 14.1393 2.28648 14.0137 2.28648 13.858ZM9.3168 13.334C8.86539 13.334 8.49836 13.701 8.49836 14.1524C8.49836 14.6038 8.86539 14.9709 9.3168 14.9709C9.7682 14.9709 10.1352 14.6038 10.1352 14.1524C10.1352 13.701 9.7682 13.334 9.3168 13.334ZM9.3168 14.4088C9.1757 14.4088 9.06086 14.294 9.06086 14.1529C9.06086 14.0118 9.1757 13.897 9.3168 13.897C9.45789 13.897 9.57273 14.0118 9.57273 14.1529C9.57273 14.294 9.45836 14.4088 9.3168 14.4088ZM13.5777 13.334C13.1263 13.334 12.7593 13.701 12.7593 14.1524C12.7593 14.6038 13.1263 14.9709 13.5777 14.9709C14.0291 14.9709 14.3962 14.6038 14.3962 14.1524C14.3962 13.701 14.0287 13.334 13.5777 13.334ZM13.5777 14.4088C13.4366 14.4088 13.3218 14.294 13.3218 14.1529C13.3218 14.0118 13.4366 13.897 13.5777 13.897C13.7188 13.897 13.8337 14.0118 13.8337 14.1529C13.8337 14.294 13.7188 14.4088 13.5777 14.4088ZM5.90383 18.3243V19.7512C5.90383 19.9063 5.77773 20.0324 5.62258 20.0324C5.46742 20.0324 5.34133 19.9063 5.34133 19.7512V18.3243C5.34133 18.1691 5.46742 18.043 5.62258 18.043C5.77773 18.043 5.90383 18.1691 5.90383 18.3243ZM17.5532 18.3243V19.7512C17.5532 19.9063 17.4271 20.0324 17.272 20.0324C17.1168 20.0324 16.9907 19.9063 16.9907 19.7512V18.3243C16.9907 18.1691 17.1168 18.043 17.272 18.043C17.4271 18.043 17.5532 18.1691 17.5532 18.3243ZM16.5173 6.33648C16.5173 6.49164 16.6434 6.61773 16.7985 6.61773H17.4941V7.71555C17.1407 7.83367 16.8848 8.16695 16.8848 8.55976C16.8848 9.05055 17.2841 9.45039 17.7754 9.45039C17.9952 9.45039 18.2001 9.3707 18.3576 9.23477C18.5137 9.36883 18.7157 9.45039 18.937 9.45039C19.1568 9.45039 19.3616 9.3707 19.5191 9.23477C19.6752 9.36883 19.8773 9.45039 20.0985 9.45039C20.5893 9.45039 20.9891 9.05101 20.9891 8.55976C20.9891 8.16695 20.7332 7.83367 20.3798 7.71555V6.61773H21.0754C21.2305 6.61773 21.3566 6.49164 21.3566 6.33648C21.3566 6.18133 21.2305 6.05523 21.0754 6.05523H16.799C16.762 6.05517 16.7254 6.0624 16.6912 6.07651C16.657 6.09061 16.626 6.11132 16.5998 6.13744C16.5736 6.16357 16.5529 6.19459 16.5387 6.22875C16.5246 6.2629 16.5173 6.29951 16.5173 6.33648ZM18.6552 7.71555C18.5446 7.75258 18.4438 7.8107 18.3571 7.88477C18.2688 7.80886 18.1666 7.7509 18.0562 7.71414V6.61773H18.6552V7.71555ZM17.7754 8.88789C17.5945 8.88789 17.4473 8.7407 17.4473 8.55976C17.4473 8.37883 17.5945 8.23164 17.7754 8.23164C17.8968 8.23164 18.0046 8.29773 18.0613 8.40039C18.052 8.45195 18.0463 8.50539 18.0463 8.55976C18.0463 8.61414 18.052 8.66711 18.0613 8.71914C18.0331 8.77029 17.9917 8.81293 17.9414 8.84261C17.8911 8.87229 17.8338 8.88793 17.7754 8.88789ZM18.9365 8.88789C18.7555 8.88789 18.6084 8.7407 18.6084 8.55976C18.6084 8.37883 18.7555 8.23164 18.9365 8.23164C19.0579 8.23164 19.1657 8.29773 19.2224 8.40039C19.213 8.45195 19.2074 8.50539 19.2074 8.55976C19.2074 8.61414 19.213 8.66711 19.2224 8.71914C19.1943 8.77033 19.1529 8.813 19.1026 8.84269C19.0523 8.87238 18.9949 8.88799 18.9365 8.88789ZM20.098 8.88789C19.9171 8.88789 19.7699 8.7407 19.7699 8.55976C19.7699 8.37883 19.9171 8.23164 20.098 8.23164C20.279 8.23164 20.4262 8.37883 20.4262 8.55976C20.4262 8.7407 20.279 8.88789 20.098 8.88789ZM19.8168 7.71555C19.7062 7.75258 19.6054 7.8107 19.5187 7.88477C19.4304 7.80886 19.3282 7.7509 19.2177 7.71414V6.61773H19.8168V7.71555Z" stroke="#D13A3F" stroke-width="0.3" mask="url(#path-1-outside-1_806_2903)"/>
</svg>
