<svg width="24" height="24" viewBox="0 0 24 24" fill="none" xmlns="http://www.w3.org/2000/svg">
<path d="M20.88 2.88H11.52V1.44C11.52 0.64584 10.8742 0 10.08 0H4.32C3.52584 0 2.88 0.64584 2.88 1.44V2.88H2.16C0.96888 2.88 0 3.84888 0 5.04V18C0 19.1911 0.96888 20.16 2.16 20.16C2.16 21.7481 3.45192 23.04 5.04 23.04C6.62808 23.04 7.92 21.7481 7.92 20.16H20.88C22.0711 20.16 23.04 19.1911 23.04 18V5.04C23.04 3.84888 22.0711 2.88 20.88 2.88ZM4.32 1.44H10.08L10.081 15.84H4.32V1.44ZM1.44 18V5.04C1.44 4.64304 1.76304 4.32 2.16 4.32H2.88V15.84C2.88 16.6342 3.52584 17.28 4.32 17.28H6.48V18.72H2.16C1.76304 18.72 1.44 18.397 1.44 18ZM5.04 21.6C4.24584 21.6 3.6 20.9542 3.6 20.16H6.48C6.48 20.9542 5.83416 21.6 5.04 21.6ZM21.6 18C21.6 18.397 21.277 18.72 20.88 18.72H7.92V17.28H10.08C10.8742 17.28 11.52 16.6342 11.52 15.84V4.32H20.88C21.277 4.32 21.6 4.64304 21.6 5.04V18ZM18.72 6.48H14.4C13.6058 6.48 12.96 7.12584 12.96 7.92V10.08C12.96 10.8742 13.6058 11.52 14.4 11.52H18.72C19.5142 11.52 20.16 10.8742 20.16 10.08V7.92C20.16 7.12584 19.5142 6.48 18.72 6.48ZM14.4 10.08V7.92H18.72L18.721 10.08H14.4ZM15.12 13.68C15.12 13.871 15.0441 14.0541 14.9091 14.1891C14.7741 14.3241 14.591 14.4 14.4 14.4C14.209 14.4 14.0259 14.3241 13.8909 14.1891C13.7559 14.0541 13.68 13.871 13.68 13.68C13.68 13.489 13.7559 13.3059 13.8909 13.1709C14.0259 13.0359 14.209 12.96 14.4 12.96C14.591 12.96 14.7741 13.0359 14.9091 13.1709C15.0441 13.3059 15.12 13.489 15.12 13.68ZM17.28 13.68C17.28 13.871 17.2041 14.0541 17.0691 14.1891C16.9341 14.3241 16.751 14.4 16.56 14.4C16.369 14.4 16.1859 14.3241 16.0509 14.1891C15.9159 14.0541 15.84 13.871 15.84 13.68C15.84 13.489 15.9159 13.3059 16.0509 13.1709C16.1859 13.0359 16.369 12.96 16.56 12.96C16.751 12.96 16.9341 13.0359 17.0691 13.1709C17.2041 13.3059 17.28 13.489 17.28 13.68ZM19.44 13.68C19.44 13.871 19.3641 14.0541 19.2291 14.1891C19.0941 14.3241 18.911 14.4 18.72 14.4C18.529 14.4 18.3459 14.3241 18.2109 14.1891C18.0759 14.0541 18 13.871 18 13.68C18 13.489 18.0759 13.3059 18.2109 13.1709C18.3459 13.0359 18.529 12.96 18.72 12.96C18.911 12.96 19.0941 13.0359 19.2291 13.1709C19.3641 13.3059 19.44 13.489 19.44 13.68ZM15.12 15.84C15.12 16.031 15.0441 16.2141 14.9091 16.3491C14.7741 16.4841 14.591 16.56 14.4 16.56C14.209 16.56 14.0259 16.4841 13.8909 16.3491C13.7559 16.2141 13.68 16.031 13.68 15.84C13.68 15.649 13.7559 15.4659 13.8909 15.3309C14.0259 15.1959 14.209 15.12 14.4 15.12C14.591 15.12 14.7741 15.1959 14.9091 15.3309C15.0441 15.4659 15.12 15.649 15.12 15.84ZM17.28 15.84C17.28 16.031 17.2041 16.2141 17.0691 16.3491C16.9341 16.4841 16.751 16.56 16.56 16.56C16.369 16.56 16.1859 16.4841 16.0509 16.3491C15.9159 16.2141 15.84 16.031 15.84 15.84C15.84 15.649 15.9159 15.4659 16.0509 15.3309C16.1859 15.1959 16.369 15.12 16.56 15.12C16.751 15.12 16.9341 15.1959 17.0691 15.3309C17.2041 15.4659 17.28 15.649 17.28 15.84ZM19.44 15.84C19.44 16.031 19.3641 16.2141 19.2291 16.3491C19.0941 16.4841 18.911 16.56 18.72 16.56C18.529 16.56 18.3459 16.4841 18.2109 16.3491C18.0759 16.2141 18 16.031 18 15.84C18 15.649 18.0759 15.4659 18.2109 15.3309C18.3459 15.1959 18.529 15.12 18.72 15.12C18.911 15.12 19.0941 15.1959 19.2291 15.3309C19.3641 15.4659 19.44 15.649 19.44 15.84Z" fill="#D13A3F"/>
</svg>
