<svg width="24" height="23" viewBox="0 0 24 23" fill="none" xmlns="http://www.w3.org/2000/svg">
<path d="M5.11155 6.15724C5.49924 7.50836 6.62979 8.41107 7.84928 8.41107C9.42936 8.41107 10.637 6.94084 10.4875 5.16897L10.3168 3.14666C10.2301 2.11901 9.73734 1.19114 8.96487 0.600968C7.61253 -0.432255 5.80669 -0.100656 4.90999 1.34639C4.39793 2.17268 4.26736 3.21514 4.55182 4.2065L5.11155 6.15724ZM6.22627 2.16213C6.99734 0.917952 8.64063 1.70112 8.77361 3.27684L8.94425 5.29915C9.00949 6.0724 8.61091 6.73787 8.01706 6.847C7.42331 6.95618 6.81407 6.47601 6.60002 5.73006L6.04024 3.77928C5.87856 3.21563 5.9481 2.61103 6.22627 2.16213ZM14.5016 8.41102C15.721 8.41102 16.8518 7.50822 17.2394 6.15719L17.7991 4.20646C18.0836 3.21519 17.9531 2.17272 17.441 1.34639C16.5446 -0.100221 14.7389 -0.432594 13.3861 0.600871C12.6137 1.19104 12.1209 2.11891 12.0341 3.14662L11.8635 5.16888C11.7135 6.94689 12.9268 8.41102 14.5016 8.41102ZM13.4067 5.29915L13.5773 3.27689C13.7119 1.68137 15.3639 0.934454 16.1246 2.16217C16.4029 2.61113 16.4724 3.21567 16.3106 3.77937L15.7508 5.73016C15.5368 6.47606 14.9278 6.95623 14.3338 6.84705C13.74 6.73787 13.3414 6.0724 13.4067 5.29915ZM4.76999 8.19378L4.09629 7.17018C3.34719 6.03194 1.80277 5.72667 0.776471 6.57009C-0.248477 7.41249 -0.250655 8.98662 0.722124 9.94324L1.59584 10.8024C2.38539 11.5788 3.59487 11.6595 4.4092 10.9902C5.22364 10.321 5.37874 9.11874 4.76999 8.19378ZM3.42597 9.79384C3.22504 9.95906 2.9051 9.91788 2.68171 9.69831L1.808 8.83916C1.63359 8.66765 1.53941 8.43826 1.54957 8.20989C1.57914 7.54756 2.41458 7.43195 2.8027 8.02164L3.47635 9.04523C3.64859 9.30685 3.62691 9.62867 3.42597 9.79384ZM17.9417 10.9903C18.7564 11.6599 19.9659 11.5785 20.7551 10.8025L21.6288 9.94328C23.1918 8.40623 22.0418 5.78775 19.8835 6.11504C19.2239 6.21497 18.6302 6.59961 18.2546 7.17023L17.581 8.19378C16.9722 9.11874 17.1273 10.321 17.9417 10.9903ZM18.8746 9.04518L19.5483 8.02159C19.7128 7.77158 19.974 7.6384 20.2189 7.6384C20.819 7.6384 21.0062 8.38358 20.5429 8.83912L19.6692 9.69831C19.4459 9.91793 19.126 9.95901 18.925 9.79389C18.7241 9.62867 18.7024 9.30685 18.8746 9.04518Z" fill="#D13A3F"/>
<path d="M17.6291 12.3494C16.2317 10.24 13.8368 8.87793 11.1748 8.87793C6.9023 8.87793 3.43164 12.3599 3.43164 16.6334C3.43164 19.1222 5.47278 20.9304 7.70347 20.9304C9.52136 20.9304 10.3806 19.6978 12.3007 20.3658C13.2844 20.708 13.9086 20.9907 14.9472 20.9153C15.8996 21.9631 17.2727 22.6219 18.7968 22.6219C21.6654 22.6219 23.9993 20.2881 23.9993 17.4195C23.9993 14.0915 20.8946 11.5976 17.6291 12.3494ZM9.54004 18.9032L8.61469 19.2251C6.83648 19.8435 4.98026 18.5252 4.98026 16.6334C4.98026 13.2148 7.75535 10.4266 11.1748 10.4266C13.1379 10.4266 14.9857 11.3612 16.1539 12.9403C13.9492 14.2461 13.0329 16.9348 13.9418 19.2882C13.1165 19.0689 11.6101 18.1787 9.54004 18.9032ZM18.7969 21.0733C16.7822 21.0733 15.1431 19.4343 15.1431 17.4196C15.1431 15.4048 16.7822 13.7658 18.7969 13.7658C20.8116 13.7658 22.4507 15.4048 22.4507 17.4196C22.4507 19.4343 20.8116 21.0733 18.7969 21.0733Z" fill="#D13A3F"/>
<path d="M19.8468 16.0012L18.2407 17.6072L17.8687 17.2353C17.5663 16.9329 17.0761 16.9329 16.7737 17.2353C16.4713 17.5377 16.4713 18.0279 16.7737 18.3303L17.6932 19.2498C17.9956 19.5522 18.4858 19.5522 18.7882 19.2498L20.9418 17.0963C21.2442 16.7938 21.2442 16.3036 20.9418 16.0012C20.6394 15.6988 20.1492 15.6988 19.8468 16.0012Z" fill="#D13A3F"/>
</svg>
