<svg width="21" height="19" viewBox="0 0 21 19" fill="none" xmlns="http://www.w3.org/2000/svg">
<mask id="path-1-outside-1_806_2779" maskUnits="userSpaceOnUse" x="-0.849609" y="-0.849609" width="22" height="20" fill="black">
<rect fill="white" x="-0.849609" y="-0.849609" width="22" height="20"/>
<path d="M20.1365 17.0961L17.9159 4.22579C17.879 4.01362 17.7647 3.82094 17.5935 3.68214C17.4223 3.54333 17.2053 3.46743 16.9812 3.46796H16.1144V2.3384C16.1144 1.13174 15.09 0.150391 13.8303 0.150391C13.4314 0.150711 13.0395 0.251372 12.6938 0.442346C12.348 0.63332 12.0604 0.90794 11.8597 1.23884C11.6587 0.907953 11.371 0.63336 11.0251 0.442396C10.6793 0.251432 10.2874 0.150756 9.8884 0.150391C8.62902 0.150391 7.60433 1.13174 7.60433 2.3384V3.46766H3.32089C3.09651 3.46675 2.87914 3.54267 2.70783 3.68179C2.53652 3.82091 2.42248 4.01411 2.3862 4.22669L0.164319 17.0943C0.140568 17.2246 0.147255 17.3583 0.183897 17.4858C0.220539 17.6133 0.28622 17.7313 0.376195 17.8315C0.46465 17.9316 0.574781 18.012 0.698914 18.0671C0.823047 18.1222 0.958197 18.1506 1.09495 18.1504H19.2053C19.3417 18.1506 19.4766 18.1223 19.6006 18.0676C19.7245 18.0129 19.8347 17.9331 19.9234 17.8336C20.0137 17.7336 20.0797 17.6156 20.1166 17.4881C20.1534 17.3606 20.1603 17.2265 20.1365 17.0961ZM13.8303 0.750421C14.7447 0.750421 15.489 1.46266 15.489 2.3384V3.46796H14.9981V2.3384C14.991 2.0457 14.865 1.76727 14.6469 1.56265C14.4287 1.35803 14.1359 1.24348 13.8309 1.24348C13.5259 1.24348 13.2331 1.35803 13.015 1.56265C12.7968 1.76727 12.6708 2.0457 12.6637 2.3384V8.4491C12.6605 8.50959 12.6333 8.56659 12.5876 8.60832C12.5418 8.65005 12.4812 8.67332 12.4181 8.67332C12.355 8.67332 12.2943 8.65005 12.2486 8.60832C12.2029 8.56659 12.1756 8.50959 12.1725 8.4491V2.3384C12.1725 1.46266 12.9165 0.750421 13.8303 0.750421ZM13.2884 3.46796V2.3384C13.2932 2.20341 13.3524 2.07547 13.4536 1.9816C13.5547 1.88772 13.6899 1.83525 13.8306 1.83525C13.9713 1.83525 14.1065 1.88772 14.2076 1.9816C14.3088 2.07547 14.368 2.20341 14.3728 2.3384V3.46766H13.2884V3.46796ZM8.47496 9.28465C8.70557 9.28457 8.92673 9.19669 9.08994 9.04028C9.25316 8.88387 9.34509 8.6717 9.34559 8.4503V7.70417H11.5475V8.4488C11.5475 8.90963 11.9378 9.28435 12.4178 9.28435C12.8978 9.28435 13.2884 8.90963 13.2884 8.4488V5.28065H16.18L18.0906 16.3383H2.20995L4.12183 5.28065H7.60433V8.4503C7.60483 8.6717 7.69677 8.88387 7.85998 9.04028C8.02319 9.19669 8.24435 9.28457 8.47496 9.28465ZM11.5475 5.89208H9.34559V5.28065H11.5475V5.89208ZM9.34559 6.49211H11.5475V7.10474H9.34559V6.49211ZM11.5475 4.68062H9.34559V4.06799H11.5475V4.68062ZM10.43 3.46796H9.34559V2.3384C9.35036 2.20341 9.40958 2.07547 9.51074 1.9816C9.61189 1.88772 9.74708 1.83525 9.88778 1.83525C10.0285 1.83525 10.1637 1.88772 10.2648 1.9816C10.366 2.07547 10.4252 2.20341 10.43 2.3384V3.46796ZM8.22934 2.3384C8.22934 1.46266 8.9734 0.750421 9.8884 0.750421C10.8034 0.750421 11.5475 1.46266 11.5475 2.3384V3.46796H11.055V2.3384C11.0451 2.04756 10.9177 1.77181 10.6999 1.56944C10.4821 1.36706 10.1909 1.25392 9.88778 1.25392C9.58467 1.25392 9.29343 1.36706 9.07562 1.56944C8.85782 1.77181 8.7305 2.04756 8.72059 2.3384V8.4503C8.72059 8.57931 8.61027 8.68462 8.47496 8.68462C8.41006 8.6847 8.34777 8.66008 8.30174 8.61617C8.2557 8.57225 8.22967 8.51261 8.22934 8.4503V2.3384ZM19.4497 17.4427C19.4196 17.4767 19.3822 17.5039 19.3399 17.5225C19.2977 17.541 19.2517 17.5504 19.2053 17.5501H1.09526C1.04888 17.5499 1.00308 17.5401 0.961013 17.5213C0.918942 17.5026 0.881588 17.4753 0.851508 17.4415C0.820929 17.4081 0.79863 17.3685 0.786288 17.3257C0.773947 17.2829 0.771885 17.2379 0.780258 17.1942L3.00245 4.3251C3.02839 4.17599 3.16214 4.06799 3.32089 4.06799H7.60433V4.68062H3.85683C3.7828 4.68058 3.71117 4.70577 3.65468 4.7517C3.5982 4.79763 3.56053 4.86132 3.54839 4.93143L1.53276 16.5891C1.52532 16.6321 1.52771 16.6761 1.53979 16.7181C1.55186 16.7601 1.57333 16.7991 1.60268 16.8323C1.63203 16.8656 1.66858 16.8923 1.70977 16.9106C1.75096 16.9289 1.79581 16.9384 1.8412 16.9383H18.4597C18.5051 16.9384 18.5499 16.929 18.5911 16.9107C18.6323 16.8924 18.6689 16.8657 18.6982 16.8324C18.7276 16.7992 18.749 16.7602 18.761 16.7182C18.773 16.6761 18.7753 16.6321 18.7678 16.5891L16.7534 4.93143C16.7413 4.86132 16.7036 4.79763 16.6471 4.7517C16.5906 4.70577 16.519 4.68058 16.445 4.68062H13.2887V4.06799H16.9809C17.139 4.06799 17.2731 4.17599 17.2994 4.3248L19.5206 17.1963C19.5289 17.2398 19.5268 17.2845 19.5146 17.3271C19.5024 17.3697 19.4803 17.4091 19.45 17.4424L19.4497 17.4427Z"/>
</mask>
<path d="M20.1365 17.0961L17.9159 4.22579C17.879 4.01362 17.7647 3.82094 17.5935 3.68214C17.4223 3.54333 17.2053 3.46743 16.9812 3.46796H16.1144V2.3384C16.1144 1.13174 15.09 0.150391 13.8303 0.150391C13.4314 0.150711 13.0395 0.251372 12.6938 0.442346C12.348 0.63332 12.0604 0.90794 11.8597 1.23884C11.6587 0.907953 11.371 0.63336 11.0251 0.442396C10.6793 0.251432 10.2874 0.150756 9.8884 0.150391C8.62902 0.150391 7.60433 1.13174 7.60433 2.3384V3.46766H3.32089C3.09651 3.46675 2.87914 3.54267 2.70783 3.68179C2.53652 3.82091 2.42248 4.01411 2.3862 4.22669L0.164319 17.0943C0.140568 17.2246 0.147255 17.3583 0.183897 17.4858C0.220539 17.6133 0.28622 17.7313 0.376195 17.8315C0.46465 17.9316 0.574781 18.012 0.698914 18.0671C0.823047 18.1222 0.958197 18.1506 1.09495 18.1504H19.2053C19.3417 18.1506 19.4766 18.1223 19.6006 18.0676C19.7245 18.0129 19.8347 17.9331 19.9234 17.8336C20.0137 17.7336 20.0797 17.6156 20.1166 17.4881C20.1534 17.3606 20.1603 17.2265 20.1365 17.0961ZM13.8303 0.750421C14.7447 0.750421 15.489 1.46266 15.489 2.3384V3.46796H14.9981V2.3384C14.991 2.0457 14.865 1.76727 14.6469 1.56265C14.4287 1.35803 14.1359 1.24348 13.8309 1.24348C13.5259 1.24348 13.2331 1.35803 13.015 1.56265C12.7968 1.76727 12.6708 2.0457 12.6637 2.3384V8.4491C12.6605 8.50959 12.6333 8.56659 12.5876 8.60832C12.5418 8.65005 12.4812 8.67332 12.4181 8.67332C12.355 8.67332 12.2943 8.65005 12.2486 8.60832C12.2029 8.56659 12.1756 8.50959 12.1725 8.4491V2.3384C12.1725 1.46266 12.9165 0.750421 13.8303 0.750421ZM13.2884 3.46796V2.3384C13.2932 2.20341 13.3524 2.07547 13.4536 1.9816C13.5547 1.88772 13.6899 1.83525 13.8306 1.83525C13.9713 1.83525 14.1065 1.88772 14.2076 1.9816C14.3088 2.07547 14.368 2.20341 14.3728 2.3384V3.46766H13.2884V3.46796ZM8.47496 9.28465C8.70557 9.28457 8.92673 9.19669 9.08994 9.04028C9.25316 8.88387 9.34509 8.6717 9.34559 8.4503V7.70417H11.5475V8.4488C11.5475 8.90963 11.9378 9.28435 12.4178 9.28435C12.8978 9.28435 13.2884 8.90963 13.2884 8.4488V5.28065H16.18L18.0906 16.3383H2.20995L4.12183 5.28065H7.60433V8.4503C7.60483 8.6717 7.69677 8.88387 7.85998 9.04028C8.02319 9.19669 8.24435 9.28457 8.47496 9.28465ZM11.5475 5.89208H9.34559V5.28065H11.5475V5.89208ZM9.34559 6.49211H11.5475V7.10474H9.34559V6.49211ZM11.5475 4.68062H9.34559V4.06799H11.5475V4.68062ZM10.43 3.46796H9.34559V2.3384C9.35036 2.20341 9.40958 2.07547 9.51074 1.9816C9.61189 1.88772 9.74708 1.83525 9.88778 1.83525C10.0285 1.83525 10.1637 1.88772 10.2648 1.9816C10.366 2.07547 10.4252 2.20341 10.43 2.3384V3.46796ZM8.22934 2.3384C8.22934 1.46266 8.9734 0.750421 9.8884 0.750421C10.8034 0.750421 11.5475 1.46266 11.5475 2.3384V3.46796H11.055V2.3384C11.0451 2.04756 10.9177 1.77181 10.6999 1.56944C10.4821 1.36706 10.1909 1.25392 9.88778 1.25392C9.58467 1.25392 9.29343 1.36706 9.07562 1.56944C8.85782 1.77181 8.7305 2.04756 8.72059 2.3384V8.4503C8.72059 8.57931 8.61027 8.68462 8.47496 8.68462C8.41006 8.6847 8.34777 8.66008 8.30174 8.61617C8.2557 8.57225 8.22967 8.51261 8.22934 8.4503V2.3384ZM19.4497 17.4427C19.4196 17.4767 19.3822 17.5039 19.3399 17.5225C19.2977 17.541 19.2517 17.5504 19.2053 17.5501H1.09526C1.04888 17.5499 1.00308 17.5401 0.961013 17.5213C0.918942 17.5026 0.881588 17.4753 0.851508 17.4415C0.820929 17.4081 0.79863 17.3685 0.786288 17.3257C0.773947 17.2829 0.771885 17.2379 0.780258 17.1942L3.00245 4.3251C3.02839 4.17599 3.16214 4.06799 3.32089 4.06799H7.60433V4.68062H3.85683C3.7828 4.68058 3.71117 4.70577 3.65468 4.7517C3.5982 4.79763 3.56053 4.86132 3.54839 4.93143L1.53276 16.5891C1.52532 16.6321 1.52771 16.6761 1.53979 16.7181C1.55186 16.7601 1.57333 16.7991 1.60268 16.8323C1.63203 16.8656 1.66858 16.8923 1.70977 16.9106C1.75096 16.9289 1.79581 16.9384 1.8412 16.9383H18.4597C18.5051 16.9384 18.5499 16.929 18.5911 16.9107C18.6323 16.8924 18.6689 16.8657 18.6982 16.8324C18.7276 16.7992 18.749 16.7602 18.761 16.7182C18.773 16.6761 18.7753 16.6321 18.7678 16.5891L16.7534 4.93143C16.7413 4.86132 16.7036 4.79763 16.6471 4.7517C16.5906 4.70577 16.519 4.68058 16.445 4.68062H13.2887V4.06799H16.9809C17.139 4.06799 17.2731 4.17599 17.2994 4.3248L19.5206 17.1963C19.5289 17.2398 19.5268 17.2845 19.5146 17.3271C19.5024 17.3697 19.4803 17.4091 19.45 17.4424L19.4497 17.4427Z" fill="#D13A3F"/>
<path d="M20.1365 17.0961L17.9159 4.22579C17.879 4.01362 17.7647 3.82094 17.5935 3.68214C17.4223 3.54333 17.2053 3.46743 16.9812 3.46796H16.1144V2.3384C16.1144 1.13174 15.09 0.150391 13.8303 0.150391C13.4314 0.150711 13.0395 0.251372 12.6938 0.442346C12.348 0.63332 12.0604 0.90794 11.8597 1.23884C11.6587 0.907953 11.371 0.63336 11.0251 0.442396C10.6793 0.251432 10.2874 0.150756 9.8884 0.150391C8.62902 0.150391 7.60433 1.13174 7.60433 2.3384V3.46766H3.32089C3.09651 3.46675 2.87914 3.54267 2.70783 3.68179C2.53652 3.82091 2.42248 4.01411 2.3862 4.22669L0.164319 17.0943C0.140568 17.2246 0.147255 17.3583 0.183897 17.4858C0.220539 17.6133 0.28622 17.7313 0.376195 17.8315C0.46465 17.9316 0.574781 18.012 0.698914 18.0671C0.823047 18.1222 0.958197 18.1506 1.09495 18.1504H19.2053C19.3417 18.1506 19.4766 18.1223 19.6006 18.0676C19.7245 18.0129 19.8347 17.9331 19.9234 17.8336C20.0137 17.7336 20.0797 17.6156 20.1166 17.4881C20.1534 17.3606 20.1603 17.2265 20.1365 17.0961ZM13.8303 0.750421C14.7447 0.750421 15.489 1.46266 15.489 2.3384V3.46796H14.9981V2.3384C14.991 2.0457 14.865 1.76727 14.6469 1.56265C14.4287 1.35803 14.1359 1.24348 13.8309 1.24348C13.5259 1.24348 13.2331 1.35803 13.015 1.56265C12.7968 1.76727 12.6708 2.0457 12.6637 2.3384V8.4491C12.6605 8.50959 12.6333 8.56659 12.5876 8.60832C12.5418 8.65005 12.4812 8.67332 12.4181 8.67332C12.355 8.67332 12.2943 8.65005 12.2486 8.60832C12.2029 8.56659 12.1756 8.50959 12.1725 8.4491V2.3384C12.1725 1.46266 12.9165 0.750421 13.8303 0.750421ZM13.2884 3.46796V2.3384C13.2932 2.20341 13.3524 2.07547 13.4536 1.9816C13.5547 1.88772 13.6899 1.83525 13.8306 1.83525C13.9713 1.83525 14.1065 1.88772 14.2076 1.9816C14.3088 2.07547 14.368 2.20341 14.3728 2.3384V3.46766H13.2884V3.46796ZM8.47496 9.28465C8.70557 9.28457 8.92673 9.19669 9.08994 9.04028C9.25316 8.88387 9.34509 8.6717 9.34559 8.4503V7.70417H11.5475V8.4488C11.5475 8.90963 11.9378 9.28435 12.4178 9.28435C12.8978 9.28435 13.2884 8.90963 13.2884 8.4488V5.28065H16.18L18.0906 16.3383H2.20995L4.12183 5.28065H7.60433V8.4503C7.60483 8.6717 7.69677 8.88387 7.85998 9.04028C8.02319 9.19669 8.24435 9.28457 8.47496 9.28465ZM11.5475 5.89208H9.34559V5.28065H11.5475V5.89208ZM9.34559 6.49211H11.5475V7.10474H9.34559V6.49211ZM11.5475 4.68062H9.34559V4.06799H11.5475V4.68062ZM10.43 3.46796H9.34559V2.3384C9.35036 2.20341 9.40958 2.07547 9.51074 1.9816C9.61189 1.88772 9.74708 1.83525 9.88778 1.83525C10.0285 1.83525 10.1637 1.88772 10.2648 1.9816C10.366 2.07547 10.4252 2.20341 10.43 2.3384V3.46796ZM8.22934 2.3384C8.22934 1.46266 8.9734 0.750421 9.8884 0.750421C10.8034 0.750421 11.5475 1.46266 11.5475 2.3384V3.46796H11.055V2.3384C11.0451 2.04756 10.9177 1.77181 10.6999 1.56944C10.4821 1.36706 10.1909 1.25392 9.88778 1.25392C9.58467 1.25392 9.29343 1.36706 9.07562 1.56944C8.85782 1.77181 8.7305 2.04756 8.72059 2.3384V8.4503C8.72059 8.57931 8.61027 8.68462 8.47496 8.68462C8.41006 8.6847 8.34777 8.66008 8.30174 8.61617C8.2557 8.57225 8.22967 8.51261 8.22934 8.4503V2.3384ZM19.4497 17.4427C19.4196 17.4767 19.3822 17.5039 19.3399 17.5225C19.2977 17.541 19.2517 17.5504 19.2053 17.5501H1.09526C1.04888 17.5499 1.00308 17.5401 0.961013 17.5213C0.918942 17.5026 0.881588 17.4753 0.851508 17.4415C0.820929 17.4081 0.79863 17.3685 0.786288 17.3257C0.773947 17.2829 0.771885 17.2379 0.780258 17.1942L3.00245 4.3251C3.02839 4.17599 3.16214 4.06799 3.32089 4.06799H7.60433V4.68062H3.85683C3.7828 4.68058 3.71117 4.70577 3.65468 4.7517C3.5982 4.79763 3.56053 4.86132 3.54839 4.93143L1.53276 16.5891C1.52532 16.6321 1.52771 16.6761 1.53979 16.7181C1.55186 16.7601 1.57333 16.7991 1.60268 16.8323C1.63203 16.8656 1.66858 16.8923 1.70977 16.9106C1.75096 16.9289 1.79581 16.9384 1.8412 16.9383H18.4597C18.5051 16.9384 18.5499 16.929 18.5911 16.9107C18.6323 16.8924 18.6689 16.8657 18.6982 16.8324C18.7276 16.7992 18.749 16.7602 18.761 16.7182C18.773 16.6761 18.7753 16.6321 18.7678 16.5891L16.7534 4.93143C16.7413 4.86132 16.7036 4.79763 16.6471 4.7517C16.5906 4.70577 16.519 4.68058 16.445 4.68062H13.2887V4.06799H16.9809C17.139 4.06799 17.2731 4.17599 17.2994 4.3248L19.5206 17.1963C19.5289 17.2398 19.5268 17.2845 19.5146 17.3271C19.5024 17.3697 19.4803 17.4091 19.45 17.4424L19.4497 17.4427Z" stroke="#D13A3F" stroke-width="0.3" mask="url(#path-1-outside-1_806_2779)"/>
<path d="M16.8242 13.6543C16.933 13.6543 17.0359 13.7022 17.1104 13.7842C17.1846 13.866 17.2256 13.976 17.2256 14.0889C17.2255 14.2016 17.1845 14.3108 17.1104 14.3926C17.0358 14.4747 16.933 14.5225 16.8242 14.5225C16.6811 14.5225 16.5814 14.5496 16.4961 14.5928C16.4083 14.6373 16.3312 14.6997 16.2344 14.7812L16.2354 14.7822C16.0079 14.974 15.71 15.2256 15.1543 15.2256C14.5985 15.2256 14.3007 14.974 14.0732 14.7822C13.9763 14.7007 13.9003 14.6373 13.8125 14.5928C13.7271 14.5495 13.6274 14.5225 13.4844 14.5225C13.3419 14.5225 13.2423 14.5495 13.1572 14.5928C13.1134 14.6151 13.0723 14.6422 13.0303 14.6738L12.8965 14.7822C12.6693 14.974 12.3711 15.2256 11.8154 15.2256C11.3988 15.2255 11.1273 15.0841 10.9219 14.9326L10.7354 14.7822C10.6382 14.7007 10.5622 14.6374 10.4746 14.5928C10.3896 14.5496 10.2906 14.5225 10.1484 14.5225C10.006 14.5225 9.9064 14.5495 9.82129 14.5928C9.73374 14.6373 9.65826 14.7008 9.56152 14.7822C9.33411 14.9739 9.03643 15.2255 8.48047 15.2256C7.92562 15.2256 7.62785 14.974 7.40039 14.7822C7.30349 14.7006 7.22734 14.6374 7.13965 14.5928C7.0545 14.5495 6.95517 14.5225 6.8125 14.5225C6.67006 14.5225 6.57045 14.5494 6.48535 14.5928C6.39787 14.6373 6.32224 14.7006 6.22559 14.7822C5.99821 14.9735 5.70052 15.2255 5.14453 15.2256C4.58969 15.2256 4.29186 14.9745 4.06445 14.7832C3.96745 14.7013 3.89146 14.6374 3.80371 14.5928C3.71858 14.5495 3.61924 14.5225 3.47656 14.5225C3.36775 14.5225 3.26494 14.4747 3.19043 14.3926C3.11628 14.3108 3.07525 14.2016 3.0752 14.0889C3.0752 13.976 3.11614 13.866 3.19043 13.7842C3.26493 13.7022 3.36781 13.6543 3.47656 13.6543C4.03225 13.6544 4.33018 13.9059 4.55762 14.0977C4.65442 14.1792 4.72986 14.2426 4.81738 14.2871C4.90244 14.3304 5.00192 14.3574 5.14453 14.3574C5.28728 14.3574 5.38654 14.3303 5.47168 14.2871C5.55935 14.2426 5.63554 14.1795 5.73242 14.0977C5.95951 13.9063 6.25731 13.6543 6.8125 13.6543C7.36817 13.6544 7.66622 13.9064 7.89355 14.0977C7.99034 14.1792 8.0658 14.2426 8.15332 14.2871C8.23837 14.3304 8.33787 14.3574 8.48047 14.3574C8.62321 14.3574 8.72248 14.3303 8.80762 14.2871C8.8953 14.2426 8.97146 14.1795 9.06836 14.0977C9.29546 13.9063 9.59358 13.6543 10.1484 13.6543C10.7031 13.6544 11.0002 13.9064 11.2275 14.0977C11.3245 14.1794 11.4006 14.2425 11.4883 14.2871C11.5734 14.3304 11.6728 14.3574 11.8154 14.3574C11.9585 14.3574 12.0583 14.3304 12.1436 14.2871C12.2313 14.2426 12.3074 14.1795 12.4043 14.0977L12.5908 13.9473C12.7963 13.7959 13.0681 13.6543 13.4844 13.6543C14.0401 13.6544 14.338 13.906 14.5654 14.0977L14.6992 14.2061C14.7413 14.2377 14.7822 14.2648 14.8262 14.2871C14.9116 14.3305 15.0117 14.3574 15.1543 14.3574L15.2539 14.3525C15.3459 14.343 15.4176 14.3195 15.4814 14.2871C15.5692 14.2426 15.6453 14.1791 15.7422 14.0977L15.9297 13.9473C16.1356 13.7957 16.4074 13.6543 16.8242 13.6543ZM15.5713 10.0752C15.6801 10.0752 15.7829 10.123 15.8574 10.2051C15.9317 10.2869 15.9727 10.3969 15.9727 10.5098C15.9726 10.6225 15.9316 10.7317 15.8574 10.8135C15.7829 10.8956 15.6801 10.9434 15.5713 10.9434C15.4245 10.9434 15.3208 10.9788 15.2295 11.0371C15.1348 11.0976 15.0518 11.1841 14.9463 11.2939C14.702 11.5494 14.379 11.8877 13.7627 11.8877C13.1473 11.8877 12.8251 11.5491 12.5811 11.2939C12.4755 11.1839 12.3917 11.0976 12.2969 11.0371C12.2055 10.9789 12.1013 10.9443 11.9541 10.9443C11.8078 10.9444 11.7043 10.979 11.6133 11.0371C11.5188 11.0975 11.4353 11.1841 11.3301 11.2939C11.0861 11.5493 10.7639 11.8876 10.1484 11.8877C9.53253 11.8877 9.21009 11.549 8.96582 11.2939C8.86091 11.184 8.77789 11.0975 8.68359 11.0371C8.59254 10.9789 8.48845 10.9444 8.3418 10.9443C8.19524 10.9443 8.09111 10.9789 8 11.0371C7.90565 11.0975 7.8229 11.1842 7.71777 11.2939C7.47378 11.5494 7.151 11.8877 6.53516 11.8877C5.92057 11.8876 5.59816 11.549 5.35449 11.2939C5.24926 11.184 5.16585 11.0975 5.07129 11.0371C4.98008 10.9789 4.87612 10.9443 4.72949 10.9443C4.62076 10.9443 4.51783 10.8965 4.44336 10.8145C4.36907 10.7326 4.3291 10.6227 4.3291 10.5098C4.32911 10.3969 4.36908 10.2869 4.44336 10.2051C4.51782 10.1231 4.62079 10.0762 4.72949 10.0762C5.34526 10.0762 5.66815 10.4143 5.91211 10.6689C6.01726 10.779 6.09993 10.8653 6.19434 10.9258C6.28537 10.9841 6.38882 11.0195 6.53516 11.0195C6.68218 11.0195 6.78657 10.9842 6.87793 10.9258C6.9726 10.8652 7.05577 10.779 7.16113 10.6689C7.40504 10.4143 7.72709 10.0753 8.3418 10.0752C8.95657 10.0752 9.27876 10.4138 9.52246 10.6689C9.62781 10.779 9.711 10.8653 9.80566 10.9258C9.897 10.9841 10.0014 11.0186 10.1484 11.0186C10.2952 11.0185 10.399 10.984 10.4902 10.9258C10.5849 10.8653 10.6682 10.7789 10.7734 10.6689C11.0174 10.4139 11.3394 10.0753 11.9541 10.0752C12.5702 10.0752 12.8934 10.4139 13.1377 10.6689C13.2431 10.7789 13.3263 10.8654 13.4209 10.9258C13.5122 10.9839 13.616 11.0186 13.7627 11.0186C13.9099 11.0186 14.014 10.984 14.1055 10.9258C14.2003 10.8653 14.2841 10.7782 14.3896 10.668C14.6339 10.4133 14.9562 10.0753 15.5713 10.0752Z" fill="#D13A3F" stroke="#D13A3F" stroke-width="0.15"/>
</svg>
