<svg width="22" height="23" viewBox="0 0 22 23" fill="none" xmlns="http://www.w3.org/2000/svg">
<mask id="path-1-outside-1_806_2752" maskUnits="userSpaceOnUse" x="-0.880859" y="-0.879883" width="23" height="24" fill="black">
<rect fill="white" x="-0.880859" y="-0.879883" width="23" height="24"/>
<path d="M7.99414 19.997H1.99414C1.69586 19.9967 1.40989 19.8781 1.19897 19.6672C0.98806 19.4562 0.869438 19.1703 0.869141 18.872V4.247C0.869438 3.94872 0.98806 3.66274 1.19897 3.45183C1.40989 3.24092 1.69586 3.12229 1.99414 3.122H3.49414V3.872C3.49444 4.17027 3.61306 4.45625 3.82397 4.66716C4.03489 4.87808 4.32086 4.9967 4.61914 4.997H10.6191C10.9174 4.9967 11.2034 4.87808 11.4143 4.66716C11.6252 4.45625 11.7438 4.17027 11.7441 3.872V3.122H13.2441C13.5424 3.12229 13.8284 3.24092 14.0393 3.45183C14.2502 3.66274 14.3688 3.94872 14.3691 4.247V9.497C14.3691 9.59645 14.4086 9.69184 14.479 9.76216C14.5493 9.83249 14.6447 9.872 14.7441 9.872C14.8436 9.872 14.939 9.83249 15.0093 9.76216C15.0796 9.69184 15.1191 9.59645 15.1191 9.497V4.247C15.1185 3.7499 14.9208 3.27333 14.5693 2.92183C14.2178 2.57033 13.7412 2.37259 13.2441 2.372H11.6751C11.5981 2.15325 11.4552 1.96373 11.2661 1.82944C11.0771 1.69515 10.8511 1.62269 10.6191 1.622H9.45664C9.37057 1.19814 9.14062 0.817069 8.80574 0.543355C8.47086 0.269642 8.05165 0.120117 7.61914 0.120117C7.18663 0.120117 6.76742 0.269642 6.43254 0.543355C6.09766 0.817069 5.86771 1.19814 5.78164 1.622H4.61914C4.38723 1.62269 4.16121 1.69515 3.97214 1.82944C3.78306 1.96373 3.64019 2.15325 3.56314 2.372H1.99414C1.49704 2.37259 1.02047 2.57033 0.668973 2.92183C0.317471 3.27333 0.119736 3.7499 0.119141 4.247V18.872C0.119736 19.3691 0.317471 19.8457 0.668973 20.1972C1.02047 20.5487 1.49704 20.7464 1.99414 20.747H7.99414C8.0936 20.747 8.18898 20.7075 8.25931 20.6372C8.32963 20.5668 8.36914 20.4715 8.36914 20.372C8.36914 20.2725 8.32963 20.1772 8.25931 20.1068C8.18898 20.0365 8.0936 19.997 7.99414 19.997ZM4.24414 2.747C4.24414 2.64754 4.28365 2.55216 4.35398 2.48183C4.4243 2.41151 4.51968 2.372 4.61914 2.372H6.11914C6.2186 2.372 6.31398 2.33249 6.38431 2.26216C6.45463 2.19184 6.49414 2.09645 6.49414 1.997C6.49414 1.69863 6.61267 1.41248 6.82365 1.2015C7.03462 0.990523 7.32077 0.871997 7.61914 0.871997C7.91751 0.871997 8.20366 0.990523 8.41464 1.2015C8.62561 1.41248 8.74414 1.69863 8.74414 1.997C8.74414 2.09645 8.78365 2.19184 8.85398 2.26216C8.9243 2.33249 9.01968 2.372 9.11914 2.372H10.6191C10.7186 2.372 10.814 2.41151 10.8843 2.48183C10.9546 2.55216 10.9941 2.64754 10.9941 2.747V3.872C10.9941 3.97145 10.9546 4.06684 10.8843 4.13716C10.814 4.20749 10.7186 4.247 10.6191 4.247H4.61914C4.51968 4.247 4.4243 4.20749 4.35398 4.13716C4.28365 4.06684 4.24414 3.97145 4.24414 3.872V2.747ZM5.36914 6.872C5.36914 6.77254 5.32963 6.67716 5.25931 6.60683C5.18898 6.53651 5.0936 6.497 4.99414 6.497H2.74414C2.64468 6.497 2.5493 6.53651 2.47898 6.60683C2.40865 6.67716 2.36914 6.77254 2.36914 6.872V9.122C2.36914 9.22145 2.40865 9.31684 2.47898 9.38716C2.5493 9.45749 2.64468 9.497 2.74414 9.497H4.99414C5.0936 9.497 5.18898 9.45749 5.25931 9.38716C5.32963 9.31684 5.36914 9.22145 5.36914 9.122V6.872ZM4.61914 8.747H3.11914V7.247H4.61914V8.747ZM5.36914 11.372C5.36914 11.2725 5.32963 11.1772 5.25931 11.1068C5.18898 11.0365 5.0936 10.997 4.99414 10.997H2.74414C2.64468 10.997 2.5493 11.0365 2.47898 11.1068C2.40865 11.1772 2.36914 11.2725 2.36914 11.372V13.622C2.36914 13.7215 2.40865 13.8168 2.47898 13.8872C2.5493 13.9575 2.64468 13.997 2.74414 13.997H4.99414C5.0936 13.997 5.18898 13.9575 5.25931 13.8872C5.32963 13.8168 5.36914 13.7215 5.36914 13.622V11.372ZM4.61914 13.247H3.11914V11.747H4.61914V13.247ZM4.99414 15.497H2.74414C2.64468 15.497 2.5493 15.5365 2.47898 15.6068C2.40865 15.6772 2.36914 15.7725 2.36914 15.872V18.122C2.36914 18.2215 2.40865 18.3168 2.47898 18.3872C2.5493 18.4575 2.64468 18.497 2.74414 18.497H4.99414C5.0936 18.497 5.18898 18.4575 5.25931 18.3872C5.32963 18.3168 5.36914 18.2215 5.36914 18.122V15.872C5.36914 15.7725 5.32963 15.6772 5.25931 15.6068C5.18898 15.5365 5.0936 15.497 4.99414 15.497ZM4.61914 17.747H3.11914V16.247H4.61914V17.747ZM12.8691 6.872C12.8691 6.97145 12.8296 7.06684 12.7593 7.13716C12.689 7.20749 12.5936 7.247 12.4941 7.247H6.86914C6.76968 7.247 6.6743 7.20749 6.60398 7.13716C6.53365 7.06684 6.49414 6.97145 6.49414 6.872C6.49414 6.77254 6.53365 6.67716 6.60398 6.60683C6.6743 6.53651 6.76968 6.497 6.86914 6.497H12.4941C12.5936 6.497 12.689 6.53651 12.7593 6.60683C12.8296 6.67716 12.8691 6.77254 12.8691 6.872ZM6.49414 9.122C6.49414 9.02254 6.53365 8.92716 6.60398 8.85683C6.6743 8.78651 6.76968 8.747 6.86914 8.747H10.2441C10.3436 8.747 10.439 8.78651 10.5093 8.85683C10.5796 8.92716 10.6191 9.02254 10.6191 9.122C10.6191 9.22145 10.5796 9.31684 10.5093 9.38716C10.439 9.45749 10.3436 9.497 10.2441 9.497H6.86914C6.76968 9.497 6.6743 9.45749 6.60398 9.38716C6.53365 9.31684 6.49414 9.22145 6.49414 9.122ZM12.4941 11.747H6.86914C6.76968 11.747 6.6743 11.7075 6.60398 11.6372C6.53365 11.5668 6.49414 11.4715 6.49414 11.372C6.49414 11.2725 6.53365 11.1772 6.60398 11.1068C6.6743 11.0365 6.76968 10.997 6.86914 10.997H12.4941C12.5936 10.997 12.689 11.0365 12.7593 11.1068C12.8296 11.1772 12.8691 11.2725 12.8691 11.372C12.8691 11.4715 12.8296 11.5668 12.7593 11.6372C12.689 11.7075 12.5936 11.747 12.4941 11.747ZM10.2441 13.247C10.3436 13.247 10.439 13.2865 10.5093 13.3568C10.5796 13.4272 10.6191 13.5225 10.6191 13.622C10.6191 13.7215 10.5796 13.8168 10.5093 13.8872C10.439 13.9575 10.3436 13.997 10.2441 13.997H6.86914C6.76968 13.997 6.6743 13.9575 6.60398 13.8872C6.53365 13.8168 6.49414 13.7215 6.49414 13.622C6.49414 13.5225 6.53365 13.4272 6.60398 13.3568C6.6743 13.2865 6.76968 13.247 6.86914 13.247H10.2441ZM8.36914 15.872C8.36914 15.9715 8.32963 16.0668 8.25931 16.1372C8.18898 16.2075 8.0936 16.247 7.99414 16.247H6.86914C6.76968 16.247 6.6743 16.2075 6.60398 16.1372C6.53365 16.0668 6.49414 15.9715 6.49414 15.872C6.49414 15.7725 6.53365 15.6772 6.60398 15.6068C6.6743 15.5365 6.76968 15.497 6.86914 15.497H7.99414C8.0936 15.497 8.18898 15.5365 8.25931 15.6068C8.32963 15.6772 8.36914 15.7725 8.36914 15.872ZM8.36914 18.122C8.36914 18.2215 8.32963 18.3168 8.25931 18.3872C8.18898 18.4575 8.0936 18.497 7.99414 18.497H6.86914C6.76968 18.497 6.6743 18.4575 6.60398 18.3872C6.53365 18.3168 6.49414 18.2215 6.49414 18.122C6.49414 18.0225 6.53365 17.9272 6.60398 17.8568C6.6743 17.7865 6.76968 17.747 6.86914 17.747H7.99414C8.0936 17.747 8.18898 17.7865 8.25931 17.8568C8.32963 17.9272 8.36914 18.0225 8.36914 18.122ZM20.5244 15.122L20.7441 14.9022C20.9842 14.6622 21.1191 14.3365 21.1191 13.997C21.1191 13.6575 20.9842 13.3318 20.7441 13.0917L20.5244 12.872L20.8994 12.497C21.0399 12.3563 21.1188 12.1656 21.1188 11.9667C21.1188 11.7679 21.0399 11.5772 20.8994 11.4365L20.3046 10.8417C20.1638 10.7014 19.9732 10.6226 19.7744 10.6226C19.5756 10.6226 19.3849 10.7014 19.2441 10.8417L18.8691 11.2167L18.6494 10.997C18.4055 10.7643 18.0813 10.6344 17.7441 10.6344C17.407 10.6344 17.0828 10.7643 16.8389 10.997L16.6191 11.2167L16.3994 10.997C16.1555 10.7643 15.8313 10.6344 15.4941 10.6344C15.157 10.6344 14.8328 10.7643 14.5889 10.997L14.3691 11.2167C14.1291 11.4568 13.9942 11.7825 13.9942 12.122C13.9942 12.4615 14.1291 12.7872 14.3691 13.0272L15.7139 14.372L12.8691 17.2167L11.5244 15.872C11.2805 15.6393 10.9563 15.5094 10.6191 15.5094C10.282 15.5094 9.95782 15.6393 9.71389 15.872L9.49414 16.0917C9.25406 16.3318 9.11919 16.6575 9.11919 16.997C9.11919 17.3365 9.25406 17.6622 9.49414 17.9022L9.71389 18.122L9.49414 18.3417C9.25406 18.5818 9.11919 18.9075 9.11919 19.247C9.11919 19.5865 9.25406 19.9122 9.49414 20.1522L9.71389 20.372L9.33889 20.747C9.19838 20.8877 9.11946 21.0784 9.11946 21.2772C9.11946 21.4761 9.19838 21.6668 9.33889 21.8075L9.93364 22.4022C10.0744 22.5427 10.2651 22.6215 10.4639 22.6215C10.6627 22.6215 10.8534 22.5427 10.9941 22.4022L11.3691 22.0272L11.5889 22.247C11.829 22.4871 12.1546 22.622 12.4941 22.622C12.8337 22.622 13.1593 22.4871 13.3994 22.247L13.6191 22.0272L13.8389 22.247C14.079 22.4871 14.4046 22.622 14.7441 22.622C15.0837 22.622 15.4093 22.4871 15.6494 22.247L15.8691 22.0272C16.1092 21.7872 16.2441 21.4615 16.2441 21.122C16.2441 20.7825 16.1092 20.4568 15.8691 20.2167L14.5244 18.872L17.3691 16.0272L18.7139 17.372C18.954 17.6121 19.2796 17.747 19.6191 17.747C19.9587 17.747 20.2843 17.6121 20.5244 17.372L20.7441 17.1522C20.9842 16.9122 21.1191 16.5865 21.1191 16.247C21.1191 15.9075 20.9842 15.5818 20.7441 15.3417L20.5244 15.122ZM10.4639 21.872L9.86914 21.2772L10.2441 20.9022L10.8389 21.497L10.4639 21.872ZM12.8691 21.7167C12.768 21.813 12.6338 21.8667 12.4941 21.8667C12.3545 21.8667 12.2202 21.813 12.1191 21.7167L10.0244 19.622C9.92501 19.5225 9.86918 19.3876 9.86918 19.247C9.86918 19.1064 9.92501 18.9715 10.0244 18.872L10.2441 18.6522L13.0889 21.497L12.8691 21.7167ZM15.3389 20.747C15.4383 20.8465 15.4941 20.9814 15.4941 21.122C15.4941 21.2626 15.4383 21.3975 15.3389 21.497L15.1191 21.7167C15.018 21.813 14.8838 21.8667 14.7441 21.8667C14.6045 21.8667 14.4702 21.813 14.3691 21.7167L10.0244 17.372C9.92501 17.2725 9.86918 17.1376 9.86918 16.997C9.86918 16.8564 9.92501 16.7215 10.0244 16.622L10.2441 16.4022C10.3436 16.3029 10.4785 16.247 10.6191 16.247C10.7598 16.247 10.8946 16.3029 10.9941 16.4022L15.3389 20.747ZM13.9941 18.3417L13.3994 17.747L16.2441 14.9022L16.8389 15.497L13.9941 18.3417ZM20.2139 16.622L19.9941 16.8417C19.893 16.938 19.7588 16.9917 19.6191 16.9917C19.4795 16.9917 19.3452 16.938 19.2441 16.8417L14.8994 12.497C14.8 12.3975 14.7442 12.2626 14.7442 12.122C14.7442 11.9814 14.8 11.8465 14.8994 11.747L15.1191 11.5272C15.2186 11.4279 15.3535 11.372 15.4941 11.372C15.6348 11.372 15.7696 11.4279 15.8691 11.5272L20.2139 15.872C20.3133 15.9715 20.3691 16.1064 20.3691 16.247C20.3691 16.3876 20.3133 16.5225 20.2139 16.622ZM20.2139 14.372L19.9941 14.5917L17.1494 11.747L17.3691 11.5272C17.4702 11.431 17.6045 11.3772 17.7441 11.3772C17.8838 11.3772 18.018 11.431 18.1191 11.5272L20.2139 13.622C20.3133 13.7215 20.3691 13.8564 20.3691 13.997C20.3691 14.1376 20.3133 14.2725 20.2139 14.372ZM19.9941 12.3417L19.3994 11.747L19.7744 11.372L20.3691 11.9667L19.9941 12.3417Z"/>
</mask>
<path d="M7.99414 19.997H1.99414C1.69586 19.9967 1.40989 19.8781 1.19897 19.6672C0.98806 19.4562 0.869438 19.1703 0.869141 18.872V4.247C0.869438 3.94872 0.98806 3.66274 1.19897 3.45183C1.40989 3.24092 1.69586 3.12229 1.99414 3.122H3.49414V3.872C3.49444 4.17027 3.61306 4.45625 3.82397 4.66716C4.03489 4.87808 4.32086 4.9967 4.61914 4.997H10.6191C10.9174 4.9967 11.2034 4.87808 11.4143 4.66716C11.6252 4.45625 11.7438 4.17027 11.7441 3.872V3.122H13.2441C13.5424 3.12229 13.8284 3.24092 14.0393 3.45183C14.2502 3.66274 14.3688 3.94872 14.3691 4.247V9.497C14.3691 9.59645 14.4086 9.69184 14.479 9.76216C14.5493 9.83249 14.6447 9.872 14.7441 9.872C14.8436 9.872 14.939 9.83249 15.0093 9.76216C15.0796 9.69184 15.1191 9.59645 15.1191 9.497V4.247C15.1185 3.7499 14.9208 3.27333 14.5693 2.92183C14.2178 2.57033 13.7412 2.37259 13.2441 2.372H11.6751C11.5981 2.15325 11.4552 1.96373 11.2661 1.82944C11.0771 1.69515 10.8511 1.62269 10.6191 1.622H9.45664C9.37057 1.19814 9.14062 0.817069 8.80574 0.543355C8.47086 0.269642 8.05165 0.120117 7.61914 0.120117C7.18663 0.120117 6.76742 0.269642 6.43254 0.543355C6.09766 0.817069 5.86771 1.19814 5.78164 1.622H4.61914C4.38723 1.62269 4.16121 1.69515 3.97214 1.82944C3.78306 1.96373 3.64019 2.15325 3.56314 2.372H1.99414C1.49704 2.37259 1.02047 2.57033 0.668973 2.92183C0.317471 3.27333 0.119736 3.7499 0.119141 4.247V18.872C0.119736 19.3691 0.317471 19.8457 0.668973 20.1972C1.02047 20.5487 1.49704 20.7464 1.99414 20.747H7.99414C8.0936 20.747 8.18898 20.7075 8.25931 20.6372C8.32963 20.5668 8.36914 20.4715 8.36914 20.372C8.36914 20.2725 8.32963 20.1772 8.25931 20.1068C8.18898 20.0365 8.0936 19.997 7.99414 19.997ZM4.24414 2.747C4.24414 2.64754 4.28365 2.55216 4.35398 2.48183C4.4243 2.41151 4.51968 2.372 4.61914 2.372H6.11914C6.2186 2.372 6.31398 2.33249 6.38431 2.26216C6.45463 2.19184 6.49414 2.09645 6.49414 1.997C6.49414 1.69863 6.61267 1.41248 6.82365 1.2015C7.03462 0.990523 7.32077 0.871997 7.61914 0.871997C7.91751 0.871997 8.20366 0.990523 8.41464 1.2015C8.62561 1.41248 8.74414 1.69863 8.74414 1.997C8.74414 2.09645 8.78365 2.19184 8.85398 2.26216C8.9243 2.33249 9.01968 2.372 9.11914 2.372H10.6191C10.7186 2.372 10.814 2.41151 10.8843 2.48183C10.9546 2.55216 10.9941 2.64754 10.9941 2.747V3.872C10.9941 3.97145 10.9546 4.06684 10.8843 4.13716C10.814 4.20749 10.7186 4.247 10.6191 4.247H4.61914C4.51968 4.247 4.4243 4.20749 4.35398 4.13716C4.28365 4.06684 4.24414 3.97145 4.24414 3.872V2.747ZM5.36914 6.872C5.36914 6.77254 5.32963 6.67716 5.25931 6.60683C5.18898 6.53651 5.0936 6.497 4.99414 6.497H2.74414C2.64468 6.497 2.5493 6.53651 2.47898 6.60683C2.40865 6.67716 2.36914 6.77254 2.36914 6.872V9.122C2.36914 9.22145 2.40865 9.31684 2.47898 9.38716C2.5493 9.45749 2.64468 9.497 2.74414 9.497H4.99414C5.0936 9.497 5.18898 9.45749 5.25931 9.38716C5.32963 9.31684 5.36914 9.22145 5.36914 9.122V6.872ZM4.61914 8.747H3.11914V7.247H4.61914V8.747ZM5.36914 11.372C5.36914 11.2725 5.32963 11.1772 5.25931 11.1068C5.18898 11.0365 5.0936 10.997 4.99414 10.997H2.74414C2.64468 10.997 2.5493 11.0365 2.47898 11.1068C2.40865 11.1772 2.36914 11.2725 2.36914 11.372V13.622C2.36914 13.7215 2.40865 13.8168 2.47898 13.8872C2.5493 13.9575 2.64468 13.997 2.74414 13.997H4.99414C5.0936 13.997 5.18898 13.9575 5.25931 13.8872C5.32963 13.8168 5.36914 13.7215 5.36914 13.622V11.372ZM4.61914 13.247H3.11914V11.747H4.61914V13.247ZM4.99414 15.497H2.74414C2.64468 15.497 2.5493 15.5365 2.47898 15.6068C2.40865 15.6772 2.36914 15.7725 2.36914 15.872V18.122C2.36914 18.2215 2.40865 18.3168 2.47898 18.3872C2.5493 18.4575 2.64468 18.497 2.74414 18.497H4.99414C5.0936 18.497 5.18898 18.4575 5.25931 18.3872C5.32963 18.3168 5.36914 18.2215 5.36914 18.122V15.872C5.36914 15.7725 5.32963 15.6772 5.25931 15.6068C5.18898 15.5365 5.0936 15.497 4.99414 15.497ZM4.61914 17.747H3.11914V16.247H4.61914V17.747ZM12.8691 6.872C12.8691 6.97145 12.8296 7.06684 12.7593 7.13716C12.689 7.20749 12.5936 7.247 12.4941 7.247H6.86914C6.76968 7.247 6.6743 7.20749 6.60398 7.13716C6.53365 7.06684 6.49414 6.97145 6.49414 6.872C6.49414 6.77254 6.53365 6.67716 6.60398 6.60683C6.6743 6.53651 6.76968 6.497 6.86914 6.497H12.4941C12.5936 6.497 12.689 6.53651 12.7593 6.60683C12.8296 6.67716 12.8691 6.77254 12.8691 6.872ZM6.49414 9.122C6.49414 9.02254 6.53365 8.92716 6.60398 8.85683C6.6743 8.78651 6.76968 8.747 6.86914 8.747H10.2441C10.3436 8.747 10.439 8.78651 10.5093 8.85683C10.5796 8.92716 10.6191 9.02254 10.6191 9.122C10.6191 9.22145 10.5796 9.31684 10.5093 9.38716C10.439 9.45749 10.3436 9.497 10.2441 9.497H6.86914C6.76968 9.497 6.6743 9.45749 6.60398 9.38716C6.53365 9.31684 6.49414 9.22145 6.49414 9.122ZM12.4941 11.747H6.86914C6.76968 11.747 6.6743 11.7075 6.60398 11.6372C6.53365 11.5668 6.49414 11.4715 6.49414 11.372C6.49414 11.2725 6.53365 11.1772 6.60398 11.1068C6.6743 11.0365 6.76968 10.997 6.86914 10.997H12.4941C12.5936 10.997 12.689 11.0365 12.7593 11.1068C12.8296 11.1772 12.8691 11.2725 12.8691 11.372C12.8691 11.4715 12.8296 11.5668 12.7593 11.6372C12.689 11.7075 12.5936 11.747 12.4941 11.747ZM10.2441 13.247C10.3436 13.247 10.439 13.2865 10.5093 13.3568C10.5796 13.4272 10.6191 13.5225 10.6191 13.622C10.6191 13.7215 10.5796 13.8168 10.5093 13.8872C10.439 13.9575 10.3436 13.997 10.2441 13.997H6.86914C6.76968 13.997 6.6743 13.9575 6.60398 13.8872C6.53365 13.8168 6.49414 13.7215 6.49414 13.622C6.49414 13.5225 6.53365 13.4272 6.60398 13.3568C6.6743 13.2865 6.76968 13.247 6.86914 13.247H10.2441ZM8.36914 15.872C8.36914 15.9715 8.32963 16.0668 8.25931 16.1372C8.18898 16.2075 8.0936 16.247 7.99414 16.247H6.86914C6.76968 16.247 6.6743 16.2075 6.60398 16.1372C6.53365 16.0668 6.49414 15.9715 6.49414 15.872C6.49414 15.7725 6.53365 15.6772 6.60398 15.6068C6.6743 15.5365 6.76968 15.497 6.86914 15.497H7.99414C8.0936 15.497 8.18898 15.5365 8.25931 15.6068C8.32963 15.6772 8.36914 15.7725 8.36914 15.872ZM8.36914 18.122C8.36914 18.2215 8.32963 18.3168 8.25931 18.3872C8.18898 18.4575 8.0936 18.497 7.99414 18.497H6.86914C6.76968 18.497 6.6743 18.4575 6.60398 18.3872C6.53365 18.3168 6.49414 18.2215 6.49414 18.122C6.49414 18.0225 6.53365 17.9272 6.60398 17.8568C6.6743 17.7865 6.76968 17.747 6.86914 17.747H7.99414C8.0936 17.747 8.18898 17.7865 8.25931 17.8568C8.32963 17.9272 8.36914 18.0225 8.36914 18.122ZM20.5244 15.122L20.7441 14.9022C20.9842 14.6622 21.1191 14.3365 21.1191 13.997C21.1191 13.6575 20.9842 13.3318 20.7441 13.0917L20.5244 12.872L20.8994 12.497C21.0399 12.3563 21.1188 12.1656 21.1188 11.9667C21.1188 11.7679 21.0399 11.5772 20.8994 11.4365L20.3046 10.8417C20.1638 10.7014 19.9732 10.6226 19.7744 10.6226C19.5756 10.6226 19.3849 10.7014 19.2441 10.8417L18.8691 11.2167L18.6494 10.997C18.4055 10.7643 18.0813 10.6344 17.7441 10.6344C17.407 10.6344 17.0828 10.7643 16.8389 10.997L16.6191 11.2167L16.3994 10.997C16.1555 10.7643 15.8313 10.6344 15.4941 10.6344C15.157 10.6344 14.8328 10.7643 14.5889 10.997L14.3691 11.2167C14.1291 11.4568 13.9942 11.7825 13.9942 12.122C13.9942 12.4615 14.1291 12.7872 14.3691 13.0272L15.7139 14.372L12.8691 17.2167L11.5244 15.872C11.2805 15.6393 10.9563 15.5094 10.6191 15.5094C10.282 15.5094 9.95782 15.6393 9.71389 15.872L9.49414 16.0917C9.25406 16.3318 9.11919 16.6575 9.11919 16.997C9.11919 17.3365 9.25406 17.6622 9.49414 17.9022L9.71389 18.122L9.49414 18.3417C9.25406 18.5818 9.11919 18.9075 9.11919 19.247C9.11919 19.5865 9.25406 19.9122 9.49414 20.1522L9.71389 20.372L9.33889 20.747C9.19838 20.8877 9.11946 21.0784 9.11946 21.2772C9.11946 21.4761 9.19838 21.6668 9.33889 21.8075L9.93364 22.4022C10.0744 22.5427 10.2651 22.6215 10.4639 22.6215C10.6627 22.6215 10.8534 22.5427 10.9941 22.4022L11.3691 22.0272L11.5889 22.247C11.829 22.4871 12.1546 22.622 12.4941 22.622C12.8337 22.622 13.1593 22.4871 13.3994 22.247L13.6191 22.0272L13.8389 22.247C14.079 22.4871 14.4046 22.622 14.7441 22.622C15.0837 22.622 15.4093 22.4871 15.6494 22.247L15.8691 22.0272C16.1092 21.7872 16.2441 21.4615 16.2441 21.122C16.2441 20.7825 16.1092 20.4568 15.8691 20.2167L14.5244 18.872L17.3691 16.0272L18.7139 17.372C18.954 17.6121 19.2796 17.747 19.6191 17.747C19.9587 17.747 20.2843 17.6121 20.5244 17.372L20.7441 17.1522C20.9842 16.9122 21.1191 16.5865 21.1191 16.247C21.1191 15.9075 20.9842 15.5818 20.7441 15.3417L20.5244 15.122ZM10.4639 21.872L9.86914 21.2772L10.2441 20.9022L10.8389 21.497L10.4639 21.872ZM12.8691 21.7167C12.768 21.813 12.6338 21.8667 12.4941 21.8667C12.3545 21.8667 12.2202 21.813 12.1191 21.7167L10.0244 19.622C9.92501 19.5225 9.86918 19.3876 9.86918 19.247C9.86918 19.1064 9.92501 18.9715 10.0244 18.872L10.2441 18.6522L13.0889 21.497L12.8691 21.7167ZM15.3389 20.747C15.4383 20.8465 15.4941 20.9814 15.4941 21.122C15.4941 21.2626 15.4383 21.3975 15.3389 21.497L15.1191 21.7167C15.018 21.813 14.8838 21.8667 14.7441 21.8667C14.6045 21.8667 14.4702 21.813 14.3691 21.7167L10.0244 17.372C9.92501 17.2725 9.86918 17.1376 9.86918 16.997C9.86918 16.8564 9.92501 16.7215 10.0244 16.622L10.2441 16.4022C10.3436 16.3029 10.4785 16.247 10.6191 16.247C10.7598 16.247 10.8946 16.3029 10.9941 16.4022L15.3389 20.747ZM13.9941 18.3417L13.3994 17.747L16.2441 14.9022L16.8389 15.497L13.9941 18.3417ZM20.2139 16.622L19.9941 16.8417C19.893 16.938 19.7588 16.9917 19.6191 16.9917C19.4795 16.9917 19.3452 16.938 19.2441 16.8417L14.8994 12.497C14.8 12.3975 14.7442 12.2626 14.7442 12.122C14.7442 11.9814 14.8 11.8465 14.8994 11.747L15.1191 11.5272C15.2186 11.4279 15.3535 11.372 15.4941 11.372C15.6348 11.372 15.7696 11.4279 15.8691 11.5272L20.2139 15.872C20.3133 15.9715 20.3691 16.1064 20.3691 16.247C20.3691 16.3876 20.3133 16.5225 20.2139 16.622ZM20.2139 14.372L19.9941 14.5917L17.1494 11.747L17.3691 11.5272C17.4702 11.431 17.6045 11.3772 17.7441 11.3772C17.8838 11.3772 18.018 11.431 18.1191 11.5272L20.2139 13.622C20.3133 13.7215 20.3691 13.8564 20.3691 13.997C20.3691 14.1376 20.3133 14.2725 20.2139 14.372ZM19.9941 12.3417L19.3994 11.747L19.7744 11.372L20.3691 11.9667L19.9941 12.3417Z" fill="#D13A3F"/>
<path d="M7.99414 19.997H1.99414C1.69586 19.9967 1.40989 19.8781 1.19897 19.6672C0.98806 19.4562 0.869438 19.1703 0.869141 18.872V4.247C0.869438 3.94872 0.98806 3.66274 1.19897 3.45183C1.40989 3.24092 1.69586 3.12229 1.99414 3.122H3.49414V3.872C3.49444 4.17027 3.61306 4.45625 3.82397 4.66716C4.03489 4.87808 4.32086 4.9967 4.61914 4.997H10.6191C10.9174 4.9967 11.2034 4.87808 11.4143 4.66716C11.6252 4.45625 11.7438 4.17027 11.7441 3.872V3.122H13.2441C13.5424 3.12229 13.8284 3.24092 14.0393 3.45183C14.2502 3.66274 14.3688 3.94872 14.3691 4.247V9.497C14.3691 9.59645 14.4086 9.69184 14.479 9.76216C14.5493 9.83249 14.6447 9.872 14.7441 9.872C14.8436 9.872 14.939 9.83249 15.0093 9.76216C15.0796 9.69184 15.1191 9.59645 15.1191 9.497V4.247C15.1185 3.7499 14.9208 3.27333 14.5693 2.92183C14.2178 2.57033 13.7412 2.37259 13.2441 2.372H11.6751C11.5981 2.15325 11.4552 1.96373 11.2661 1.82944C11.0771 1.69515 10.8511 1.62269 10.6191 1.622H9.45664C9.37057 1.19814 9.14062 0.817069 8.80574 0.543355C8.47086 0.269642 8.05165 0.120117 7.61914 0.120117C7.18663 0.120117 6.76742 0.269642 6.43254 0.543355C6.09766 0.817069 5.86771 1.19814 5.78164 1.622H4.61914C4.38723 1.62269 4.16121 1.69515 3.97214 1.82944C3.78306 1.96373 3.64019 2.15325 3.56314 2.372H1.99414C1.49704 2.37259 1.02047 2.57033 0.668973 2.92183C0.317471 3.27333 0.119736 3.7499 0.119141 4.247V18.872C0.119736 19.3691 0.317471 19.8457 0.668973 20.1972C1.02047 20.5487 1.49704 20.7464 1.99414 20.747H7.99414C8.0936 20.747 8.18898 20.7075 8.25931 20.6372C8.32963 20.5668 8.36914 20.4715 8.36914 20.372C8.36914 20.2725 8.32963 20.1772 8.25931 20.1068C8.18898 20.0365 8.0936 19.997 7.99414 19.997ZM4.24414 2.747C4.24414 2.64754 4.28365 2.55216 4.35398 2.48183C4.4243 2.41151 4.51968 2.372 4.61914 2.372H6.11914C6.2186 2.372 6.31398 2.33249 6.38431 2.26216C6.45463 2.19184 6.49414 2.09645 6.49414 1.997C6.49414 1.69863 6.61267 1.41248 6.82365 1.2015C7.03462 0.990523 7.32077 0.871997 7.61914 0.871997C7.91751 0.871997 8.20366 0.990523 8.41464 1.2015C8.62561 1.41248 8.74414 1.69863 8.74414 1.997C8.74414 2.09645 8.78365 2.19184 8.85398 2.26216C8.9243 2.33249 9.01968 2.372 9.11914 2.372H10.6191C10.7186 2.372 10.814 2.41151 10.8843 2.48183C10.9546 2.55216 10.9941 2.64754 10.9941 2.747V3.872C10.9941 3.97145 10.9546 4.06684 10.8843 4.13716C10.814 4.20749 10.7186 4.247 10.6191 4.247H4.61914C4.51968 4.247 4.4243 4.20749 4.35398 4.13716C4.28365 4.06684 4.24414 3.97145 4.24414 3.872V2.747ZM5.36914 6.872C5.36914 6.77254 5.32963 6.67716 5.25931 6.60683C5.18898 6.53651 5.0936 6.497 4.99414 6.497H2.74414C2.64468 6.497 2.5493 6.53651 2.47898 6.60683C2.40865 6.67716 2.36914 6.77254 2.36914 6.872V9.122C2.36914 9.22145 2.40865 9.31684 2.47898 9.38716C2.5493 9.45749 2.64468 9.497 2.74414 9.497H4.99414C5.0936 9.497 5.18898 9.45749 5.25931 9.38716C5.32963 9.31684 5.36914 9.22145 5.36914 9.122V6.872ZM4.61914 8.747H3.11914V7.247H4.61914V8.747ZM5.36914 11.372C5.36914 11.2725 5.32963 11.1772 5.25931 11.1068C5.18898 11.0365 5.0936 10.997 4.99414 10.997H2.74414C2.64468 10.997 2.5493 11.0365 2.47898 11.1068C2.40865 11.1772 2.36914 11.2725 2.36914 11.372V13.622C2.36914 13.7215 2.40865 13.8168 2.47898 13.8872C2.5493 13.9575 2.64468 13.997 2.74414 13.997H4.99414C5.0936 13.997 5.18898 13.9575 5.25931 13.8872C5.32963 13.8168 5.36914 13.7215 5.36914 13.622V11.372ZM4.61914 13.247H3.11914V11.747H4.61914V13.247ZM4.99414 15.497H2.74414C2.64468 15.497 2.5493 15.5365 2.47898 15.6068C2.40865 15.6772 2.36914 15.7725 2.36914 15.872V18.122C2.36914 18.2215 2.40865 18.3168 2.47898 18.3872C2.5493 18.4575 2.64468 18.497 2.74414 18.497H4.99414C5.0936 18.497 5.18898 18.4575 5.25931 18.3872C5.32963 18.3168 5.36914 18.2215 5.36914 18.122V15.872C5.36914 15.7725 5.32963 15.6772 5.25931 15.6068C5.18898 15.5365 5.0936 15.497 4.99414 15.497ZM4.61914 17.747H3.11914V16.247H4.61914V17.747ZM12.8691 6.872C12.8691 6.97145 12.8296 7.06684 12.7593 7.13716C12.689 7.20749 12.5936 7.247 12.4941 7.247H6.86914C6.76968 7.247 6.6743 7.20749 6.60398 7.13716C6.53365 7.06684 6.49414 6.97145 6.49414 6.872C6.49414 6.77254 6.53365 6.67716 6.60398 6.60683C6.6743 6.53651 6.76968 6.497 6.86914 6.497H12.4941C12.5936 6.497 12.689 6.53651 12.7593 6.60683C12.8296 6.67716 12.8691 6.77254 12.8691 6.872ZM6.49414 9.122C6.49414 9.02254 6.53365 8.92716 6.60398 8.85683C6.6743 8.78651 6.76968 8.747 6.86914 8.747H10.2441C10.3436 8.747 10.439 8.78651 10.5093 8.85683C10.5796 8.92716 10.6191 9.02254 10.6191 9.122C10.6191 9.22145 10.5796 9.31684 10.5093 9.38716C10.439 9.45749 10.3436 9.497 10.2441 9.497H6.86914C6.76968 9.497 6.6743 9.45749 6.60398 9.38716C6.53365 9.31684 6.49414 9.22145 6.49414 9.122ZM12.4941 11.747H6.86914C6.76968 11.747 6.6743 11.7075 6.60398 11.6372C6.53365 11.5668 6.49414 11.4715 6.49414 11.372C6.49414 11.2725 6.53365 11.1772 6.60398 11.1068C6.6743 11.0365 6.76968 10.997 6.86914 10.997H12.4941C12.5936 10.997 12.689 11.0365 12.7593 11.1068C12.8296 11.1772 12.8691 11.2725 12.8691 11.372C12.8691 11.4715 12.8296 11.5668 12.7593 11.6372C12.689 11.7075 12.5936 11.747 12.4941 11.747ZM10.2441 13.247C10.3436 13.247 10.439 13.2865 10.5093 13.3568C10.5796 13.4272 10.6191 13.5225 10.6191 13.622C10.6191 13.7215 10.5796 13.8168 10.5093 13.8872C10.439 13.9575 10.3436 13.997 10.2441 13.997H6.86914C6.76968 13.997 6.6743 13.9575 6.60398 13.8872C6.53365 13.8168 6.49414 13.7215 6.49414 13.622C6.49414 13.5225 6.53365 13.4272 6.60398 13.3568C6.6743 13.2865 6.76968 13.247 6.86914 13.247H10.2441ZM8.36914 15.872C8.36914 15.9715 8.32963 16.0668 8.25931 16.1372C8.18898 16.2075 8.0936 16.247 7.99414 16.247H6.86914C6.76968 16.247 6.6743 16.2075 6.60398 16.1372C6.53365 16.0668 6.49414 15.9715 6.49414 15.872C6.49414 15.7725 6.53365 15.6772 6.60398 15.6068C6.6743 15.5365 6.76968 15.497 6.86914 15.497H7.99414C8.0936 15.497 8.18898 15.5365 8.25931 15.6068C8.32963 15.6772 8.36914 15.7725 8.36914 15.872ZM8.36914 18.122C8.36914 18.2215 8.32963 18.3168 8.25931 18.3872C8.18898 18.4575 8.0936 18.497 7.99414 18.497H6.86914C6.76968 18.497 6.6743 18.4575 6.60398 18.3872C6.53365 18.3168 6.49414 18.2215 6.49414 18.122C6.49414 18.0225 6.53365 17.9272 6.60398 17.8568C6.6743 17.7865 6.76968 17.747 6.86914 17.747H7.99414C8.0936 17.747 8.18898 17.7865 8.25931 17.8568C8.32963 17.9272 8.36914 18.0225 8.36914 18.122ZM20.5244 15.122L20.7441 14.9022C20.9842 14.6622 21.1191 14.3365 21.1191 13.997C21.1191 13.6575 20.9842 13.3318 20.7441 13.0917L20.5244 12.872L20.8994 12.497C21.0399 12.3563 21.1188 12.1656 21.1188 11.9667C21.1188 11.7679 21.0399 11.5772 20.8994 11.4365L20.3046 10.8417C20.1638 10.7014 19.9732 10.6226 19.7744 10.6226C19.5756 10.6226 19.3849 10.7014 19.2441 10.8417L18.8691 11.2167L18.6494 10.997C18.4055 10.7643 18.0813 10.6344 17.7441 10.6344C17.407 10.6344 17.0828 10.7643 16.8389 10.997L16.6191 11.2167L16.3994 10.997C16.1555 10.7643 15.8313 10.6344 15.4941 10.6344C15.157 10.6344 14.8328 10.7643 14.5889 10.997L14.3691 11.2167C14.1291 11.4568 13.9942 11.7825 13.9942 12.122C13.9942 12.4615 14.1291 12.7872 14.3691 13.0272L15.7139 14.372L12.8691 17.2167L11.5244 15.872C11.2805 15.6393 10.9563 15.5094 10.6191 15.5094C10.282 15.5094 9.95782 15.6393 9.71389 15.872L9.49414 16.0917C9.25406 16.3318 9.11919 16.6575 9.11919 16.997C9.11919 17.3365 9.25406 17.6622 9.49414 17.9022L9.71389 18.122L9.49414 18.3417C9.25406 18.5818 9.11919 18.9075 9.11919 19.247C9.11919 19.5865 9.25406 19.9122 9.49414 20.1522L9.71389 20.372L9.33889 20.747C9.19838 20.8877 9.11946 21.0784 9.11946 21.2772C9.11946 21.4761 9.19838 21.6668 9.33889 21.8075L9.93364 22.4022C10.0744 22.5427 10.2651 22.6215 10.4639 22.6215C10.6627 22.6215 10.8534 22.5427 10.9941 22.4022L11.3691 22.0272L11.5889 22.247C11.829 22.4871 12.1546 22.622 12.4941 22.622C12.8337 22.622 13.1593 22.4871 13.3994 22.247L13.6191 22.0272L13.8389 22.247C14.079 22.4871 14.4046 22.622 14.7441 22.622C15.0837 22.622 15.4093 22.4871 15.6494 22.247L15.8691 22.0272C16.1092 21.7872 16.2441 21.4615 16.2441 21.122C16.2441 20.7825 16.1092 20.4568 15.8691 20.2167L14.5244 18.872L17.3691 16.0272L18.7139 17.372C18.954 17.6121 19.2796 17.747 19.6191 17.747C19.9587 17.747 20.2843 17.6121 20.5244 17.372L20.7441 17.1522C20.9842 16.9122 21.1191 16.5865 21.1191 16.247C21.1191 15.9075 20.9842 15.5818 20.7441 15.3417L20.5244 15.122ZM10.4639 21.872L9.86914 21.2772L10.2441 20.9022L10.8389 21.497L10.4639 21.872ZM12.8691 21.7167C12.768 21.813 12.6338 21.8667 12.4941 21.8667C12.3545 21.8667 12.2202 21.813 12.1191 21.7167L10.0244 19.622C9.92501 19.5225 9.86918 19.3876 9.86918 19.247C9.86918 19.1064 9.92501 18.9715 10.0244 18.872L10.2441 18.6522L13.0889 21.497L12.8691 21.7167ZM15.3389 20.747C15.4383 20.8465 15.4941 20.9814 15.4941 21.122C15.4941 21.2626 15.4383 21.3975 15.3389 21.497L15.1191 21.7167C15.018 21.813 14.8838 21.8667 14.7441 21.8667C14.6045 21.8667 14.4702 21.813 14.3691 21.7167L10.0244 17.372C9.92501 17.2725 9.86918 17.1376 9.86918 16.997C9.86918 16.8564 9.92501 16.7215 10.0244 16.622L10.2441 16.4022C10.3436 16.3029 10.4785 16.247 10.6191 16.247C10.7598 16.247 10.8946 16.3029 10.9941 16.4022L15.3389 20.747ZM13.9941 18.3417L13.3994 17.747L16.2441 14.9022L16.8389 15.497L13.9941 18.3417ZM20.2139 16.622L19.9941 16.8417C19.893 16.938 19.7588 16.9917 19.6191 16.9917C19.4795 16.9917 19.3452 16.938 19.2441 16.8417L14.8994 12.497C14.8 12.3975 14.7442 12.2626 14.7442 12.122C14.7442 11.9814 14.8 11.8465 14.8994 11.747L15.1191 11.5272C15.2186 11.4279 15.3535 11.372 15.4941 11.372C15.6348 11.372 15.7696 11.4279 15.8691 11.5272L20.2139 15.872C20.3133 15.9715 20.3691 16.1064 20.3691 16.247C20.3691 16.3876 20.3133 16.5225 20.2139 16.622ZM20.2139 14.372L19.9941 14.5917L17.1494 11.747L17.3691 11.5272C17.4702 11.431 17.6045 11.3772 17.7441 11.3772C17.8838 11.3772 18.018 11.431 18.1191 11.5272L20.2139 13.622C20.3133 13.7215 20.3691 13.8564 20.3691 13.997C20.3691 14.1376 20.3133 14.2725 20.2139 14.372ZM19.9941 12.3417L19.3994 11.747L19.7744 11.372L20.3691 11.9667L19.9941 12.3417Z" stroke="#D13A3F" stroke-width="0.24" mask="url(#path-1-outside-1_806_2752)"/>
</svg>
