<svg width="23" height="23" viewBox="0 0 23 23" fill="none" xmlns="http://www.w3.org/2000/svg">
<path d="M16.15 5.64984C13.4456 5.64984 11.25 7.84538 11.25 10.5498C13.9544 10.5498 16.15 8.35391 16.15 5.64984Z" stroke="#D13A3F" stroke-width="1.5" stroke-miterlimit="10" stroke-linecap="round" stroke-linejoin="round"/>
<path d="M11.2488 0.750046C9.33634 2.66209 9.33634 5.7673 11.2488 7.67969C13.1612 5.7673 13.1612 2.66209 11.2488 0.750046Z" stroke="#D13A3F" stroke-width="1.5" stroke-miterlimit="10" stroke-linecap="round" stroke-linejoin="round"/>
<path d="M6.34961 5.64984C9.05403 5.64984 11.2496 7.84538 11.2496 10.5498C8.5452 10.5498 6.34961 8.35391 6.34961 5.64984Z" stroke="#D13A3F" stroke-width="1.5" stroke-miterlimit="10" stroke-linecap="round" stroke-linejoin="round"/>
<path d="M11.25 10.5494V12.6494" stroke="#D13A3F" stroke-width="1.5" stroke-miterlimit="10" stroke-linecap="round" stroke-linejoin="round"/>
<path d="M4.51252 15.1V15.0993C4.44606 14.8336 4.45879 14.5542 4.54916 14.2956C4.63953 14.037 4.80358 13.8105 5.0211 13.644C5.23868 13.4776 5.50018 13.3785 5.77338 13.359C6.04658 13.3394 6.31954 13.4001 6.55863 13.5338C7.52881 14.0759 8.58652 14.6674 9.4507 15.1501C9.99318 15.4534 10.4451 15.8956 10.7601 16.4313C11.0751 16.9671 11.2418 17.5771 11.243 18.1986L11.25 21.75H5.65001V21.05L1.81263 17.2126C1.57848 16.9784 1.43488 16.6687 1.40732 16.3387C1.25579 14.5173 0.75 8.45005 0.75 8.45005C0.75 8.45005 0.75 8.44966 0.750349 8.44935C0.856133 8.23775 1.0242 8.06363 1.23193 7.95043C1.43966 7.83722 1.67708 7.79037 1.91225 7.81618C2.14741 7.84199 2.36902 7.93922 2.54725 8.09478C2.72549 8.25034 2.85179 8.45677 2.90916 8.68628L4.51252 15.1ZM4.51252 15.1C4.56987 15.3289 4.68829 15.5379 4.85515 15.7048C5.4824 16.332 7.04999 17.9 7.04999 17.9" stroke="#D13A3F" stroke-width="1.5" stroke-miterlimit="10" stroke-linecap="round" stroke-linejoin="round"/>
<path d="M17.9875 15.1V15.0993C18.0539 14.8336 18.0412 14.5542 17.9508 14.2956C17.8605 14.037 17.6964 13.8105 17.4789 13.644C17.2613 13.4776 16.9998 13.3785 16.7266 13.359C16.4534 13.3394 16.1804 13.4001 15.9414 13.5338C14.9712 14.0759 13.9135 14.6674 13.0493 15.1501C12.5068 15.4534 12.0549 15.8956 11.7399 16.4313C11.4249 16.9671 11.2582 17.5771 11.257 18.1986L11.25 21.75H16.85V21.05L20.6874 17.2126C20.9215 16.9784 21.0651 16.6687 21.0927 16.3387C21.2442 14.5173 21.75 8.45005 21.75 8.45005C21.75 8.45005 21.75 8.44966 21.7496 8.44935C21.6439 8.23775 21.4758 8.06363 21.2681 7.95043C21.0603 7.83722 20.8229 7.79037 20.5877 7.81618C20.3526 7.84199 20.131 7.93922 19.9527 8.09478C19.7745 8.25034 19.6482 8.45677 19.5908 8.68628L17.9875 15.1ZM17.9875 15.1C17.9301 15.3289 17.8117 15.5379 17.6448 15.7048C17.0176 16.332 15.45 17.9 15.45 17.9" stroke="#D13A3F" stroke-width="1.5" stroke-miterlimit="10" stroke-linecap="round" stroke-linejoin="round"/>
<path d="M7.80469 14.2296C8.63907 13.2622 9.87388 12.6497 11.2504 12.6497C12.627 12.6497 13.8617 13.2622 14.6962 14.2296L13.0498 15.1498C12.5073 15.453 12.0553 15.8953 11.7403 16.431C11.4253 16.9668 11.2587 17.5767 11.2574 18.1982H11.2434C11.2422 17.5767 11.0755 16.9668 10.7605 16.431C10.4455 15.8953 9.99358 15.453 9.45109 15.1498L7.80469 14.2296Z" stroke="#D13A3F" stroke-width="1.5" stroke-miterlimit="10" stroke-linecap="round" stroke-linejoin="round"/>
</svg>
