<svg width="24" height="24" viewBox="0 0 24 24" fill="none" xmlns="http://www.w3.org/2000/svg">
<path d="M23.9993 8.2745C23.9639 5.71733 22.4354 3.54514 20.3124 2.52702V0.990782C20.3124 0.472954 19.8928 0.0532823 19.3749 0.0532823C18.8573 0.0532823 18.4374 0.472954 18.4374 0.990782V1.96067C18.1661 1.92243 17.8926 1.90139 17.6186 1.89767C17.2863 1.89315 16.9542 1.91402 16.6251 1.96011V0.990735C16.6251 0.472954 16.2054 0.0532354 15.6876 0.0532354C15.1697 0.0532354 14.7501 0.472954 14.7501 0.990735V1.94675C13.9312 1.82277 13.1421 1.54899 12.4224 1.13909C6.87783 -2.02042 -0.0834773 2.05606 0.000757128 8.47686C0.0841946 14.8323 6.9481 18.6591 12.3693 15.6223C13.7181 14.8669 15.1937 14.5732 16.6372 14.7731C20.5723 15.318 24.0542 12.239 23.9993 8.2745ZM16.8944 12.9159C15.0692 12.6632 13.1369 13.0433 11.4531 13.9867C7.25977 16.3356 1.94021 13.3723 1.87557 8.45216C1.81041 3.46995 7.22809 0.337017 11.4941 2.76819C12.5019 3.34241 13.6146 3.7033 14.7501 3.83694V4.67834C14.7501 5.19617 15.1697 5.61584 15.6876 5.61584C16.2054 5.61584 16.6251 5.19617 16.6251 4.67834V3.84866C17.3414 3.77197 17.7281 3.71867 18.4374 3.86366V4.67834C18.4374 5.19617 18.8573 5.61584 19.3749 5.61584C19.8781 5.61584 20.2876 5.21905 20.3102 4.72156C21.3935 5.55284 22.1045 6.85161 22.1246 8.30033C22.1634 11.1088 19.6981 13.3042 16.8944 12.9159Z" fill="#D13A3F"/>
</svg>
