<svg width="24" height="24" viewBox="0 0 24 24" fill="none" xmlns="http://www.w3.org/2000/svg">
<path d="M12.1724 17.2846C11.1135 17.9029 9.88153 18.2573 8.56683 18.2573C4.95956 18.2573 1.97531 15.5899 1.47881 12.12M13.8524 12.0342H1.40625C0.888469 12.0342 0.46875 11.6145 0.46875 11.0967C0.46875 10.5789 0.888469 10.1592 1.40625 10.1592H13.8524V12.0342Z" stroke="#D13A3F" stroke-width="1.3" stroke-miterlimit="10" stroke-linecap="round" stroke-linejoin="round"/>
<path d="M5.63491 17.7686V20.1219C5.63491 20.7642 5.50038 21.3994 5.23999 21.9866C4.9796 22.5738 4.59912 23.1 4.12305 23.5312H17.852M19.2855 15.369L14.9851 17.8518L19.2855 20.3347M13.5065 0.46875H18.8147V2.68528H13.5065V0.46875ZM13.8526 2.68528H18.4685V12.0341H13.8526V2.68528Z" stroke="#D13A3F" stroke-width="1.3" stroke-miterlimit="10" stroke-linecap="round" stroke-linejoin="round"/>
<path d="M17.8513 23.5317C20.988 23.5317 23.5307 20.9889 23.5307 17.8523C23.5307 14.7156 20.988 12.1729 17.8513 12.1729C14.7146 12.1729 12.1719 14.7156 12.1719 17.8523C12.1719 20.9889 14.7146 23.5317 17.8513 23.5317Z" stroke="#D13A3F" stroke-width="1.3" stroke-miterlimit="10" stroke-linecap="round" stroke-linejoin="round"/>
<path d="M19.2852 16.6816C20.01 16.6816 20.5977 16.094 20.5977 15.3691C20.5977 14.6443 20.01 14.0566 19.2852 14.0566C18.5603 14.0566 17.9727 14.6443 17.9727 15.3691C17.9727 16.094 18.5603 16.6816 19.2852 16.6816Z" fill="#D13A3F"/>
<path d="M14.9844 19.1641C15.7092 19.1641 16.2969 18.5764 16.2969 17.8516C16.2969 17.1267 15.7092 16.5391 14.9844 16.5391C14.2595 16.5391 13.6719 17.1267 13.6719 17.8516C13.6719 18.5764 14.2595 19.1641 14.9844 19.1641Z" fill="#D13A3F"/>
<path d="M19.2852 21.6475C20.01 21.6475 20.5977 21.0598 20.5977 20.335C20.5977 19.6101 20.01 19.0225 19.2852 19.0225C18.5603 19.0225 17.9727 19.6101 17.9727 20.335C17.9727 21.0598 18.5603 21.6475 19.2852 21.6475Z" fill="#D13A3F"/>
</svg>
