<svg width="23" height="19" viewBox="0 0 23 19" fill="none" xmlns="http://www.w3.org/2000/svg">
<mask id="path-1-outside-1_806_2958" maskUnits="userSpaceOnUse" x="-0.900391" y="-0.900391" width="24" height="20" fill="black">
<rect fill="white" x="-0.900391" y="-0.900391" width="24" height="20"/>
<path d="M21.3626 0.0996094H1.43133C0.697266 0.0996094 0.100078 0.696797 0.100078 1.43086V2.48086C0.100078 2.63602 0.226172 2.76211 0.381328 2.76211H10.0048V17.9215C10.0048 18.0766 10.1309 18.2027 10.286 18.2027H12.5079C12.663 18.2027 12.7891 18.0766 12.7891 17.9215V2.76258H22.4126C22.5677 2.76258 22.6938 2.63648 22.6938 2.48133V1.43086C22.6938 0.696797 22.0966 0.0996094 21.3626 0.0996094ZM12.2266 17.6402H10.5673V2.76258H12.2266V17.6402ZM22.1313 2.20008H0.662578V1.43086C0.662578 1.00711 1.00758 0.662109 1.43133 0.662109H21.3626C21.7863 0.662109 22.1313 1.00711 22.1313 1.43086V2.20008ZM8.72555 6.38039C8.66789 5.6332 8.05945 5.07023 7.30992 5.07023H1.95117C1.20211 5.07023 0.593672 5.63367 0.535547 6.38039L0.100547 12.0049C0.100078 12.012 0.0996094 12.0195 0.0996094 12.0265C0.0996094 12.8473 0.516328 13.5724 1.14961 14.0013L1.50961 14.808C1.65398 15.131 1.9882 15.3316 2.38195 15.3316H2.75039L1.35633 17.7823C1.33807 17.8144 1.32632 17.8498 1.32174 17.8864C1.31715 17.923 1.31984 17.9602 1.32963 17.9958C1.33943 18.0314 1.35614 18.0648 1.37882 18.0939C1.40149 18.1231 1.42969 18.1475 1.4618 18.1657C1.50586 18.1905 1.55367 18.2027 1.60055 18.2027C1.69852 18.2027 1.7932 18.1516 1.84523 18.0607L3.39773 15.3326H5.86289L7.41539 18.0607C7.44 18.1039 7.4756 18.1398 7.51858 18.1647C7.56156 18.1897 7.61038 18.2028 7.66008 18.2027C7.70742 18.2027 7.75523 18.191 7.79883 18.1657C7.83093 18.1475 7.85913 18.1231 7.88181 18.0939C7.90449 18.0648 7.9212 18.0314 7.93099 17.9958C7.94079 17.9602 7.94347 17.923 7.93889 17.8864C7.93431 17.8498 7.92255 17.8144 7.9043 17.7823L6.50977 15.3321H6.8782C7.27242 15.3321 7.60664 15.1315 7.75055 14.8085L8.11055 14.0018C8.74383 13.5729 9.16055 12.8477 9.16055 12.027C9.16055 12.0199 9.16008 12.0124 9.15961 12.0054L8.72555 6.38039ZM7.23773 14.5793C7.15898 14.756 6.94336 14.7696 6.87914 14.7696H2.38242C2.3182 14.7696 2.10258 14.756 2.02383 14.5793L1.91836 14.3426C2.09977 14.3871 2.28961 14.411 2.48461 14.411H6.77742C6.97242 14.411 7.16227 14.3871 7.34367 14.3426L7.23773 14.5793ZM6.77695 13.849H2.48461C1.48336 13.849 0.668672 13.0376 0.663047 12.0377L1.09711 6.42399C1.1318 5.97305 1.4993 5.63273 1.95164 5.63273H7.31039C7.76273 5.63273 8.13023 5.97305 8.16492 6.42399L8.59898 12.0377C8.59289 13.0371 7.7782 13.849 6.77695 13.849ZM7.95586 8.27039C7.91602 7.75664 7.48148 7.35399 6.96586 7.35399H2.29523C1.78008 7.35399 1.34508 7.75664 1.30523 8.27039L1.19836 9.65461C1.17633 9.93773 1.2668 10.1974 1.45945 10.4055C1.65211 10.6137 1.9043 10.7238 2.18789 10.7238H7.07273C7.3568 10.7238 7.60852 10.6137 7.80117 10.4055C7.99383 10.1974 8.0843 9.93773 8.06227 9.65461L7.95586 8.27039ZM7.38867 10.0235C7.30289 10.1163 7.1993 10.1613 7.07273 10.1613H2.18836C2.0618 10.1613 1.95867 10.1163 1.87242 10.0235C1.78664 9.9307 1.74961 9.8243 1.75898 9.6982L1.86586 8.31398C1.8832 8.08758 2.06789 7.91695 2.29477 7.91695H6.96539C7.19227 7.91695 7.37695 8.08758 7.3943 8.31398L7.50117 9.6982C7.51195 9.8243 7.47492 9.9307 7.38867 10.0235ZM3.51492 6.49336C3.51492 6.3382 3.64102 6.21211 3.79617 6.21211H5.46539C5.62055 6.21211 5.74664 6.3382 5.74664 6.49336C5.74664 6.64852 5.62055 6.77461 5.46539 6.77461H3.79617C3.64102 6.77461 3.51492 6.64898 3.51492 6.49336ZM3.10008 12.7071C3.10008 12.8623 2.97398 12.9884 2.81883 12.9884H2.19352C2.03836 12.9884 1.91227 12.8623 1.91227 12.7071C1.91227 12.552 2.03836 12.4259 2.19352 12.4259H2.81883C2.97398 12.4259 3.10008 12.5515 3.10008 12.7071ZM3.42398 11.8657C3.42398 12.0209 3.29789 12.147 3.14273 12.147H1.86914C1.71398 12.147 1.58789 12.0209 1.58789 11.8657C1.58789 11.7105 1.71398 11.5845 1.86914 11.5845H3.14273C3.29789 11.5845 3.42398 11.7105 3.42398 11.8657ZM7.3493 12.7071C7.3493 12.8623 7.2232 12.9884 7.06805 12.9884H6.44273C6.28758 12.9884 6.16148 12.8623 6.16148 12.7071C6.16148 12.552 6.28758 12.4259 6.44273 12.4259H7.06805C7.2232 12.4259 7.3493 12.5515 7.3493 12.7071ZM7.6732 11.8657C7.6732 12.0209 7.54711 12.147 7.39195 12.147H6.11836C5.9632 12.147 5.83711 12.0209 5.83711 11.8657C5.83711 11.7105 5.9632 11.5845 6.11836 11.5845H7.39195C7.54758 11.5845 7.6732 11.7105 7.6732 11.8657ZM22.2579 6.38039C22.2002 5.6332 21.5913 5.07023 20.8423 5.07023H15.484C14.7349 5.07023 14.1265 5.63367 14.0684 6.38039L13.6334 12.0049C13.6329 12.012 13.6324 12.0195 13.6324 12.0265C13.6324 12.8473 14.0491 13.5724 14.6824 14.0013L15.0424 14.8076C15.1863 15.1305 15.521 15.3312 15.9148 15.3312H16.2832L14.8887 17.7813C14.8704 17.8134 14.8587 17.8488 14.8541 17.8855C14.8495 17.9221 14.8522 17.9593 14.862 17.9949C14.8718 18.0305 14.8885 18.0638 14.9112 18.093C14.9338 18.1221 14.962 18.1465 14.9941 18.1648C15.0382 18.1896 15.086 18.2018 15.1329 18.2018C15.2309 18.2018 15.3255 18.1507 15.3776 18.0598L16.9301 15.3316H19.3952L20.9477 18.0598C20.9723 18.1029 21.0079 18.1388 21.0509 18.1638C21.0939 18.1887 21.1427 18.2018 21.1924 18.2018C21.2398 18.2018 21.2876 18.1901 21.3312 18.1648C21.3633 18.1465 21.3915 18.1221 21.4142 18.093C21.4368 18.0638 21.4535 18.0305 21.4633 17.9949C21.4731 17.9593 21.4758 17.9221 21.4712 17.8855C21.4667 17.8488 21.4549 17.8134 21.4366 17.7813L20.0421 15.3312H20.4105C20.8048 15.3312 21.139 15.1305 21.2829 14.8076L21.6429 14.0009C22.2762 13.572 22.6929 12.8468 22.6929 12.026C22.6929 12.019 22.6924 12.0115 22.692 12.0045L22.2579 6.38039ZM20.7701 14.5793C20.6913 14.756 20.4757 14.7696 20.4115 14.7696H15.9152C15.851 14.7696 15.6354 14.756 15.5566 14.5793L15.4512 14.3426C15.6326 14.3871 15.8224 14.411 16.0174 14.411H20.3102C20.5052 14.411 20.6951 14.3871 20.8765 14.3426L20.7701 14.5793ZM20.3093 13.849H16.0165C15.0152 13.849 14.2005 13.0376 14.1949 12.0377L14.629 6.42399C14.6637 5.97305 15.0312 5.63273 15.4835 5.63273H20.8423C21.2946 5.63273 21.6621 5.97305 21.6968 6.42399L22.1313 12.0373C22.1257 13.0371 21.3105 13.849 20.3093 13.849ZM21.4887 8.27039C21.4488 7.75664 21.0143 7.35399 20.4987 7.35399H15.828C15.3129 7.35399 14.8779 7.75664 14.838 8.27039L14.7312 9.65461C14.7091 9.93773 14.7996 10.1974 14.9923 10.4055C15.1849 10.6137 15.4371 10.7238 15.7207 10.7238H20.6055C20.8891 10.7238 21.1413 10.6137 21.334 10.4055C21.5266 10.1974 21.6171 9.93773 21.5951 9.65461L21.4887 8.27039ZM20.9215 10.0235C20.8357 10.1163 20.7321 10.1613 20.6055 10.1613H15.7207C15.5941 10.1613 15.491 10.1163 15.4048 10.0235C15.319 9.9307 15.282 9.8243 15.2913 9.6982L15.3982 8.31398C15.4155 8.08758 15.6002 7.91695 15.8271 7.91695H20.4977C20.7246 7.91695 20.9093 8.08758 20.9266 8.31398L21.0335 9.6982C21.0443 9.8243 21.0073 9.9307 20.9215 10.0235ZM17.0473 6.49336C17.0473 6.3382 17.1734 6.21211 17.3285 6.21211H18.9977C19.1529 6.21211 19.279 6.3382 19.279 6.49336C19.279 6.64852 19.1529 6.77461 18.9977 6.77461H17.3285C17.1734 6.77461 17.0473 6.64898 17.0473 6.49336ZM16.6324 12.7071C16.6324 12.8623 16.5063 12.9884 16.3512 12.9884H15.7259C15.5707 12.9884 15.4446 12.8623 15.4446 12.7071C15.4446 12.552 15.5707 12.4259 15.7259 12.4259H16.3512C16.5068 12.4259 16.6324 12.5515 16.6324 12.7071ZM16.9568 11.8657C16.9568 12.0209 16.8307 12.147 16.6755 12.147H15.402C15.2468 12.147 15.1207 12.0209 15.1207 11.8657C15.1207 11.7105 15.2468 11.5845 15.402 11.5845H16.6755C16.8307 11.5845 16.9568 11.7105 16.9568 11.8657ZM20.8816 12.7071C20.8816 12.8623 20.7555 12.9884 20.6004 12.9884H19.9751C19.8199 12.9884 19.6938 12.8623 19.6938 12.7071C19.6938 12.552 19.8199 12.4259 19.9751 12.4259H20.6004C20.756 12.4259 20.8816 12.5515 20.8816 12.7071ZM21.206 11.8657C21.206 12.0209 21.0799 12.147 20.9248 12.147H19.6512C19.496 12.147 19.3699 12.0209 19.3699 11.8657C19.3699 11.7105 19.496 11.5845 19.6512 11.5845H20.9248C21.0799 11.5845 21.206 11.7105 21.206 11.8657Z"/>
</mask>
<path d="M21.3626 0.0996094H1.43133C0.697266 0.0996094 0.100078 0.696797 0.100078 1.43086V2.48086C0.100078 2.63602 0.226172 2.76211 0.381328 2.76211H10.0048V17.9215C10.0048 18.0766 10.1309 18.2027 10.286 18.2027H12.5079C12.663 18.2027 12.7891 18.0766 12.7891 17.9215V2.76258H22.4126C22.5677 2.76258 22.6938 2.63648 22.6938 2.48133V1.43086C22.6938 0.696797 22.0966 0.0996094 21.3626 0.0996094ZM12.2266 17.6402H10.5673V2.76258H12.2266V17.6402ZM22.1313 2.20008H0.662578V1.43086C0.662578 1.00711 1.00758 0.662109 1.43133 0.662109H21.3626C21.7863 0.662109 22.1313 1.00711 22.1313 1.43086V2.20008ZM8.72555 6.38039C8.66789 5.6332 8.05945 5.07023 7.30992 5.07023H1.95117C1.20211 5.07023 0.593672 5.63367 0.535547 6.38039L0.100547 12.0049C0.100078 12.012 0.0996094 12.0195 0.0996094 12.0265C0.0996094 12.8473 0.516328 13.5724 1.14961 14.0013L1.50961 14.808C1.65398 15.131 1.9882 15.3316 2.38195 15.3316H2.75039L1.35633 17.7823C1.33807 17.8144 1.32632 17.8498 1.32174 17.8864C1.31715 17.923 1.31984 17.9602 1.32963 17.9958C1.33943 18.0314 1.35614 18.0648 1.37882 18.0939C1.40149 18.1231 1.42969 18.1475 1.4618 18.1657C1.50586 18.1905 1.55367 18.2027 1.60055 18.2027C1.69852 18.2027 1.7932 18.1516 1.84523 18.0607L3.39773 15.3326H5.86289L7.41539 18.0607C7.44 18.1039 7.4756 18.1398 7.51858 18.1647C7.56156 18.1897 7.61038 18.2028 7.66008 18.2027C7.70742 18.2027 7.75523 18.191 7.79883 18.1657C7.83093 18.1475 7.85913 18.1231 7.88181 18.0939C7.90449 18.0648 7.9212 18.0314 7.93099 17.9958C7.94079 17.9602 7.94347 17.923 7.93889 17.8864C7.93431 17.8498 7.92255 17.8144 7.9043 17.7823L6.50977 15.3321H6.8782C7.27242 15.3321 7.60664 15.1315 7.75055 14.8085L8.11055 14.0018C8.74383 13.5729 9.16055 12.8477 9.16055 12.027C9.16055 12.0199 9.16008 12.0124 9.15961 12.0054L8.72555 6.38039ZM7.23773 14.5793C7.15898 14.756 6.94336 14.7696 6.87914 14.7696H2.38242C2.3182 14.7696 2.10258 14.756 2.02383 14.5793L1.91836 14.3426C2.09977 14.3871 2.28961 14.411 2.48461 14.411H6.77742C6.97242 14.411 7.16227 14.3871 7.34367 14.3426L7.23773 14.5793ZM6.77695 13.849H2.48461C1.48336 13.849 0.668672 13.0376 0.663047 12.0377L1.09711 6.42399C1.1318 5.97305 1.4993 5.63273 1.95164 5.63273H7.31039C7.76273 5.63273 8.13023 5.97305 8.16492 6.42399L8.59898 12.0377C8.59289 13.0371 7.7782 13.849 6.77695 13.849ZM7.95586 8.27039C7.91602 7.75664 7.48148 7.35399 6.96586 7.35399H2.29523C1.78008 7.35399 1.34508 7.75664 1.30523 8.27039L1.19836 9.65461C1.17633 9.93773 1.2668 10.1974 1.45945 10.4055C1.65211 10.6137 1.9043 10.7238 2.18789 10.7238H7.07273C7.3568 10.7238 7.60852 10.6137 7.80117 10.4055C7.99383 10.1974 8.0843 9.93773 8.06227 9.65461L7.95586 8.27039ZM7.38867 10.0235C7.30289 10.1163 7.1993 10.1613 7.07273 10.1613H2.18836C2.0618 10.1613 1.95867 10.1163 1.87242 10.0235C1.78664 9.9307 1.74961 9.8243 1.75898 9.6982L1.86586 8.31398C1.8832 8.08758 2.06789 7.91695 2.29477 7.91695H6.96539C7.19227 7.91695 7.37695 8.08758 7.3943 8.31398L7.50117 9.6982C7.51195 9.8243 7.47492 9.9307 7.38867 10.0235ZM3.51492 6.49336C3.51492 6.3382 3.64102 6.21211 3.79617 6.21211H5.46539C5.62055 6.21211 5.74664 6.3382 5.74664 6.49336C5.74664 6.64852 5.62055 6.77461 5.46539 6.77461H3.79617C3.64102 6.77461 3.51492 6.64898 3.51492 6.49336ZM3.10008 12.7071C3.10008 12.8623 2.97398 12.9884 2.81883 12.9884H2.19352C2.03836 12.9884 1.91227 12.8623 1.91227 12.7071C1.91227 12.552 2.03836 12.4259 2.19352 12.4259H2.81883C2.97398 12.4259 3.10008 12.5515 3.10008 12.7071ZM3.42398 11.8657C3.42398 12.0209 3.29789 12.147 3.14273 12.147H1.86914C1.71398 12.147 1.58789 12.0209 1.58789 11.8657C1.58789 11.7105 1.71398 11.5845 1.86914 11.5845H3.14273C3.29789 11.5845 3.42398 11.7105 3.42398 11.8657ZM7.3493 12.7071C7.3493 12.8623 7.2232 12.9884 7.06805 12.9884H6.44273C6.28758 12.9884 6.16148 12.8623 6.16148 12.7071C6.16148 12.552 6.28758 12.4259 6.44273 12.4259H7.06805C7.2232 12.4259 7.3493 12.5515 7.3493 12.7071ZM7.6732 11.8657C7.6732 12.0209 7.54711 12.147 7.39195 12.147H6.11836C5.9632 12.147 5.83711 12.0209 5.83711 11.8657C5.83711 11.7105 5.9632 11.5845 6.11836 11.5845H7.39195C7.54758 11.5845 7.6732 11.7105 7.6732 11.8657ZM22.2579 6.38039C22.2002 5.6332 21.5913 5.07023 20.8423 5.07023H15.484C14.7349 5.07023 14.1265 5.63367 14.0684 6.38039L13.6334 12.0049C13.6329 12.012 13.6324 12.0195 13.6324 12.0265C13.6324 12.8473 14.0491 13.5724 14.6824 14.0013L15.0424 14.8076C15.1863 15.1305 15.521 15.3312 15.9148 15.3312H16.2832L14.8887 17.7813C14.8704 17.8134 14.8587 17.8488 14.8541 17.8855C14.8495 17.9221 14.8522 17.9593 14.862 17.9949C14.8718 18.0305 14.8885 18.0638 14.9112 18.093C14.9338 18.1221 14.962 18.1465 14.9941 18.1648C15.0382 18.1896 15.086 18.2018 15.1329 18.2018C15.2309 18.2018 15.3255 18.1507 15.3776 18.0598L16.9301 15.3316H19.3952L20.9477 18.0598C20.9723 18.1029 21.0079 18.1388 21.0509 18.1638C21.0939 18.1887 21.1427 18.2018 21.1924 18.2018C21.2398 18.2018 21.2876 18.1901 21.3312 18.1648C21.3633 18.1465 21.3915 18.1221 21.4142 18.093C21.4368 18.0638 21.4535 18.0305 21.4633 17.9949C21.4731 17.9593 21.4758 17.9221 21.4712 17.8855C21.4667 17.8488 21.4549 17.8134 21.4366 17.7813L20.0421 15.3312H20.4105C20.8048 15.3312 21.139 15.1305 21.2829 14.8076L21.6429 14.0009C22.2762 13.572 22.6929 12.8468 22.6929 12.026C22.6929 12.019 22.6924 12.0115 22.692 12.0045L22.2579 6.38039ZM20.7701 14.5793C20.6913 14.756 20.4757 14.7696 20.4115 14.7696H15.9152C15.851 14.7696 15.6354 14.756 15.5566 14.5793L15.4512 14.3426C15.6326 14.3871 15.8224 14.411 16.0174 14.411H20.3102C20.5052 14.411 20.6951 14.3871 20.8765 14.3426L20.7701 14.5793ZM20.3093 13.849H16.0165C15.0152 13.849 14.2005 13.0376 14.1949 12.0377L14.629 6.42399C14.6637 5.97305 15.0312 5.63273 15.4835 5.63273H20.8423C21.2946 5.63273 21.6621 5.97305 21.6968 6.42399L22.1313 12.0373C22.1257 13.0371 21.3105 13.849 20.3093 13.849ZM21.4887 8.27039C21.4488 7.75664 21.0143 7.35399 20.4987 7.35399H15.828C15.3129 7.35399 14.8779 7.75664 14.838 8.27039L14.7312 9.65461C14.7091 9.93773 14.7996 10.1974 14.9923 10.4055C15.1849 10.6137 15.4371 10.7238 15.7207 10.7238H20.6055C20.8891 10.7238 21.1413 10.6137 21.334 10.4055C21.5266 10.1974 21.6171 9.93773 21.5951 9.65461L21.4887 8.27039ZM20.9215 10.0235C20.8357 10.1163 20.7321 10.1613 20.6055 10.1613H15.7207C15.5941 10.1613 15.491 10.1163 15.4048 10.0235C15.319 9.9307 15.282 9.8243 15.2913 9.6982L15.3982 8.31398C15.4155 8.08758 15.6002 7.91695 15.8271 7.91695H20.4977C20.7246 7.91695 20.9093 8.08758 20.9266 8.31398L21.0335 9.6982C21.0443 9.8243 21.0073 9.9307 20.9215 10.0235ZM17.0473 6.49336C17.0473 6.3382 17.1734 6.21211 17.3285 6.21211H18.9977C19.1529 6.21211 19.279 6.3382 19.279 6.49336C19.279 6.64852 19.1529 6.77461 18.9977 6.77461H17.3285C17.1734 6.77461 17.0473 6.64898 17.0473 6.49336ZM16.6324 12.7071C16.6324 12.8623 16.5063 12.9884 16.3512 12.9884H15.7259C15.5707 12.9884 15.4446 12.8623 15.4446 12.7071C15.4446 12.552 15.5707 12.4259 15.7259 12.4259H16.3512C16.5068 12.4259 16.6324 12.5515 16.6324 12.7071ZM16.9568 11.8657C16.9568 12.0209 16.8307 12.147 16.6755 12.147H15.402C15.2468 12.147 15.1207 12.0209 15.1207 11.8657C15.1207 11.7105 15.2468 11.5845 15.402 11.5845H16.6755C16.8307 11.5845 16.9568 11.7105 16.9568 11.8657ZM20.8816 12.7071C20.8816 12.8623 20.7555 12.9884 20.6004 12.9884H19.9751C19.8199 12.9884 19.6938 12.8623 19.6938 12.7071C19.6938 12.552 19.8199 12.4259 19.9751 12.4259H20.6004C20.756 12.4259 20.8816 12.5515 20.8816 12.7071ZM21.206 11.8657C21.206 12.0209 21.0799 12.147 20.9248 12.147H19.6512C19.496 12.147 19.3699 12.0209 19.3699 11.8657C19.3699 11.7105 19.496 11.5845 19.6512 11.5845H20.9248C21.0799 11.5845 21.206 11.7105 21.206 11.8657Z" fill="#D13A3F"/>
<path d="M21.3626 0.0996094H1.43133C0.697266 0.0996094 0.100078 0.696797 0.100078 1.43086V2.48086C0.100078 2.63602 0.226172 2.76211 0.381328 2.76211H10.0048V17.9215C10.0048 18.0766 10.1309 18.2027 10.286 18.2027H12.5079C12.663 18.2027 12.7891 18.0766 12.7891 17.9215V2.76258H22.4126C22.5677 2.76258 22.6938 2.63648 22.6938 2.48133V1.43086C22.6938 0.696797 22.0966 0.0996094 21.3626 0.0996094ZM12.2266 17.6402H10.5673V2.76258H12.2266V17.6402ZM22.1313 2.20008H0.662578V1.43086C0.662578 1.00711 1.00758 0.662109 1.43133 0.662109H21.3626C21.7863 0.662109 22.1313 1.00711 22.1313 1.43086V2.20008ZM8.72555 6.38039C8.66789 5.6332 8.05945 5.07023 7.30992 5.07023H1.95117C1.20211 5.07023 0.593672 5.63367 0.535547 6.38039L0.100547 12.0049C0.100078 12.012 0.0996094 12.0195 0.0996094 12.0265C0.0996094 12.8473 0.516328 13.5724 1.14961 14.0013L1.50961 14.808C1.65398 15.131 1.9882 15.3316 2.38195 15.3316H2.75039L1.35633 17.7823C1.33807 17.8144 1.32632 17.8498 1.32174 17.8864C1.31715 17.923 1.31984 17.9602 1.32963 17.9958C1.33943 18.0314 1.35614 18.0648 1.37882 18.0939C1.40149 18.1231 1.42969 18.1475 1.4618 18.1657C1.50586 18.1905 1.55367 18.2027 1.60055 18.2027C1.69852 18.2027 1.7932 18.1516 1.84523 18.0607L3.39773 15.3326H5.86289L7.41539 18.0607C7.44 18.1039 7.4756 18.1398 7.51858 18.1647C7.56156 18.1897 7.61038 18.2028 7.66008 18.2027C7.70742 18.2027 7.75523 18.191 7.79883 18.1657C7.83093 18.1475 7.85913 18.1231 7.88181 18.0939C7.90449 18.0648 7.9212 18.0314 7.93099 17.9958C7.94079 17.9602 7.94347 17.923 7.93889 17.8864C7.93431 17.8498 7.92255 17.8144 7.9043 17.7823L6.50977 15.3321H6.8782C7.27242 15.3321 7.60664 15.1315 7.75055 14.8085L8.11055 14.0018C8.74383 13.5729 9.16055 12.8477 9.16055 12.027C9.16055 12.0199 9.16008 12.0124 9.15961 12.0054L8.72555 6.38039ZM7.23773 14.5793C7.15898 14.756 6.94336 14.7696 6.87914 14.7696H2.38242C2.3182 14.7696 2.10258 14.756 2.02383 14.5793L1.91836 14.3426C2.09977 14.3871 2.28961 14.411 2.48461 14.411H6.77742C6.97242 14.411 7.16227 14.3871 7.34367 14.3426L7.23773 14.5793ZM6.77695 13.849H2.48461C1.48336 13.849 0.668672 13.0376 0.663047 12.0377L1.09711 6.42399C1.1318 5.97305 1.4993 5.63273 1.95164 5.63273H7.31039C7.76273 5.63273 8.13023 5.97305 8.16492 6.42399L8.59898 12.0377C8.59289 13.0371 7.7782 13.849 6.77695 13.849ZM7.95586 8.27039C7.91602 7.75664 7.48148 7.35399 6.96586 7.35399H2.29523C1.78008 7.35399 1.34508 7.75664 1.30523 8.27039L1.19836 9.65461C1.17633 9.93773 1.2668 10.1974 1.45945 10.4055C1.65211 10.6137 1.9043 10.7238 2.18789 10.7238H7.07273C7.3568 10.7238 7.60852 10.6137 7.80117 10.4055C7.99383 10.1974 8.0843 9.93773 8.06227 9.65461L7.95586 8.27039ZM7.38867 10.0235C7.30289 10.1163 7.1993 10.1613 7.07273 10.1613H2.18836C2.0618 10.1613 1.95867 10.1163 1.87242 10.0235C1.78664 9.9307 1.74961 9.8243 1.75898 9.6982L1.86586 8.31398C1.8832 8.08758 2.06789 7.91695 2.29477 7.91695H6.96539C7.19227 7.91695 7.37695 8.08758 7.3943 8.31398L7.50117 9.6982C7.51195 9.8243 7.47492 9.9307 7.38867 10.0235ZM3.51492 6.49336C3.51492 6.3382 3.64102 6.21211 3.79617 6.21211H5.46539C5.62055 6.21211 5.74664 6.3382 5.74664 6.49336C5.74664 6.64852 5.62055 6.77461 5.46539 6.77461H3.79617C3.64102 6.77461 3.51492 6.64898 3.51492 6.49336ZM3.10008 12.7071C3.10008 12.8623 2.97398 12.9884 2.81883 12.9884H2.19352C2.03836 12.9884 1.91227 12.8623 1.91227 12.7071C1.91227 12.552 2.03836 12.4259 2.19352 12.4259H2.81883C2.97398 12.4259 3.10008 12.5515 3.10008 12.7071ZM3.42398 11.8657C3.42398 12.0209 3.29789 12.147 3.14273 12.147H1.86914C1.71398 12.147 1.58789 12.0209 1.58789 11.8657C1.58789 11.7105 1.71398 11.5845 1.86914 11.5845H3.14273C3.29789 11.5845 3.42398 11.7105 3.42398 11.8657ZM7.3493 12.7071C7.3493 12.8623 7.2232 12.9884 7.06805 12.9884H6.44273C6.28758 12.9884 6.16148 12.8623 6.16148 12.7071C6.16148 12.552 6.28758 12.4259 6.44273 12.4259H7.06805C7.2232 12.4259 7.3493 12.5515 7.3493 12.7071ZM7.6732 11.8657C7.6732 12.0209 7.54711 12.147 7.39195 12.147H6.11836C5.9632 12.147 5.83711 12.0209 5.83711 11.8657C5.83711 11.7105 5.9632 11.5845 6.11836 11.5845H7.39195C7.54758 11.5845 7.6732 11.7105 7.6732 11.8657ZM22.2579 6.38039C22.2002 5.6332 21.5913 5.07023 20.8423 5.07023H15.484C14.7349 5.07023 14.1265 5.63367 14.0684 6.38039L13.6334 12.0049C13.6329 12.012 13.6324 12.0195 13.6324 12.0265C13.6324 12.8473 14.0491 13.5724 14.6824 14.0013L15.0424 14.8076C15.1863 15.1305 15.521 15.3312 15.9148 15.3312H16.2832L14.8887 17.7813C14.8704 17.8134 14.8587 17.8488 14.8541 17.8855C14.8495 17.9221 14.8522 17.9593 14.862 17.9949C14.8718 18.0305 14.8885 18.0638 14.9112 18.093C14.9338 18.1221 14.962 18.1465 14.9941 18.1648C15.0382 18.1896 15.086 18.2018 15.1329 18.2018C15.2309 18.2018 15.3255 18.1507 15.3776 18.0598L16.9301 15.3316H19.3952L20.9477 18.0598C20.9723 18.1029 21.0079 18.1388 21.0509 18.1638C21.0939 18.1887 21.1427 18.2018 21.1924 18.2018C21.2398 18.2018 21.2876 18.1901 21.3312 18.1648C21.3633 18.1465 21.3915 18.1221 21.4142 18.093C21.4368 18.0638 21.4535 18.0305 21.4633 17.9949C21.4731 17.9593 21.4758 17.9221 21.4712 17.8855C21.4667 17.8488 21.4549 17.8134 21.4366 17.7813L20.0421 15.3312H20.4105C20.8048 15.3312 21.139 15.1305 21.2829 14.8076L21.6429 14.0009C22.2762 13.572 22.6929 12.8468 22.6929 12.026C22.6929 12.019 22.6924 12.0115 22.692 12.0045L22.2579 6.38039ZM20.7701 14.5793C20.6913 14.756 20.4757 14.7696 20.4115 14.7696H15.9152C15.851 14.7696 15.6354 14.756 15.5566 14.5793L15.4512 14.3426C15.6326 14.3871 15.8224 14.411 16.0174 14.411H20.3102C20.5052 14.411 20.6951 14.3871 20.8765 14.3426L20.7701 14.5793ZM20.3093 13.849H16.0165C15.0152 13.849 14.2005 13.0376 14.1949 12.0377L14.629 6.42399C14.6637 5.97305 15.0312 5.63273 15.4835 5.63273H20.8423C21.2946 5.63273 21.6621 5.97305 21.6968 6.42399L22.1313 12.0373C22.1257 13.0371 21.3105 13.849 20.3093 13.849ZM21.4887 8.27039C21.4488 7.75664 21.0143 7.35399 20.4987 7.35399H15.828C15.3129 7.35399 14.8779 7.75664 14.838 8.27039L14.7312 9.65461C14.7091 9.93773 14.7996 10.1974 14.9923 10.4055C15.1849 10.6137 15.4371 10.7238 15.7207 10.7238H20.6055C20.8891 10.7238 21.1413 10.6137 21.334 10.4055C21.5266 10.1974 21.6171 9.93773 21.5951 9.65461L21.4887 8.27039ZM20.9215 10.0235C20.8357 10.1163 20.7321 10.1613 20.6055 10.1613H15.7207C15.5941 10.1613 15.491 10.1163 15.4048 10.0235C15.319 9.9307 15.282 9.8243 15.2913 9.6982L15.3982 8.31398C15.4155 8.08758 15.6002 7.91695 15.8271 7.91695H20.4977C20.7246 7.91695 20.9093 8.08758 20.9266 8.31398L21.0335 9.6982C21.0443 9.8243 21.0073 9.9307 20.9215 10.0235ZM17.0473 6.49336C17.0473 6.3382 17.1734 6.21211 17.3285 6.21211H18.9977C19.1529 6.21211 19.279 6.3382 19.279 6.49336C19.279 6.64852 19.1529 6.77461 18.9977 6.77461H17.3285C17.1734 6.77461 17.0473 6.64898 17.0473 6.49336ZM16.6324 12.7071C16.6324 12.8623 16.5063 12.9884 16.3512 12.9884H15.7259C15.5707 12.9884 15.4446 12.8623 15.4446 12.7071C15.4446 12.552 15.5707 12.4259 15.7259 12.4259H16.3512C16.5068 12.4259 16.6324 12.5515 16.6324 12.7071ZM16.9568 11.8657C16.9568 12.0209 16.8307 12.147 16.6755 12.147H15.402C15.2468 12.147 15.1207 12.0209 15.1207 11.8657C15.1207 11.7105 15.2468 11.5845 15.402 11.5845H16.6755C16.8307 11.5845 16.9568 11.7105 16.9568 11.8657ZM20.8816 12.7071C20.8816 12.8623 20.7555 12.9884 20.6004 12.9884H19.9751C19.8199 12.9884 19.6938 12.8623 19.6938 12.7071C19.6938 12.552 19.8199 12.4259 19.9751 12.4259H20.6004C20.756 12.4259 20.8816 12.5515 20.8816 12.7071ZM21.206 11.8657C21.206 12.0209 21.0799 12.147 20.9248 12.147H19.6512C19.496 12.147 19.3699 12.0209 19.3699 11.8657C19.3699 11.7105 19.496 11.5845 19.6512 11.5845H20.9248C21.0799 11.5845 21.206 11.7105 21.206 11.8657Z" stroke="#D13A3F" stroke-width="0.2" mask="url(#path-1-outside-1_806_2958)"/>
</svg>
